M48
; DRILL file {KiCad (5.1.9)-1} date 05/18/21 19:43:42
; FORMAT={-:-/ absolute / metric / decimal}
; #@! TF.CreationDate,2021-05-18T19:43:42+08:00
; #@! TF.GenerationSoftware,Kicad,Pcbnew,(5.1.9)-1
FMAT,2
METRIC
T1C1.000
T2C1.800
T3C3.700
%
G90
G05
T1
X173.355Y-64.135
X173.355Y-66.675
T2
X160.02Y-99.325
X160.02Y-103.285
X160.02Y-107.245
X160.02Y-111.205
X160.02Y-115.165
X160.02Y-119.125
X173.355Y-75.565
X173.355Y-79.525
X173.355Y-83.485
X173.355Y-87.445
X173.355Y-91.405
X173.355Y-95.365
X173.355Y-99.325
X173.355Y-103.285
X173.355Y-107.245
X173.355Y-111.205
X173.355Y-115.165
X173.355Y-119.125
X173.355Y-123.085
X173.355Y-127.045
X173.355Y-131.005
T3
X173.355Y-54.63
X173.355Y-139.68
T0
M30
