%TF.GenerationSoftware,KiCad,Pcbnew,(5.1.9)-1*%
%TF.CreationDate,2021-05-18T19:43:41+08:00*%
%TF.ProjectId,Tandy1000PowerGeneric,54616e64-7931-4303-9030-506f77657247,rev?*%
%TF.SameCoordinates,Original*%
%TF.FileFunction,Legend,Top*%
%TF.FilePolarity,Positive*%
%FSLAX46Y46*%
G04 Gerber Fmt 4.6, Leading zero omitted, Abs format (unit mm)*
G04 Created by KiCad (PCBNEW (5.1.9)-1) date 2021-05-18 19:43:41*
%MOMM*%
%LPD*%
G01*
G04 APERTURE LIST*
%ADD10C,0.150000*%
%ADD11C,0.200000*%
%ADD12C,0.120000*%
G04 APERTURE END LIST*
D10*
X154504047Y-127977380D02*
X154504047Y-128691666D01*
X154456428Y-128834523D01*
X154361190Y-128929761D01*
X154218333Y-128977380D01*
X154123095Y-128977380D01*
X155504047Y-128977380D02*
X154932619Y-128977380D01*
X155218333Y-128977380D02*
X155218333Y-127977380D01*
X155123095Y-128120238D01*
X155027857Y-128215476D01*
X154932619Y-128263095D01*
X157123095Y-128977380D02*
X157123095Y-128453571D01*
X157075476Y-128358333D01*
X156980238Y-128310714D01*
X156789761Y-128310714D01*
X156694523Y-128358333D01*
X157123095Y-128929761D02*
X157027857Y-128977380D01*
X156789761Y-128977380D01*
X156694523Y-128929761D01*
X156646904Y-128834523D01*
X156646904Y-128739285D01*
X156694523Y-128644047D01*
X156789761Y-128596428D01*
X157027857Y-128596428D01*
X157123095Y-128548809D01*
X157599285Y-128310714D02*
X157599285Y-128977380D01*
X157599285Y-128405952D02*
X157646904Y-128358333D01*
X157742142Y-128310714D01*
X157885000Y-128310714D01*
X157980238Y-128358333D01*
X158027857Y-128453571D01*
X158027857Y-128977380D01*
X158932619Y-128977380D02*
X158932619Y-127977380D01*
X158932619Y-128929761D02*
X158837380Y-128977380D01*
X158646904Y-128977380D01*
X158551666Y-128929761D01*
X158504047Y-128882142D01*
X158456428Y-128786904D01*
X158456428Y-128501190D01*
X158504047Y-128405952D01*
X158551666Y-128358333D01*
X158646904Y-128310714D01*
X158837380Y-128310714D01*
X158932619Y-128358333D01*
X160456428Y-127977380D02*
X160456428Y-128691666D01*
X160408809Y-128834523D01*
X160313571Y-128929761D01*
X160170714Y-128977380D01*
X160075476Y-128977380D01*
X160885000Y-128072619D02*
X160932619Y-128025000D01*
X161027857Y-127977380D01*
X161265952Y-127977380D01*
X161361190Y-128025000D01*
X161408809Y-128072619D01*
X161456428Y-128167857D01*
X161456428Y-128263095D01*
X161408809Y-128405952D01*
X160837380Y-128977380D01*
X161456428Y-128977380D01*
X163075476Y-128977380D02*
X163075476Y-128453571D01*
X163027857Y-128358333D01*
X162932619Y-128310714D01*
X162742142Y-128310714D01*
X162646904Y-128358333D01*
X163075476Y-128929761D02*
X162980238Y-128977380D01*
X162742142Y-128977380D01*
X162646904Y-128929761D01*
X162599285Y-128834523D01*
X162599285Y-128739285D01*
X162646904Y-128644047D01*
X162742142Y-128596428D01*
X162980238Y-128596428D01*
X163075476Y-128548809D01*
X163551666Y-128977380D02*
X163551666Y-128310714D01*
X163551666Y-128501190D02*
X163599285Y-128405952D01*
X163646904Y-128358333D01*
X163742142Y-128310714D01*
X163837380Y-128310714D01*
X164551666Y-128929761D02*
X164456428Y-128977380D01*
X164265952Y-128977380D01*
X164170714Y-128929761D01*
X164123095Y-128834523D01*
X164123095Y-128453571D01*
X164170714Y-128358333D01*
X164265952Y-128310714D01*
X164456428Y-128310714D01*
X164551666Y-128358333D01*
X164599285Y-128453571D01*
X164599285Y-128548809D01*
X164123095Y-128644047D01*
X155218333Y-130627380D02*
X155218333Y-129627380D01*
X155551666Y-130341666D01*
X155885000Y-129627380D01*
X155885000Y-130627380D01*
X156504047Y-130627380D02*
X156408809Y-130579761D01*
X156361190Y-130532142D01*
X156313571Y-130436904D01*
X156313571Y-130151190D01*
X156361190Y-130055952D01*
X156408809Y-130008333D01*
X156504047Y-129960714D01*
X156646904Y-129960714D01*
X156742142Y-130008333D01*
X156789761Y-130055952D01*
X156837380Y-130151190D01*
X156837380Y-130436904D01*
X156789761Y-130532142D01*
X156742142Y-130579761D01*
X156646904Y-130627380D01*
X156504047Y-130627380D01*
X157408809Y-130627380D02*
X157313571Y-130579761D01*
X157265952Y-130484523D01*
X157265952Y-129627380D01*
X158170714Y-130579761D02*
X158075476Y-130627380D01*
X157885000Y-130627380D01*
X157789761Y-130579761D01*
X157742142Y-130484523D01*
X157742142Y-130103571D01*
X157789761Y-130008333D01*
X157885000Y-129960714D01*
X158075476Y-129960714D01*
X158170714Y-130008333D01*
X158218333Y-130103571D01*
X158218333Y-130198809D01*
X157742142Y-130294047D01*
X158551666Y-130627380D02*
X159075476Y-129960714D01*
X158551666Y-129960714D02*
X159075476Y-130627380D01*
X160694523Y-129627380D02*
X160218333Y-129627380D01*
X160170714Y-130103571D01*
X160218333Y-130055952D01*
X160313571Y-130008333D01*
X160551666Y-130008333D01*
X160646904Y-130055952D01*
X160694523Y-130103571D01*
X160742142Y-130198809D01*
X160742142Y-130436904D01*
X160694523Y-130532142D01*
X160646904Y-130579761D01*
X160551666Y-130627380D01*
X160313571Y-130627380D01*
X160218333Y-130579761D01*
X160170714Y-130532142D01*
X161123095Y-129722619D02*
X161170714Y-129675000D01*
X161265952Y-129627380D01*
X161504047Y-129627380D01*
X161599285Y-129675000D01*
X161646904Y-129722619D01*
X161694523Y-129817857D01*
X161694523Y-129913095D01*
X161646904Y-130055952D01*
X161075476Y-130627380D01*
X161694523Y-130627380D01*
X162027857Y-129627380D02*
X162694523Y-129627380D01*
X162265952Y-130627380D01*
X162980238Y-129627380D02*
X163599285Y-129627380D01*
X163265952Y-130008333D01*
X163408809Y-130008333D01*
X163504047Y-130055952D01*
X163551666Y-130103571D01*
X163599285Y-130198809D01*
X163599285Y-130436904D01*
X163551666Y-130532142D01*
X163504047Y-130579761D01*
X163408809Y-130627380D01*
X163123095Y-130627380D01*
X163027857Y-130579761D01*
X162980238Y-130532142D01*
X152885000Y-132229761D02*
X152980238Y-132277380D01*
X153170714Y-132277380D01*
X153265952Y-132229761D01*
X153313571Y-132134523D01*
X153313571Y-132086904D01*
X153265952Y-131991666D01*
X153170714Y-131944047D01*
X153027857Y-131944047D01*
X152932619Y-131896428D01*
X152885000Y-131801190D01*
X152885000Y-131753571D01*
X152932619Y-131658333D01*
X153027857Y-131610714D01*
X153170714Y-131610714D01*
X153265952Y-131658333D01*
X154123095Y-132229761D02*
X154027857Y-132277380D01*
X153837380Y-132277380D01*
X153742142Y-132229761D01*
X153694523Y-132134523D01*
X153694523Y-131753571D01*
X153742142Y-131658333D01*
X153837380Y-131610714D01*
X154027857Y-131610714D01*
X154123095Y-131658333D01*
X154170714Y-131753571D01*
X154170714Y-131848809D01*
X153694523Y-131944047D01*
X154599285Y-132277380D02*
X154599285Y-131610714D01*
X154599285Y-131801190D02*
X154646904Y-131705952D01*
X154694523Y-131658333D01*
X154789761Y-131610714D01*
X154885000Y-131610714D01*
X155218333Y-132277380D02*
X155218333Y-131610714D01*
X155218333Y-131277380D02*
X155170714Y-131325000D01*
X155218333Y-131372619D01*
X155265952Y-131325000D01*
X155218333Y-131277380D01*
X155218333Y-131372619D01*
X156075476Y-132229761D02*
X155980238Y-132277380D01*
X155789761Y-132277380D01*
X155694523Y-132229761D01*
X155646904Y-132134523D01*
X155646904Y-131753571D01*
X155694523Y-131658333D01*
X155789761Y-131610714D01*
X155980238Y-131610714D01*
X156075476Y-131658333D01*
X156123095Y-131753571D01*
X156123095Y-131848809D01*
X155646904Y-131944047D01*
X156504047Y-132229761D02*
X156599285Y-132277380D01*
X156789761Y-132277380D01*
X156885000Y-132229761D01*
X156932619Y-132134523D01*
X156932619Y-132086904D01*
X156885000Y-131991666D01*
X156789761Y-131944047D01*
X156646904Y-131944047D01*
X156551666Y-131896428D01*
X156504047Y-131801190D01*
X156504047Y-131753571D01*
X156551666Y-131658333D01*
X156646904Y-131610714D01*
X156789761Y-131610714D01*
X156885000Y-131658333D01*
X158551666Y-132229761D02*
X158456428Y-132277380D01*
X158265952Y-132277380D01*
X158170714Y-132229761D01*
X158123095Y-132182142D01*
X158075476Y-132086904D01*
X158075476Y-131801190D01*
X158123095Y-131705952D01*
X158170714Y-131658333D01*
X158265952Y-131610714D01*
X158456428Y-131610714D01*
X158551666Y-131658333D01*
X159123095Y-132277380D02*
X159027857Y-132229761D01*
X158980238Y-132182142D01*
X158932619Y-132086904D01*
X158932619Y-131801190D01*
X158980238Y-131705952D01*
X159027857Y-131658333D01*
X159123095Y-131610714D01*
X159265952Y-131610714D01*
X159361190Y-131658333D01*
X159408809Y-131705952D01*
X159456428Y-131801190D01*
X159456428Y-132086904D01*
X159408809Y-132182142D01*
X159361190Y-132229761D01*
X159265952Y-132277380D01*
X159123095Y-132277380D01*
X159885000Y-131610714D02*
X159885000Y-132277380D01*
X159885000Y-131705952D02*
X159932619Y-131658333D01*
X160027857Y-131610714D01*
X160170714Y-131610714D01*
X160265952Y-131658333D01*
X160313571Y-131753571D01*
X160313571Y-132277380D01*
X160789761Y-131610714D02*
X160789761Y-132277380D01*
X160789761Y-131705952D02*
X160837380Y-131658333D01*
X160932619Y-131610714D01*
X161075476Y-131610714D01*
X161170714Y-131658333D01*
X161218333Y-131753571D01*
X161218333Y-132277380D01*
X162075476Y-132229761D02*
X161980238Y-132277380D01*
X161789761Y-132277380D01*
X161694523Y-132229761D01*
X161646904Y-132134523D01*
X161646904Y-131753571D01*
X161694523Y-131658333D01*
X161789761Y-131610714D01*
X161980238Y-131610714D01*
X162075476Y-131658333D01*
X162123095Y-131753571D01*
X162123095Y-131848809D01*
X161646904Y-131944047D01*
X162980238Y-132229761D02*
X162885000Y-132277380D01*
X162694523Y-132277380D01*
X162599285Y-132229761D01*
X162551666Y-132182142D01*
X162504047Y-132086904D01*
X162504047Y-131801190D01*
X162551666Y-131705952D01*
X162599285Y-131658333D01*
X162694523Y-131610714D01*
X162885000Y-131610714D01*
X162980238Y-131658333D01*
X163265952Y-131610714D02*
X163646904Y-131610714D01*
X163408809Y-131277380D02*
X163408809Y-132134523D01*
X163456428Y-132229761D01*
X163551666Y-132277380D01*
X163646904Y-132277380D01*
X164123095Y-132277380D02*
X164027857Y-132229761D01*
X163980238Y-132182142D01*
X163932619Y-132086904D01*
X163932619Y-131801190D01*
X163980238Y-131705952D01*
X164027857Y-131658333D01*
X164123095Y-131610714D01*
X164265952Y-131610714D01*
X164361190Y-131658333D01*
X164408809Y-131705952D01*
X164456428Y-131801190D01*
X164456428Y-132086904D01*
X164408809Y-132182142D01*
X164361190Y-132229761D01*
X164265952Y-132277380D01*
X164123095Y-132277380D01*
X164885000Y-132277380D02*
X164885000Y-131610714D01*
X164885000Y-131801190D02*
X164932619Y-131705952D01*
X164980238Y-131658333D01*
X165075476Y-131610714D01*
X165170714Y-131610714D01*
X165456428Y-132229761D02*
X165551666Y-132277380D01*
X165742142Y-132277380D01*
X165837380Y-132229761D01*
X165885000Y-132134523D01*
X165885000Y-132086904D01*
X165837380Y-131991666D01*
X165742142Y-131944047D01*
X165599285Y-131944047D01*
X165504047Y-131896428D01*
X165456428Y-131801190D01*
X165456428Y-131753571D01*
X165504047Y-131658333D01*
X165599285Y-131610714D01*
X165742142Y-131610714D01*
X165837380Y-131658333D01*
D11*
X152479166Y-93492857D02*
X150729166Y-93492857D01*
X150729166Y-92921428D01*
X150812500Y-92778571D01*
X150895833Y-92707142D01*
X151062500Y-92635714D01*
X151312500Y-92635714D01*
X151479166Y-92707142D01*
X151562500Y-92778571D01*
X151645833Y-92921428D01*
X151645833Y-93492857D01*
X152479166Y-91778571D02*
X152395833Y-91921428D01*
X152229166Y-91992857D01*
X150729166Y-91992857D01*
X152479166Y-90564285D02*
X151562500Y-90564285D01*
X151395833Y-90635714D01*
X151312500Y-90778571D01*
X151312500Y-91064285D01*
X151395833Y-91207142D01*
X152395833Y-90564285D02*
X152479166Y-90707142D01*
X152479166Y-91064285D01*
X152395833Y-91207142D01*
X152229166Y-91278571D01*
X152062500Y-91278571D01*
X151895833Y-91207142D01*
X151812500Y-91064285D01*
X151812500Y-90707142D01*
X151729166Y-90564285D01*
X152395833Y-89207142D02*
X152479166Y-89350000D01*
X152479166Y-89635714D01*
X152395833Y-89778571D01*
X152312500Y-89850000D01*
X152145833Y-89921428D01*
X151645833Y-89921428D01*
X151479166Y-89850000D01*
X151395833Y-89778571D01*
X151312500Y-89635714D01*
X151312500Y-89350000D01*
X151395833Y-89207142D01*
X152395833Y-87992857D02*
X152479166Y-88135714D01*
X152479166Y-88421428D01*
X152395833Y-88564285D01*
X152229166Y-88635714D01*
X151562500Y-88635714D01*
X151395833Y-88564285D01*
X151312500Y-88421428D01*
X151312500Y-88135714D01*
X151395833Y-87992857D01*
X151562500Y-87921428D01*
X151729166Y-87921428D01*
X151895833Y-88635714D01*
X152479166Y-86635714D02*
X150729166Y-86635714D01*
X152395833Y-86635714D02*
X152479166Y-86778571D01*
X152479166Y-87064285D01*
X152395833Y-87207142D01*
X152312500Y-87278571D01*
X152145833Y-87350000D01*
X151645833Y-87350000D01*
X151479166Y-87278571D01*
X151395833Y-87207142D01*
X151312500Y-87064285D01*
X151312500Y-86778571D01*
X151395833Y-86635714D01*
X152479166Y-84778571D02*
X151312500Y-84778571D01*
X150729166Y-84778571D02*
X150812500Y-84850000D01*
X150895833Y-84778571D01*
X150812500Y-84707142D01*
X150729166Y-84778571D01*
X150895833Y-84778571D01*
X151312500Y-84064285D02*
X152479166Y-84064285D01*
X151479166Y-84064285D02*
X151395833Y-83992857D01*
X151312500Y-83850000D01*
X151312500Y-83635714D01*
X151395833Y-83492857D01*
X151562500Y-83421428D01*
X152479166Y-83421428D01*
X151312500Y-82921428D02*
X151312500Y-82350000D01*
X150729166Y-82707142D02*
X152229166Y-82707142D01*
X152395833Y-82635714D01*
X152479166Y-82492857D01*
X152479166Y-82350000D01*
X152479166Y-81635714D02*
X152395833Y-81778571D01*
X152312500Y-81850000D01*
X152145833Y-81921428D01*
X151645833Y-81921428D01*
X151479166Y-81850000D01*
X151395833Y-81778571D01*
X151312500Y-81635714D01*
X151312500Y-81421428D01*
X151395833Y-81278571D01*
X151479166Y-81207142D01*
X151645833Y-81135714D01*
X152145833Y-81135714D01*
X152312500Y-81207142D01*
X152395833Y-81278571D01*
X152479166Y-81421428D01*
X152479166Y-81635714D01*
X151312500Y-79564285D02*
X151312500Y-78992857D01*
X150729166Y-79350000D02*
X152229166Y-79350000D01*
X152395833Y-79278571D01*
X152479166Y-79135714D01*
X152479166Y-78992857D01*
X152479166Y-78492857D02*
X150729166Y-78492857D01*
X152479166Y-77850000D02*
X151562500Y-77850000D01*
X151395833Y-77921428D01*
X151312500Y-78064285D01*
X151312500Y-78278571D01*
X151395833Y-78421428D01*
X151479166Y-78492857D01*
X152395833Y-76564285D02*
X152479166Y-76707142D01*
X152479166Y-76992857D01*
X152395833Y-77135714D01*
X152229166Y-77207142D01*
X151562500Y-77207142D01*
X151395833Y-77135714D01*
X151312500Y-76992857D01*
X151312500Y-76707142D01*
X151395833Y-76564285D01*
X151562500Y-76492857D01*
X151729166Y-76492857D01*
X151895833Y-77207142D01*
X152479166Y-74707142D02*
X150729166Y-74707142D01*
X150729166Y-74135714D01*
X150812500Y-73992857D01*
X150895833Y-73921428D01*
X151062500Y-73850000D01*
X151312500Y-73850000D01*
X151479166Y-73921428D01*
X151562500Y-73992857D01*
X151645833Y-74135714D01*
X151645833Y-74707142D01*
X151312500Y-72564285D02*
X152479166Y-72564285D01*
X151312500Y-73207142D02*
X152229166Y-73207142D01*
X152395833Y-73135714D01*
X152479166Y-72992857D01*
X152479166Y-72778571D01*
X152395833Y-72635714D01*
X152312500Y-72564285D01*
X152479166Y-71850000D02*
X150729166Y-71850000D01*
X151395833Y-71850000D02*
X151312500Y-71707142D01*
X151312500Y-71421428D01*
X151395833Y-71278571D01*
X151479166Y-71207142D01*
X151645833Y-71135714D01*
X152145833Y-71135714D01*
X152312500Y-71207142D01*
X152395833Y-71278571D01*
X152479166Y-71421428D01*
X152479166Y-71707142D01*
X152395833Y-71850000D01*
X152479166Y-70278571D02*
X152395833Y-70421428D01*
X152229166Y-70492857D01*
X150729166Y-70492857D01*
X152479166Y-69707142D02*
X151312500Y-69707142D01*
X150729166Y-69707142D02*
X150812500Y-69778571D01*
X150895833Y-69707142D01*
X150812500Y-69635714D01*
X150729166Y-69707142D01*
X150895833Y-69707142D01*
X152395833Y-68350000D02*
X152479166Y-68492857D01*
X152479166Y-68778571D01*
X152395833Y-68921428D01*
X152312500Y-68992857D01*
X152145833Y-69064285D01*
X151645833Y-69064285D01*
X151479166Y-68992857D01*
X151395833Y-68921428D01*
X151312500Y-68778571D01*
X151312500Y-68492857D01*
X151395833Y-68350000D01*
X152479166Y-66564285D02*
X150729166Y-66564285D01*
X150729166Y-66207142D01*
X150812500Y-65992857D01*
X150979166Y-65850000D01*
X151145833Y-65778571D01*
X151479166Y-65707142D01*
X151729166Y-65707142D01*
X152062500Y-65778571D01*
X152229166Y-65850000D01*
X152395833Y-65992857D01*
X152479166Y-66207142D01*
X152479166Y-66564285D01*
X152479166Y-64850000D02*
X152395833Y-64992857D01*
X152312500Y-65064285D01*
X152145833Y-65135714D01*
X151645833Y-65135714D01*
X151479166Y-65064285D01*
X151395833Y-64992857D01*
X151312500Y-64850000D01*
X151312500Y-64635714D01*
X151395833Y-64492857D01*
X151479166Y-64421428D01*
X151645833Y-64350000D01*
X152145833Y-64350000D01*
X152312500Y-64421428D01*
X152395833Y-64492857D01*
X152479166Y-64635714D01*
X152479166Y-64850000D01*
X152479166Y-63707142D02*
X151312500Y-63707142D01*
X151479166Y-63707142D02*
X151395833Y-63635714D01*
X151312500Y-63492857D01*
X151312500Y-63278571D01*
X151395833Y-63135714D01*
X151562500Y-63064285D01*
X152479166Y-63064285D01*
X151562500Y-63064285D02*
X151395833Y-62992857D01*
X151312500Y-62850000D01*
X151312500Y-62635714D01*
X151395833Y-62492857D01*
X151562500Y-62421428D01*
X152479166Y-62421428D01*
X152479166Y-61064285D02*
X151562500Y-61064285D01*
X151395833Y-61135714D01*
X151312500Y-61278571D01*
X151312500Y-61564285D01*
X151395833Y-61707142D01*
X152395833Y-61064285D02*
X152479166Y-61207142D01*
X152479166Y-61564285D01*
X152395833Y-61707142D01*
X152229166Y-61778571D01*
X152062500Y-61778571D01*
X151895833Y-61707142D01*
X151812500Y-61564285D01*
X151812500Y-61207142D01*
X151729166Y-61064285D01*
X152479166Y-60350000D02*
X151312500Y-60350000D01*
X150729166Y-60350000D02*
X150812500Y-60421428D01*
X150895833Y-60350000D01*
X150812500Y-60278571D01*
X150729166Y-60350000D01*
X150895833Y-60350000D01*
X151312500Y-59635714D02*
X152479166Y-59635714D01*
X151479166Y-59635714D02*
X151395833Y-59564285D01*
X151312500Y-59421428D01*
X151312500Y-59207142D01*
X151395833Y-59064285D01*
X151562500Y-58992857D01*
X152479166Y-58992857D01*
X152312500Y-58278571D02*
X152395833Y-58207142D01*
X152479166Y-58278571D01*
X152395833Y-58350000D01*
X152312500Y-58278571D01*
X152479166Y-58278571D01*
X155304166Y-93492857D02*
X153554166Y-93492857D01*
X155304166Y-92635714D01*
X153554166Y-92635714D01*
X155304166Y-91707142D02*
X155220833Y-91850000D01*
X155137500Y-91921428D01*
X154970833Y-91992857D01*
X154470833Y-91992857D01*
X154304166Y-91921428D01*
X154220833Y-91850000D01*
X154137500Y-91707142D01*
X154137500Y-91492857D01*
X154220833Y-91350000D01*
X154304166Y-91278571D01*
X154470833Y-91207142D01*
X154970833Y-91207142D01*
X155137500Y-91278571D01*
X155220833Y-91350000D01*
X155304166Y-91492857D01*
X155304166Y-91707142D01*
X154137500Y-90778571D02*
X154137500Y-90207142D01*
X153554166Y-90564285D02*
X155054166Y-90564285D01*
X155220833Y-90492857D01*
X155304166Y-90350000D01*
X155304166Y-90207142D01*
X154137500Y-88564285D02*
X155887500Y-88564285D01*
X154220833Y-88564285D02*
X154137500Y-88421428D01*
X154137500Y-88135714D01*
X154220833Y-87992857D01*
X154304166Y-87921428D01*
X154470833Y-87850000D01*
X154970833Y-87850000D01*
X155137500Y-87921428D01*
X155220833Y-87992857D01*
X155304166Y-88135714D01*
X155304166Y-88421428D01*
X155220833Y-88564285D01*
X155304166Y-87207142D02*
X154137500Y-87207142D01*
X154470833Y-87207142D02*
X154304166Y-87135714D01*
X154220833Y-87064285D01*
X154137500Y-86921428D01*
X154137500Y-86778571D01*
X155220833Y-85707142D02*
X155304166Y-85850000D01*
X155304166Y-86135714D01*
X155220833Y-86278571D01*
X155054166Y-86350000D01*
X154387500Y-86350000D01*
X154220833Y-86278571D01*
X154137500Y-86135714D01*
X154137500Y-85850000D01*
X154220833Y-85707142D01*
X154387500Y-85635714D01*
X154554166Y-85635714D01*
X154720833Y-86350000D01*
X155220833Y-85064285D02*
X155304166Y-84921428D01*
X155304166Y-84635714D01*
X155220833Y-84492857D01*
X155054166Y-84421428D01*
X154970833Y-84421428D01*
X154804166Y-84492857D01*
X154720833Y-84635714D01*
X154720833Y-84850000D01*
X154637500Y-84992857D01*
X154470833Y-85064285D01*
X154387500Y-85064285D01*
X154220833Y-84992857D01*
X154137500Y-84850000D01*
X154137500Y-84635714D01*
X154220833Y-84492857D01*
X155220833Y-83207142D02*
X155304166Y-83350000D01*
X155304166Y-83635714D01*
X155220833Y-83778571D01*
X155054166Y-83850000D01*
X154387500Y-83850000D01*
X154220833Y-83778571D01*
X154137500Y-83635714D01*
X154137500Y-83350000D01*
X154220833Y-83207142D01*
X154387500Y-83135714D01*
X154554166Y-83135714D01*
X154720833Y-83850000D01*
X154137500Y-82492857D02*
X155304166Y-82492857D01*
X154304166Y-82492857D02*
X154220833Y-82421428D01*
X154137500Y-82278571D01*
X154137500Y-82064285D01*
X154220833Y-81921428D01*
X154387500Y-81850000D01*
X155304166Y-81850000D01*
X154137500Y-81350000D02*
X154137500Y-80778571D01*
X153554166Y-81135714D02*
X155054166Y-81135714D01*
X155220833Y-81064285D01*
X155304166Y-80921428D01*
X155304166Y-80778571D01*
X155220833Y-79707142D02*
X155304166Y-79850000D01*
X155304166Y-80135714D01*
X155220833Y-80278571D01*
X155054166Y-80350000D01*
X154387500Y-80350000D01*
X154220833Y-80278571D01*
X154137500Y-80135714D01*
X154137500Y-79850000D01*
X154220833Y-79707142D01*
X154387500Y-79635714D01*
X154554166Y-79635714D01*
X154720833Y-80350000D01*
X155304166Y-78350000D02*
X153554166Y-78350000D01*
X155220833Y-78350000D02*
X155304166Y-78492857D01*
X155304166Y-78778571D01*
X155220833Y-78921428D01*
X155137500Y-78992857D01*
X154970833Y-79064285D01*
X154470833Y-79064285D01*
X154304166Y-78992857D01*
X154220833Y-78921428D01*
X154137500Y-78778571D01*
X154137500Y-78492857D01*
X154220833Y-78350000D01*
X155304166Y-75850000D02*
X154387500Y-75850000D01*
X154220833Y-75921428D01*
X154137500Y-76064285D01*
X154137500Y-76350000D01*
X154220833Y-76492857D01*
X155220833Y-75850000D02*
X155304166Y-75992857D01*
X155304166Y-76350000D01*
X155220833Y-76492857D01*
X155054166Y-76564285D01*
X154887500Y-76564285D01*
X154720833Y-76492857D01*
X154637500Y-76350000D01*
X154637500Y-75992857D01*
X154554166Y-75850000D01*
X155220833Y-75207142D02*
X155304166Y-75064285D01*
X155304166Y-74778571D01*
X155220833Y-74635714D01*
X155054166Y-74564285D01*
X154970833Y-74564285D01*
X154804166Y-74635714D01*
X154720833Y-74778571D01*
X154720833Y-74992857D01*
X154637500Y-75135714D01*
X154470833Y-75207142D01*
X154387500Y-75207142D01*
X154220833Y-75135714D01*
X154137500Y-74992857D01*
X154137500Y-74778571D01*
X154220833Y-74635714D01*
X154137500Y-72992857D02*
X154137500Y-72421428D01*
X155304166Y-72778571D02*
X153804166Y-72778571D01*
X153637500Y-72707142D01*
X153554166Y-72564285D01*
X153554166Y-72421428D01*
X155304166Y-71921428D02*
X154137500Y-71921428D01*
X153554166Y-71921428D02*
X153637500Y-71992857D01*
X153720833Y-71921428D01*
X153637500Y-71850000D01*
X153554166Y-71921428D01*
X153720833Y-71921428D01*
X154137500Y-71421428D02*
X154137500Y-70850000D01*
X153554166Y-71207142D02*
X155054166Y-71207142D01*
X155220833Y-71135714D01*
X155304166Y-70992857D01*
X155304166Y-70850000D01*
X154137500Y-69421428D02*
X154137500Y-68850000D01*
X155304166Y-69207142D02*
X153804166Y-69207142D01*
X153637500Y-69135714D01*
X153554166Y-68992857D01*
X153554166Y-68850000D01*
X155304166Y-68135714D02*
X155220833Y-68278571D01*
X155137500Y-68350000D01*
X154970833Y-68421428D01*
X154470833Y-68421428D01*
X154304166Y-68350000D01*
X154220833Y-68278571D01*
X154137500Y-68135714D01*
X154137500Y-67921428D01*
X154220833Y-67778571D01*
X154304166Y-67707142D01*
X154470833Y-67635714D01*
X154970833Y-67635714D01*
X155137500Y-67707142D01*
X155220833Y-67778571D01*
X155304166Y-67921428D01*
X155304166Y-68135714D01*
X155304166Y-66992857D02*
X154137500Y-66992857D01*
X154470833Y-66992857D02*
X154304166Y-66921428D01*
X154220833Y-66850000D01*
X154137500Y-66707142D01*
X154137500Y-66564285D01*
X155304166Y-64278571D02*
X154387500Y-64278571D01*
X154220833Y-64350000D01*
X154137500Y-64492857D01*
X154137500Y-64778571D01*
X154220833Y-64921428D01*
X155220833Y-64278571D02*
X155304166Y-64421428D01*
X155304166Y-64778571D01*
X155220833Y-64921428D01*
X155054166Y-64992857D01*
X154887500Y-64992857D01*
X154720833Y-64921428D01*
X154637500Y-64778571D01*
X154637500Y-64421428D01*
X154554166Y-64278571D01*
X154137500Y-63564285D02*
X155304166Y-63564285D01*
X154304166Y-63564285D02*
X154220833Y-63492857D01*
X154137500Y-63350000D01*
X154137500Y-63135714D01*
X154220833Y-62992857D01*
X154387500Y-62921428D01*
X155304166Y-62921428D01*
X154137500Y-62350000D02*
X155304166Y-61992857D01*
X154137500Y-61635714D02*
X155304166Y-61992857D01*
X155720833Y-62135714D01*
X155804166Y-62207142D01*
X155887500Y-62350000D01*
X154137500Y-59921428D02*
X155887500Y-59921428D01*
X154220833Y-59921428D02*
X154137500Y-59778571D01*
X154137500Y-59492857D01*
X154220833Y-59350000D01*
X154304166Y-59278571D01*
X154470833Y-59207142D01*
X154970833Y-59207142D01*
X155137500Y-59278571D01*
X155220833Y-59350000D01*
X155304166Y-59492857D01*
X155304166Y-59778571D01*
X155220833Y-59921428D01*
X155304166Y-57921428D02*
X154387500Y-57921428D01*
X154220833Y-57992857D01*
X154137500Y-58135714D01*
X154137500Y-58421428D01*
X154220833Y-58564285D01*
X155220833Y-57921428D02*
X155304166Y-58064285D01*
X155304166Y-58421428D01*
X155220833Y-58564285D01*
X155054166Y-58635714D01*
X154887500Y-58635714D01*
X154720833Y-58564285D01*
X154637500Y-58421428D01*
X154637500Y-58064285D01*
X154554166Y-57921428D01*
X155304166Y-57207142D02*
X154137500Y-57207142D01*
X154470833Y-57207142D02*
X154304166Y-57135714D01*
X154220833Y-57064285D01*
X154137500Y-56921428D01*
X154137500Y-56778571D01*
X154137500Y-56492857D02*
X154137500Y-55921428D01*
X153554166Y-56278571D02*
X155054166Y-56278571D01*
X155220833Y-56207142D01*
X155304166Y-56064285D01*
X155304166Y-55921428D01*
X155304166Y-55421428D02*
X154137500Y-55421428D01*
X153554166Y-55421428D02*
X153637500Y-55492857D01*
X153720833Y-55421428D01*
X153637500Y-55350000D01*
X153554166Y-55421428D01*
X153720833Y-55421428D01*
X155220833Y-54064285D02*
X155304166Y-54207142D01*
X155304166Y-54492857D01*
X155220833Y-54635714D01*
X155137500Y-54707142D01*
X154970833Y-54778571D01*
X154470833Y-54778571D01*
X154304166Y-54707142D01*
X154220833Y-54635714D01*
X154137500Y-54492857D01*
X154137500Y-54207142D01*
X154220833Y-54064285D01*
X154137500Y-52778571D02*
X155304166Y-52778571D01*
X154137500Y-53421428D02*
X155054166Y-53421428D01*
X155220833Y-53350000D01*
X155304166Y-53207142D01*
X155304166Y-52992857D01*
X155220833Y-52850000D01*
X155137500Y-52778571D01*
X155304166Y-51850000D02*
X155220833Y-51992857D01*
X155054166Y-52064285D01*
X153554166Y-52064285D01*
X155304166Y-50635714D02*
X154387500Y-50635714D01*
X154220833Y-50707142D01*
X154137500Y-50850000D01*
X154137500Y-51135714D01*
X154220833Y-51278571D01*
X155220833Y-50635714D02*
X155304166Y-50778571D01*
X155304166Y-51135714D01*
X155220833Y-51278571D01*
X155054166Y-51350000D01*
X154887500Y-51350000D01*
X154720833Y-51278571D01*
X154637500Y-51135714D01*
X154637500Y-50778571D01*
X154554166Y-50635714D01*
X155304166Y-49921428D02*
X154137500Y-49921428D01*
X154470833Y-49921428D02*
X154304166Y-49850000D01*
X154220833Y-49778571D01*
X154137500Y-49635714D01*
X154137500Y-49492857D01*
X156962500Y-93492857D02*
X158712500Y-93492857D01*
X157045833Y-93492857D02*
X156962500Y-93350000D01*
X156962500Y-93064285D01*
X157045833Y-92921428D01*
X157129166Y-92850000D01*
X157295833Y-92778571D01*
X157795833Y-92778571D01*
X157962500Y-92850000D01*
X158045833Y-92921428D01*
X158129166Y-93064285D01*
X158129166Y-93350000D01*
X158045833Y-93492857D01*
X156962500Y-91492857D02*
X158129166Y-91492857D01*
X156962500Y-92135714D02*
X157879166Y-92135714D01*
X158045833Y-92064285D01*
X158129166Y-91921428D01*
X158129166Y-91707142D01*
X158045833Y-91564285D01*
X157962500Y-91492857D01*
X158129166Y-90778571D02*
X156962500Y-90778571D01*
X157295833Y-90778571D02*
X157129166Y-90707142D01*
X157045833Y-90635714D01*
X156962500Y-90492857D01*
X156962500Y-90350000D01*
X156962500Y-89850000D02*
X158712500Y-89850000D01*
X157045833Y-89850000D02*
X156962500Y-89707142D01*
X156962500Y-89421428D01*
X157045833Y-89278571D01*
X157129166Y-89207142D01*
X157295833Y-89135714D01*
X157795833Y-89135714D01*
X157962500Y-89207142D01*
X158045833Y-89278571D01*
X158129166Y-89421428D01*
X158129166Y-89707142D01*
X158045833Y-89850000D01*
X158129166Y-88278571D02*
X158045833Y-88421428D01*
X157962500Y-88492857D01*
X157795833Y-88564285D01*
X157295833Y-88564285D01*
X157129166Y-88492857D01*
X157045833Y-88421428D01*
X156962500Y-88278571D01*
X156962500Y-88064285D01*
X157045833Y-87921428D01*
X157129166Y-87850000D01*
X157295833Y-87778571D01*
X157795833Y-87778571D01*
X157962500Y-87850000D01*
X158045833Y-87921428D01*
X158129166Y-88064285D01*
X158129166Y-88278571D01*
X158045833Y-87207142D02*
X158129166Y-87064285D01*
X158129166Y-86778571D01*
X158045833Y-86635714D01*
X157879166Y-86564285D01*
X157795833Y-86564285D01*
X157629166Y-86635714D01*
X157545833Y-86778571D01*
X157545833Y-86992857D01*
X157462500Y-87135714D01*
X157295833Y-87207142D01*
X157212500Y-87207142D01*
X157045833Y-87135714D01*
X156962500Y-86992857D01*
X156962500Y-86778571D01*
X157045833Y-86635714D01*
X158045833Y-85350000D02*
X158129166Y-85492857D01*
X158129166Y-85778571D01*
X158045833Y-85921428D01*
X157879166Y-85992857D01*
X157212500Y-85992857D01*
X157045833Y-85921428D01*
X156962500Y-85778571D01*
X156962500Y-85492857D01*
X157045833Y-85350000D01*
X157212500Y-85278571D01*
X157379166Y-85278571D01*
X157545833Y-85992857D01*
X157962500Y-84635714D02*
X158045833Y-84564285D01*
X158129166Y-84635714D01*
X158045833Y-84707142D01*
X157962500Y-84635714D01*
X158129166Y-84635714D01*
X156379166Y-82778571D02*
X157795833Y-82778571D01*
X157962500Y-82707142D01*
X158045833Y-82635714D01*
X158129166Y-82492857D01*
X158129166Y-82207142D01*
X158045833Y-82064285D01*
X157962500Y-81992857D01*
X157795833Y-81921428D01*
X156379166Y-81921428D01*
X158045833Y-81278571D02*
X158129166Y-81135714D01*
X158129166Y-80850000D01*
X158045833Y-80707142D01*
X157879166Y-80635714D01*
X157795833Y-80635714D01*
X157629166Y-80707142D01*
X157545833Y-80850000D01*
X157545833Y-81064285D01*
X157462500Y-81207142D01*
X157295833Y-81278571D01*
X157212500Y-81278571D01*
X157045833Y-81207142D01*
X156962500Y-81064285D01*
X156962500Y-80850000D01*
X157045833Y-80707142D01*
X158045833Y-79421428D02*
X158129166Y-79564285D01*
X158129166Y-79850000D01*
X158045833Y-79992857D01*
X157879166Y-80064285D01*
X157212500Y-80064285D01*
X157045833Y-79992857D01*
X156962500Y-79850000D01*
X156962500Y-79564285D01*
X157045833Y-79421428D01*
X157212500Y-79350000D01*
X157379166Y-79350000D01*
X157545833Y-80064285D01*
X158129166Y-77564285D02*
X156962500Y-77564285D01*
X156379166Y-77564285D02*
X156462500Y-77635714D01*
X156545833Y-77564285D01*
X156462500Y-77492857D01*
X156379166Y-77564285D01*
X156545833Y-77564285D01*
X158045833Y-76921428D02*
X158129166Y-76778571D01*
X158129166Y-76492857D01*
X158045833Y-76350000D01*
X157879166Y-76278571D01*
X157795833Y-76278571D01*
X157629166Y-76350000D01*
X157545833Y-76492857D01*
X157545833Y-76707142D01*
X157462500Y-76850000D01*
X157295833Y-76921428D01*
X157212500Y-76921428D01*
X157045833Y-76850000D01*
X156962500Y-76707142D01*
X156962500Y-76492857D01*
X157045833Y-76350000D01*
X158045833Y-73921428D02*
X158129166Y-74064285D01*
X158129166Y-74350000D01*
X158045833Y-74492857D01*
X157879166Y-74564285D01*
X157212500Y-74564285D01*
X157045833Y-74492857D01*
X156962500Y-74350000D01*
X156962500Y-74064285D01*
X157045833Y-73921428D01*
X157212500Y-73850000D01*
X157379166Y-73850000D01*
X157545833Y-74564285D01*
X156962500Y-73207142D02*
X158129166Y-73207142D01*
X157129166Y-73207142D02*
X157045833Y-73135714D01*
X156962500Y-72992857D01*
X156962500Y-72778571D01*
X157045833Y-72635714D01*
X157212500Y-72564285D01*
X158129166Y-72564285D01*
X156962500Y-72064285D02*
X156962500Y-71492857D01*
X156379166Y-71850000D02*
X157879166Y-71850000D01*
X158045833Y-71778571D01*
X158129166Y-71635714D01*
X158129166Y-71492857D01*
X158129166Y-70992857D02*
X156962500Y-70992857D01*
X156379166Y-70992857D02*
X156462500Y-71064285D01*
X156545833Y-70992857D01*
X156462500Y-70921428D01*
X156379166Y-70992857D01*
X156545833Y-70992857D01*
X158129166Y-70278571D02*
X156962500Y-70278571D01*
X157295833Y-70278571D02*
X157129166Y-70207142D01*
X157045833Y-70135714D01*
X156962500Y-69992857D01*
X156962500Y-69850000D01*
X158045833Y-68778571D02*
X158129166Y-68921428D01*
X158129166Y-69207142D01*
X158045833Y-69350000D01*
X157879166Y-69421428D01*
X157212500Y-69421428D01*
X157045833Y-69350000D01*
X156962500Y-69207142D01*
X156962500Y-68921428D01*
X157045833Y-68778571D01*
X157212500Y-68707142D01*
X157379166Y-68707142D01*
X157545833Y-69421428D01*
X158129166Y-67850000D02*
X158045833Y-67992857D01*
X157879166Y-68064285D01*
X156379166Y-68064285D01*
X156962500Y-67421428D02*
X158129166Y-67064285D01*
X156962500Y-66707142D02*
X158129166Y-67064285D01*
X158545833Y-67207142D01*
X158629166Y-67278571D01*
X158712500Y-67421428D01*
X158129166Y-64350000D02*
X157212500Y-64350000D01*
X157045833Y-64421428D01*
X156962500Y-64564285D01*
X156962500Y-64850000D01*
X157045833Y-64992857D01*
X158045833Y-64350000D02*
X158129166Y-64492857D01*
X158129166Y-64850000D01*
X158045833Y-64992857D01*
X157879166Y-65064285D01*
X157712500Y-65064285D01*
X157545833Y-64992857D01*
X157462500Y-64850000D01*
X157462500Y-64492857D01*
X157379166Y-64350000D01*
X156962500Y-63850000D02*
X156962500Y-63278571D01*
X156379166Y-63635714D02*
X157879166Y-63635714D01*
X158045833Y-63564285D01*
X158129166Y-63421428D01*
X158129166Y-63278571D01*
X158129166Y-61421428D02*
X158045833Y-61564285D01*
X157962500Y-61635714D01*
X157795833Y-61707142D01*
X157295833Y-61707142D01*
X157129166Y-61635714D01*
X157045833Y-61564285D01*
X156962500Y-61421428D01*
X156962500Y-61207142D01*
X157045833Y-61064285D01*
X157129166Y-60992857D01*
X157295833Y-60921428D01*
X157795833Y-60921428D01*
X157962500Y-60992857D01*
X158045833Y-61064285D01*
X158129166Y-61207142D01*
X158129166Y-61421428D01*
X156962500Y-60421428D02*
X158129166Y-60135714D01*
X157295833Y-59850000D01*
X158129166Y-59564285D01*
X156962500Y-59278571D01*
X156962500Y-58707142D02*
X158129166Y-58707142D01*
X157129166Y-58707142D02*
X157045833Y-58635714D01*
X156962500Y-58492857D01*
X156962500Y-58278571D01*
X157045833Y-58135714D01*
X157212500Y-58064285D01*
X158129166Y-58064285D01*
X158129166Y-56207142D02*
X156962500Y-56207142D01*
X157295833Y-56207142D02*
X157129166Y-56135714D01*
X157045833Y-56064285D01*
X156962500Y-55921428D01*
X156962500Y-55778571D01*
X158129166Y-55278571D02*
X156962500Y-55278571D01*
X156379166Y-55278571D02*
X156462500Y-55350000D01*
X156545833Y-55278571D01*
X156462500Y-55207142D01*
X156379166Y-55278571D01*
X156545833Y-55278571D01*
X158045833Y-54635714D02*
X158129166Y-54492857D01*
X158129166Y-54207142D01*
X158045833Y-54064285D01*
X157879166Y-53992857D01*
X157795833Y-53992857D01*
X157629166Y-54064285D01*
X157545833Y-54207142D01*
X157545833Y-54421428D01*
X157462500Y-54564285D01*
X157295833Y-54635714D01*
X157212500Y-54635714D01*
X157045833Y-54564285D01*
X156962500Y-54421428D01*
X156962500Y-54207142D01*
X157045833Y-54064285D01*
X158129166Y-53350000D02*
X156379166Y-53350000D01*
X157462500Y-53207142D02*
X158129166Y-52778571D01*
X156962500Y-52778571D02*
X157629166Y-53350000D01*
X157962500Y-52135714D02*
X158045833Y-52064285D01*
X158129166Y-52135714D01*
X158045833Y-52207142D01*
X157962500Y-52135714D01*
X158129166Y-52135714D01*
X160954166Y-93492857D02*
X159204166Y-93492857D01*
X160954166Y-92635714D01*
X159204166Y-92635714D01*
X159204166Y-91635714D02*
X159204166Y-91350000D01*
X159287500Y-91207142D01*
X159454166Y-91064285D01*
X159787500Y-90992857D01*
X160370833Y-90992857D01*
X160704166Y-91064285D01*
X160870833Y-91207142D01*
X160954166Y-91350000D01*
X160954166Y-91635714D01*
X160870833Y-91778571D01*
X160704166Y-91921428D01*
X160370833Y-91992857D01*
X159787500Y-91992857D01*
X159454166Y-91921428D01*
X159287500Y-91778571D01*
X159204166Y-91635714D01*
X159204166Y-90564285D02*
X159204166Y-89707142D01*
X160954166Y-90135714D02*
X159204166Y-90135714D01*
X160954166Y-88064285D02*
X159204166Y-88064285D01*
X160954166Y-87350000D02*
X159204166Y-87350000D01*
X160954166Y-86492857D01*
X159204166Y-86492857D01*
X159204166Y-85992857D02*
X159204166Y-85135714D01*
X160954166Y-85564285D02*
X159204166Y-85564285D01*
X160037500Y-84635714D02*
X160037500Y-84135714D01*
X160954166Y-83921428D02*
X160954166Y-84635714D01*
X159204166Y-84635714D01*
X159204166Y-83921428D01*
X160954166Y-83278571D02*
X159204166Y-83278571D01*
X160954166Y-82421428D01*
X159204166Y-82421428D01*
X160954166Y-81707142D02*
X159204166Y-81707142D01*
X159204166Y-81350000D01*
X159287500Y-81135714D01*
X159454166Y-80992857D01*
X159620833Y-80921428D01*
X159954166Y-80850000D01*
X160204166Y-80850000D01*
X160537500Y-80921428D01*
X160704166Y-80992857D01*
X160870833Y-81135714D01*
X160954166Y-81350000D01*
X160954166Y-81707142D01*
X160037500Y-80207142D02*
X160037500Y-79707142D01*
X160954166Y-79492857D02*
X160954166Y-80207142D01*
X159204166Y-80207142D01*
X159204166Y-79492857D01*
X160954166Y-78850000D02*
X159204166Y-78850000D01*
X159204166Y-78492857D01*
X159287500Y-78278571D01*
X159454166Y-78135714D01*
X159620833Y-78064285D01*
X159954166Y-77992857D01*
X160204166Y-77992857D01*
X160537500Y-78064285D01*
X160704166Y-78135714D01*
X160870833Y-78278571D01*
X160954166Y-78492857D01*
X160954166Y-78850000D01*
X160037500Y-75707142D02*
X160037500Y-76207142D01*
X160954166Y-76207142D02*
X159204166Y-76207142D01*
X159204166Y-75492857D01*
X159204166Y-74635714D02*
X159204166Y-74350000D01*
X159287500Y-74207142D01*
X159454166Y-74064285D01*
X159787500Y-73992857D01*
X160370833Y-73992857D01*
X160704166Y-74064285D01*
X160870833Y-74207142D01*
X160954166Y-74350000D01*
X160954166Y-74635714D01*
X160870833Y-74778571D01*
X160704166Y-74921428D01*
X160370833Y-74992857D01*
X159787500Y-74992857D01*
X159454166Y-74921428D01*
X159287500Y-74778571D01*
X159204166Y-74635714D01*
X160954166Y-72492857D02*
X160120833Y-72992857D01*
X160954166Y-73350000D02*
X159204166Y-73350000D01*
X159204166Y-72778571D01*
X159287500Y-72635714D01*
X159370833Y-72564285D01*
X159537500Y-72492857D01*
X159787500Y-72492857D01*
X159954166Y-72564285D01*
X160037500Y-72635714D01*
X160120833Y-72778571D01*
X160120833Y-73350000D01*
X159204166Y-70707142D02*
X160620833Y-70707142D01*
X160787500Y-70635714D01*
X160870833Y-70564285D01*
X160954166Y-70421428D01*
X160954166Y-70135714D01*
X160870833Y-69992857D01*
X160787500Y-69921428D01*
X160620833Y-69850000D01*
X159204166Y-69850000D01*
X160870833Y-69207142D02*
X160954166Y-68992857D01*
X160954166Y-68635714D01*
X160870833Y-68492857D01*
X160787500Y-68421428D01*
X160620833Y-68350000D01*
X160454166Y-68350000D01*
X160287500Y-68421428D01*
X160204166Y-68492857D01*
X160120833Y-68635714D01*
X160037500Y-68921428D01*
X159954166Y-69064285D01*
X159870833Y-69135714D01*
X159704166Y-69207142D01*
X159537500Y-69207142D01*
X159370833Y-69135714D01*
X159287500Y-69064285D01*
X159204166Y-68921428D01*
X159204166Y-68564285D01*
X159287500Y-68350000D01*
X160037500Y-67707142D02*
X160037500Y-67207142D01*
X160954166Y-66992857D02*
X160954166Y-67707142D01*
X159204166Y-67707142D01*
X159204166Y-66992857D01*
X159204166Y-65350000D02*
X160954166Y-64992857D01*
X159704166Y-64707142D01*
X160954166Y-64421428D01*
X159204166Y-64064285D01*
X160954166Y-63492857D02*
X159204166Y-63492857D01*
X160037500Y-63492857D02*
X160037500Y-62635714D01*
X160954166Y-62635714D02*
X159204166Y-62635714D01*
X160037500Y-61921428D02*
X160037500Y-61421428D01*
X160954166Y-61207142D02*
X160954166Y-61921428D01*
X159204166Y-61921428D01*
X159204166Y-61207142D01*
X160954166Y-59707142D02*
X160120833Y-60207142D01*
X160954166Y-60564285D02*
X159204166Y-60564285D01*
X159204166Y-59992857D01*
X159287500Y-59850000D01*
X159370833Y-59778571D01*
X159537500Y-59707142D01*
X159787500Y-59707142D01*
X159954166Y-59778571D01*
X160037500Y-59850000D01*
X160120833Y-59992857D01*
X160120833Y-60564285D01*
X160037500Y-59064285D02*
X160037500Y-58564285D01*
X160954166Y-58350000D02*
X160954166Y-59064285D01*
X159204166Y-59064285D01*
X159204166Y-58350000D01*
X162862500Y-93492857D02*
X162862500Y-92992857D01*
X163779166Y-92778571D02*
X163779166Y-93492857D01*
X162029166Y-93492857D01*
X162029166Y-92778571D01*
X162029166Y-92278571D02*
X163779166Y-91278571D01*
X162029166Y-91278571D02*
X163779166Y-92278571D01*
X163779166Y-90707142D02*
X162029166Y-90707142D01*
X162029166Y-90135714D01*
X162112500Y-89992857D01*
X162195833Y-89921428D01*
X162362500Y-89850000D01*
X162612500Y-89850000D01*
X162779166Y-89921428D01*
X162862500Y-89992857D01*
X162945833Y-90135714D01*
X162945833Y-90707142D01*
X162029166Y-88921428D02*
X162029166Y-88635714D01*
X162112500Y-88492857D01*
X162279166Y-88350000D01*
X162612500Y-88278571D01*
X163195833Y-88278571D01*
X163529166Y-88350000D01*
X163695833Y-88492857D01*
X163779166Y-88635714D01*
X163779166Y-88921428D01*
X163695833Y-89064285D01*
X163529166Y-89207142D01*
X163195833Y-89278571D01*
X162612500Y-89278571D01*
X162279166Y-89207142D01*
X162112500Y-89064285D01*
X162029166Y-88921428D01*
X163695833Y-87707142D02*
X163779166Y-87492857D01*
X163779166Y-87135714D01*
X163695833Y-86992857D01*
X163612500Y-86921428D01*
X163445833Y-86850000D01*
X163279166Y-86850000D01*
X163112500Y-86921428D01*
X163029166Y-86992857D01*
X162945833Y-87135714D01*
X162862500Y-87421428D01*
X162779166Y-87564285D01*
X162695833Y-87635714D01*
X162529166Y-87707142D01*
X162362500Y-87707142D01*
X162195833Y-87635714D01*
X162112500Y-87564285D01*
X162029166Y-87421428D01*
X162029166Y-87064285D01*
X162112500Y-86850000D01*
X162862500Y-86207142D02*
X162862500Y-85707142D01*
X163779166Y-85492857D02*
X163779166Y-86207142D01*
X162029166Y-86207142D01*
X162029166Y-85492857D01*
X163779166Y-84850000D02*
X162029166Y-84850000D01*
X162029166Y-84492857D01*
X162112500Y-84278571D01*
X162279166Y-84135714D01*
X162445833Y-84064285D01*
X162779166Y-83992857D01*
X163029166Y-83992857D01*
X163362500Y-84064285D01*
X163529166Y-84135714D01*
X163695833Y-84278571D01*
X163779166Y-84492857D01*
X163779166Y-84850000D01*
X163695833Y-83278571D02*
X163779166Y-83278571D01*
X163945833Y-83350000D01*
X164029166Y-83421428D01*
X163779166Y-81492857D02*
X162029166Y-81492857D01*
X162029166Y-81135714D01*
X162112500Y-80921428D01*
X162279166Y-80778571D01*
X162445833Y-80707142D01*
X162779166Y-80635714D01*
X163029166Y-80635714D01*
X163362500Y-80707142D01*
X163529166Y-80778571D01*
X163695833Y-80921428D01*
X163779166Y-81135714D01*
X163779166Y-81492857D01*
X163279166Y-80064285D02*
X163279166Y-79350000D01*
X163779166Y-80207142D02*
X162029166Y-79707142D01*
X163779166Y-79207142D01*
X163779166Y-78707142D02*
X162029166Y-78707142D01*
X163779166Y-77850000D01*
X162029166Y-77850000D01*
X162112500Y-76350000D02*
X162029166Y-76492857D01*
X162029166Y-76707142D01*
X162112500Y-76921428D01*
X162279166Y-77064285D01*
X162445833Y-77135714D01*
X162779166Y-77207142D01*
X163029166Y-77207142D01*
X163362500Y-77135714D01*
X163529166Y-77064285D01*
X163695833Y-76921428D01*
X163779166Y-76707142D01*
X163779166Y-76564285D01*
X163695833Y-76350000D01*
X163612500Y-76278571D01*
X163029166Y-76278571D01*
X163029166Y-76564285D01*
X162862500Y-75635714D02*
X162862500Y-75135714D01*
X163779166Y-74921428D02*
X163779166Y-75635714D01*
X162029166Y-75635714D01*
X162029166Y-74921428D01*
X163779166Y-73421428D02*
X162945833Y-73921428D01*
X163779166Y-74278571D02*
X162029166Y-74278571D01*
X162029166Y-73707142D01*
X162112500Y-73564285D01*
X162195833Y-73492857D01*
X162362500Y-73421428D01*
X162612500Y-73421428D01*
X162779166Y-73492857D01*
X162862500Y-73564285D01*
X162945833Y-73707142D01*
X162945833Y-74278571D01*
X162029166Y-72492857D02*
X162029166Y-72207142D01*
X162112500Y-72064285D01*
X162279166Y-71921428D01*
X162612500Y-71850000D01*
X163195833Y-71850000D01*
X163529166Y-71921428D01*
X163695833Y-72064285D01*
X163779166Y-72207142D01*
X163779166Y-72492857D01*
X163695833Y-72635714D01*
X163529166Y-72778571D01*
X163195833Y-72850000D01*
X162612500Y-72850000D01*
X162279166Y-72778571D01*
X162112500Y-72635714D01*
X162029166Y-72492857D01*
X162029166Y-71207142D02*
X163445833Y-71207142D01*
X163612500Y-71135714D01*
X163695833Y-71064285D01*
X163779166Y-70921428D01*
X163779166Y-70635714D01*
X163695833Y-70492857D01*
X163612500Y-70421428D01*
X163445833Y-70350000D01*
X162029166Y-70350000D01*
X163695833Y-69707142D02*
X163779166Y-69492857D01*
X163779166Y-69135714D01*
X163695833Y-68992857D01*
X163612500Y-68921428D01*
X163445833Y-68850000D01*
X163279166Y-68850000D01*
X163112500Y-68921428D01*
X163029166Y-68992857D01*
X162945833Y-69135714D01*
X162862500Y-69421428D01*
X162779166Y-69564285D01*
X162695833Y-69635714D01*
X162529166Y-69707142D01*
X162362500Y-69707142D01*
X162195833Y-69635714D01*
X162112500Y-69564285D01*
X162029166Y-69421428D01*
X162029166Y-69064285D01*
X162112500Y-68850000D01*
X162029166Y-67278571D02*
X163779166Y-66778571D01*
X162029166Y-66278571D01*
X162029166Y-65492857D02*
X162029166Y-65207142D01*
X162112500Y-65064285D01*
X162279166Y-64921428D01*
X162612500Y-64850000D01*
X163195833Y-64850000D01*
X163529166Y-64921428D01*
X163695833Y-65064285D01*
X163779166Y-65207142D01*
X163779166Y-65492857D01*
X163695833Y-65635714D01*
X163529166Y-65778571D01*
X163195833Y-65850000D01*
X162612500Y-65850000D01*
X162279166Y-65778571D01*
X162112500Y-65635714D01*
X162029166Y-65492857D01*
X163779166Y-63492857D02*
X163779166Y-64207142D01*
X162029166Y-64207142D01*
X162029166Y-63207142D02*
X162029166Y-62350000D01*
X163779166Y-62778571D02*
X162029166Y-62778571D01*
X163279166Y-61921428D02*
X163279166Y-61207142D01*
X163779166Y-62064285D02*
X162029166Y-61564285D01*
X163779166Y-61064285D01*
X162112500Y-59778571D02*
X162029166Y-59921428D01*
X162029166Y-60135714D01*
X162112500Y-60350000D01*
X162279166Y-60492857D01*
X162445833Y-60564285D01*
X162779166Y-60635714D01*
X163029166Y-60635714D01*
X163362500Y-60564285D01*
X163529166Y-60492857D01*
X163695833Y-60350000D01*
X163779166Y-60135714D01*
X163779166Y-59992857D01*
X163695833Y-59778571D01*
X163612500Y-59707142D01*
X163029166Y-59707142D01*
X163029166Y-59992857D01*
X162862500Y-59064285D02*
X162862500Y-58564285D01*
X163779166Y-58350000D02*
X163779166Y-59064285D01*
X162029166Y-59064285D01*
X162029166Y-58350000D01*
X163695833Y-57778571D02*
X163779166Y-57564285D01*
X163779166Y-57207142D01*
X163695833Y-57064285D01*
X163612500Y-56992857D01*
X163445833Y-56921428D01*
X163279166Y-56921428D01*
X163112500Y-56992857D01*
X163029166Y-57064285D01*
X162945833Y-57207142D01*
X162862500Y-57492857D01*
X162779166Y-57635714D01*
X162695833Y-57707142D01*
X162529166Y-57778571D01*
X162362500Y-57778571D01*
X162195833Y-57707142D01*
X162112500Y-57635714D01*
X162029166Y-57492857D01*
X162029166Y-57135714D01*
X162112500Y-56921428D01*
X166104166Y-93564285D02*
X166104166Y-92850000D01*
X166604166Y-93707142D02*
X164854166Y-93207142D01*
X166604166Y-92707142D01*
X166604166Y-91350000D02*
X165770833Y-91850000D01*
X166604166Y-92207142D02*
X164854166Y-92207142D01*
X164854166Y-91635714D01*
X164937500Y-91492857D01*
X165020833Y-91421428D01*
X165187500Y-91350000D01*
X165437500Y-91350000D01*
X165604166Y-91421428D01*
X165687500Y-91492857D01*
X165770833Y-91635714D01*
X165770833Y-92207142D01*
X165687500Y-90707142D02*
X165687500Y-90207142D01*
X166604166Y-89992857D02*
X166604166Y-90707142D01*
X164854166Y-90707142D01*
X164854166Y-89992857D01*
X166604166Y-88207142D02*
X164854166Y-88207142D01*
X166604166Y-87492857D02*
X164854166Y-87492857D01*
X166604166Y-86635714D01*
X164854166Y-86635714D01*
X164854166Y-86135714D02*
X166604166Y-85635714D01*
X164854166Y-85135714D01*
X164854166Y-84350000D02*
X164854166Y-84064285D01*
X164937500Y-83921428D01*
X165104166Y-83778571D01*
X165437500Y-83707142D01*
X166020833Y-83707142D01*
X166354166Y-83778571D01*
X166520833Y-83921428D01*
X166604166Y-84064285D01*
X166604166Y-84350000D01*
X166520833Y-84492857D01*
X166354166Y-84635714D01*
X166020833Y-84707142D01*
X165437500Y-84707142D01*
X165104166Y-84635714D01*
X164937500Y-84492857D01*
X164854166Y-84350000D01*
X166604166Y-82350000D02*
X166604166Y-83064285D01*
X164854166Y-83064285D01*
X164854166Y-82064285D02*
X166604166Y-81564285D01*
X164854166Y-81064285D01*
X165687500Y-80564285D02*
X165687500Y-80064285D01*
X166604166Y-79850000D02*
X166604166Y-80564285D01*
X164854166Y-80564285D01*
X164854166Y-79850000D01*
X166604166Y-79207142D02*
X164854166Y-79207142D01*
X164854166Y-78850000D01*
X164937500Y-78635714D01*
X165104166Y-78492857D01*
X165270833Y-78421428D01*
X165604166Y-78350000D01*
X165854166Y-78350000D01*
X166187500Y-78421428D01*
X166354166Y-78492857D01*
X166520833Y-78635714D01*
X166604166Y-78850000D01*
X166604166Y-79207142D01*
X166437500Y-77707142D02*
X166520833Y-77635714D01*
X166604166Y-77707142D01*
X166520833Y-77778571D01*
X166437500Y-77707142D01*
X166604166Y-77707142D01*
D10*
X179405595Y-76017380D02*
X179405595Y-75017380D01*
X179977023Y-76017380D01*
X179977023Y-75017380D01*
X181167500Y-74969761D02*
X180310357Y-76255476D01*
X182072261Y-75922142D02*
X182024642Y-75969761D01*
X181881785Y-76017380D01*
X181786547Y-76017380D01*
X181643690Y-75969761D01*
X181548452Y-75874523D01*
X181500833Y-75779285D01*
X181453214Y-75588809D01*
X181453214Y-75445952D01*
X181500833Y-75255476D01*
X181548452Y-75160238D01*
X181643690Y-75065000D01*
X181786547Y-75017380D01*
X181881785Y-75017380D01*
X182024642Y-75065000D01*
X182072261Y-75112619D01*
X179405595Y-95817380D02*
X179405595Y-94817380D01*
X179977023Y-95817380D01*
X179977023Y-94817380D01*
X181167500Y-94769761D02*
X180310357Y-96055476D01*
X182072261Y-95722142D02*
X182024642Y-95769761D01*
X181881785Y-95817380D01*
X181786547Y-95817380D01*
X181643690Y-95769761D01*
X181548452Y-95674523D01*
X181500833Y-95579285D01*
X181453214Y-95388809D01*
X181453214Y-95245952D01*
X181500833Y-95055476D01*
X181548452Y-94960238D01*
X181643690Y-94865000D01*
X181786547Y-94817380D01*
X181881785Y-94817380D01*
X182024642Y-94865000D01*
X182072261Y-94912619D01*
X179405595Y-91476428D02*
X180167500Y-91476428D01*
X179786547Y-91857380D02*
X179786547Y-91095476D01*
X181167500Y-91857380D02*
X180596071Y-91857380D01*
X180881785Y-91857380D02*
X180881785Y-90857380D01*
X180786547Y-91000238D01*
X180691309Y-91095476D01*
X180596071Y-91143095D01*
X181548452Y-90952619D02*
X181596071Y-90905000D01*
X181691309Y-90857380D01*
X181929404Y-90857380D01*
X182024642Y-90905000D01*
X182072261Y-90952619D01*
X182119880Y-91047857D01*
X182119880Y-91143095D01*
X182072261Y-91285952D01*
X181500833Y-91857380D01*
X182119880Y-91857380D01*
X182405595Y-90857380D02*
X182738928Y-91857380D01*
X183072261Y-90857380D01*
X179405595Y-99396428D02*
X180167500Y-99396428D01*
X179786547Y-99777380D02*
X179786547Y-99015476D01*
X181167500Y-99777380D02*
X180596071Y-99777380D01*
X180881785Y-99777380D02*
X180881785Y-98777380D01*
X180786547Y-98920238D01*
X180691309Y-99015476D01*
X180596071Y-99063095D01*
X181548452Y-98872619D02*
X181596071Y-98825000D01*
X181691309Y-98777380D01*
X181929404Y-98777380D01*
X182024642Y-98825000D01*
X182072261Y-98872619D01*
X182119880Y-98967857D01*
X182119880Y-99063095D01*
X182072261Y-99205952D01*
X181500833Y-99777380D01*
X182119880Y-99777380D01*
X182405595Y-98777380D02*
X182738928Y-99777380D01*
X183072261Y-98777380D01*
X179405595Y-79596428D02*
X180167500Y-79596428D01*
X179786547Y-79977380D02*
X179786547Y-79215476D01*
X181119880Y-78977380D02*
X180643690Y-78977380D01*
X180596071Y-79453571D01*
X180643690Y-79405952D01*
X180738928Y-79358333D01*
X180977023Y-79358333D01*
X181072261Y-79405952D01*
X181119880Y-79453571D01*
X181167500Y-79548809D01*
X181167500Y-79786904D01*
X181119880Y-79882142D01*
X181072261Y-79929761D01*
X180977023Y-79977380D01*
X180738928Y-79977380D01*
X180643690Y-79929761D01*
X180596071Y-79882142D01*
X181453214Y-78977380D02*
X181786547Y-79977380D01*
X182119880Y-78977380D01*
X179405595Y-107316428D02*
X180167500Y-107316428D01*
X179786547Y-107697380D02*
X179786547Y-106935476D01*
X181119880Y-106697380D02*
X180643690Y-106697380D01*
X180596071Y-107173571D01*
X180643690Y-107125952D01*
X180738928Y-107078333D01*
X180977023Y-107078333D01*
X181072261Y-107125952D01*
X181119880Y-107173571D01*
X181167500Y-107268809D01*
X181167500Y-107506904D01*
X181119880Y-107602142D01*
X181072261Y-107649761D01*
X180977023Y-107697380D01*
X180738928Y-107697380D01*
X180643690Y-107649761D01*
X180596071Y-107602142D01*
X181453214Y-106697380D02*
X181786547Y-107697380D01*
X182119880Y-106697380D01*
X179405595Y-111276428D02*
X180167500Y-111276428D01*
X179786547Y-111657380D02*
X179786547Y-110895476D01*
X181119880Y-110657380D02*
X180643690Y-110657380D01*
X180596071Y-111133571D01*
X180643690Y-111085952D01*
X180738928Y-111038333D01*
X180977023Y-111038333D01*
X181072261Y-111085952D01*
X181119880Y-111133571D01*
X181167500Y-111228809D01*
X181167500Y-111466904D01*
X181119880Y-111562142D01*
X181072261Y-111609761D01*
X180977023Y-111657380D01*
X180738928Y-111657380D01*
X180643690Y-111609761D01*
X180596071Y-111562142D01*
X181453214Y-110657380D02*
X181786547Y-111657380D01*
X182119880Y-110657380D01*
X179405595Y-115236428D02*
X180167500Y-115236428D01*
X179786547Y-115617380D02*
X179786547Y-114855476D01*
X181119880Y-114617380D02*
X180643690Y-114617380D01*
X180596071Y-115093571D01*
X180643690Y-115045952D01*
X180738928Y-114998333D01*
X180977023Y-114998333D01*
X181072261Y-115045952D01*
X181119880Y-115093571D01*
X181167500Y-115188809D01*
X181167500Y-115426904D01*
X181119880Y-115522142D01*
X181072261Y-115569761D01*
X180977023Y-115617380D01*
X180738928Y-115617380D01*
X180643690Y-115569761D01*
X180596071Y-115522142D01*
X181453214Y-114617380D02*
X181786547Y-115617380D01*
X182119880Y-114617380D01*
X179929404Y-82985000D02*
X179834166Y-82937380D01*
X179691309Y-82937380D01*
X179548452Y-82985000D01*
X179453214Y-83080238D01*
X179405595Y-83175476D01*
X179357976Y-83365952D01*
X179357976Y-83508809D01*
X179405595Y-83699285D01*
X179453214Y-83794523D01*
X179548452Y-83889761D01*
X179691309Y-83937380D01*
X179786547Y-83937380D01*
X179929404Y-83889761D01*
X179977023Y-83842142D01*
X179977023Y-83508809D01*
X179786547Y-83508809D01*
X180405595Y-83937380D02*
X180405595Y-82937380D01*
X180977023Y-83937380D01*
X180977023Y-82937380D01*
X181453214Y-83937380D02*
X181453214Y-82937380D01*
X181691309Y-82937380D01*
X181834166Y-82985000D01*
X181929404Y-83080238D01*
X181977023Y-83175476D01*
X182024642Y-83365952D01*
X182024642Y-83508809D01*
X181977023Y-83699285D01*
X181929404Y-83794523D01*
X181834166Y-83889761D01*
X181691309Y-83937380D01*
X181453214Y-83937380D01*
X179929404Y-86945000D02*
X179834166Y-86897380D01*
X179691309Y-86897380D01*
X179548452Y-86945000D01*
X179453214Y-87040238D01*
X179405595Y-87135476D01*
X179357976Y-87325952D01*
X179357976Y-87468809D01*
X179405595Y-87659285D01*
X179453214Y-87754523D01*
X179548452Y-87849761D01*
X179691309Y-87897380D01*
X179786547Y-87897380D01*
X179929404Y-87849761D01*
X179977023Y-87802142D01*
X179977023Y-87468809D01*
X179786547Y-87468809D01*
X180405595Y-87897380D02*
X180405595Y-86897380D01*
X180977023Y-87897380D01*
X180977023Y-86897380D01*
X181453214Y-87897380D02*
X181453214Y-86897380D01*
X181691309Y-86897380D01*
X181834166Y-86945000D01*
X181929404Y-87040238D01*
X181977023Y-87135476D01*
X182024642Y-87325952D01*
X182024642Y-87468809D01*
X181977023Y-87659285D01*
X181929404Y-87754523D01*
X181834166Y-87849761D01*
X181691309Y-87897380D01*
X181453214Y-87897380D01*
X179929404Y-102785000D02*
X179834166Y-102737380D01*
X179691309Y-102737380D01*
X179548452Y-102785000D01*
X179453214Y-102880238D01*
X179405595Y-102975476D01*
X179357976Y-103165952D01*
X179357976Y-103308809D01*
X179405595Y-103499285D01*
X179453214Y-103594523D01*
X179548452Y-103689761D01*
X179691309Y-103737380D01*
X179786547Y-103737380D01*
X179929404Y-103689761D01*
X179977023Y-103642142D01*
X179977023Y-103308809D01*
X179786547Y-103308809D01*
X180405595Y-103737380D02*
X180405595Y-102737380D01*
X180977023Y-103737380D01*
X180977023Y-102737380D01*
X181453214Y-103737380D02*
X181453214Y-102737380D01*
X181691309Y-102737380D01*
X181834166Y-102785000D01*
X181929404Y-102880238D01*
X181977023Y-102975476D01*
X182024642Y-103165952D01*
X182024642Y-103308809D01*
X181977023Y-103499285D01*
X181929404Y-103594523D01*
X181834166Y-103689761D01*
X181691309Y-103737380D01*
X181453214Y-103737380D01*
X179929404Y-118625000D02*
X179834166Y-118577380D01*
X179691309Y-118577380D01*
X179548452Y-118625000D01*
X179453214Y-118720238D01*
X179405595Y-118815476D01*
X179357976Y-119005952D01*
X179357976Y-119148809D01*
X179405595Y-119339285D01*
X179453214Y-119434523D01*
X179548452Y-119529761D01*
X179691309Y-119577380D01*
X179786547Y-119577380D01*
X179929404Y-119529761D01*
X179977023Y-119482142D01*
X179977023Y-119148809D01*
X179786547Y-119148809D01*
X180405595Y-119577380D02*
X180405595Y-118577380D01*
X180977023Y-119577380D01*
X180977023Y-118577380D01*
X181453214Y-119577380D02*
X181453214Y-118577380D01*
X181691309Y-118577380D01*
X181834166Y-118625000D01*
X181929404Y-118720238D01*
X181977023Y-118815476D01*
X182024642Y-119005952D01*
X182024642Y-119148809D01*
X181977023Y-119339285D01*
X181929404Y-119434523D01*
X181834166Y-119529761D01*
X181691309Y-119577380D01*
X181453214Y-119577380D01*
X179929404Y-122585000D02*
X179834166Y-122537380D01*
X179691309Y-122537380D01*
X179548452Y-122585000D01*
X179453214Y-122680238D01*
X179405595Y-122775476D01*
X179357976Y-122965952D01*
X179357976Y-123108809D01*
X179405595Y-123299285D01*
X179453214Y-123394523D01*
X179548452Y-123489761D01*
X179691309Y-123537380D01*
X179786547Y-123537380D01*
X179929404Y-123489761D01*
X179977023Y-123442142D01*
X179977023Y-123108809D01*
X179786547Y-123108809D01*
X180405595Y-123537380D02*
X180405595Y-122537380D01*
X180977023Y-123537380D01*
X180977023Y-122537380D01*
X181453214Y-123537380D02*
X181453214Y-122537380D01*
X181691309Y-122537380D01*
X181834166Y-122585000D01*
X181929404Y-122680238D01*
X181977023Y-122775476D01*
X182024642Y-122965952D01*
X182024642Y-123108809D01*
X181977023Y-123299285D01*
X181929404Y-123394523D01*
X181834166Y-123489761D01*
X181691309Y-123537380D01*
X181453214Y-123537380D01*
X179929404Y-126545000D02*
X179834166Y-126497380D01*
X179691309Y-126497380D01*
X179548452Y-126545000D01*
X179453214Y-126640238D01*
X179405595Y-126735476D01*
X179357976Y-126925952D01*
X179357976Y-127068809D01*
X179405595Y-127259285D01*
X179453214Y-127354523D01*
X179548452Y-127449761D01*
X179691309Y-127497380D01*
X179786547Y-127497380D01*
X179929404Y-127449761D01*
X179977023Y-127402142D01*
X179977023Y-127068809D01*
X179786547Y-127068809D01*
X180405595Y-127497380D02*
X180405595Y-126497380D01*
X180977023Y-127497380D01*
X180977023Y-126497380D01*
X181453214Y-127497380D02*
X181453214Y-126497380D01*
X181691309Y-126497380D01*
X181834166Y-126545000D01*
X181929404Y-126640238D01*
X181977023Y-126735476D01*
X182024642Y-126925952D01*
X182024642Y-127068809D01*
X181977023Y-127259285D01*
X181929404Y-127354523D01*
X181834166Y-127449761D01*
X181691309Y-127497380D01*
X181453214Y-127497380D01*
X179405595Y-131076428D02*
X180167500Y-131076428D01*
X179786547Y-131457380D02*
X179786547Y-130695476D01*
X181167500Y-131457380D02*
X180596071Y-131457380D01*
X180881785Y-131457380D02*
X180881785Y-130457380D01*
X180786547Y-130600238D01*
X180691309Y-130695476D01*
X180596071Y-130743095D01*
X181548452Y-130552619D02*
X181596071Y-130505000D01*
X181691309Y-130457380D01*
X181929404Y-130457380D01*
X182024642Y-130505000D01*
X182072261Y-130552619D01*
X182119880Y-130647857D01*
X182119880Y-130743095D01*
X182072261Y-130885952D01*
X181500833Y-131457380D01*
X182119880Y-131457380D01*
X182405595Y-130457380D02*
X182738928Y-131457380D01*
X183072261Y-130457380D01*
X150445595Y-99396428D02*
X151207500Y-99396428D01*
X150826547Y-99777380D02*
X150826547Y-99015476D01*
X152207500Y-99777380D02*
X151636071Y-99777380D01*
X151921785Y-99777380D02*
X151921785Y-98777380D01*
X151826547Y-98920238D01*
X151731309Y-99015476D01*
X151636071Y-99063095D01*
X152588452Y-98872619D02*
X152636071Y-98825000D01*
X152731309Y-98777380D01*
X152969404Y-98777380D01*
X153064642Y-98825000D01*
X153112261Y-98872619D01*
X153159880Y-98967857D01*
X153159880Y-99063095D01*
X153112261Y-99205952D01*
X152540833Y-99777380D01*
X153159880Y-99777380D01*
X153445595Y-98777380D02*
X153778928Y-99777380D01*
X154112261Y-98777380D01*
X151397976Y-103356428D02*
X152159880Y-103356428D01*
X151778928Y-103737380D02*
X151778928Y-102975476D01*
X153112261Y-102737380D02*
X152636071Y-102737380D01*
X152588452Y-103213571D01*
X152636071Y-103165952D01*
X152731309Y-103118333D01*
X152969404Y-103118333D01*
X153064642Y-103165952D01*
X153112261Y-103213571D01*
X153159880Y-103308809D01*
X153159880Y-103546904D01*
X153112261Y-103642142D01*
X153064642Y-103689761D01*
X152969404Y-103737380D01*
X152731309Y-103737380D01*
X152636071Y-103689761D01*
X152588452Y-103642142D01*
X153445595Y-102737380D02*
X153778928Y-103737380D01*
X154112261Y-102737380D01*
X151397976Y-107316428D02*
X152159880Y-107316428D01*
X151778928Y-107697380D02*
X151778928Y-106935476D01*
X153112261Y-106697380D02*
X152636071Y-106697380D01*
X152588452Y-107173571D01*
X152636071Y-107125952D01*
X152731309Y-107078333D01*
X152969404Y-107078333D01*
X153064642Y-107125952D01*
X153112261Y-107173571D01*
X153159880Y-107268809D01*
X153159880Y-107506904D01*
X153112261Y-107602142D01*
X153064642Y-107649761D01*
X152969404Y-107697380D01*
X152731309Y-107697380D01*
X152636071Y-107649761D01*
X152588452Y-107602142D01*
X153445595Y-106697380D02*
X153778928Y-107697380D01*
X154112261Y-106697380D01*
X151921785Y-110705000D02*
X151826547Y-110657380D01*
X151683690Y-110657380D01*
X151540833Y-110705000D01*
X151445595Y-110800238D01*
X151397976Y-110895476D01*
X151350357Y-111085952D01*
X151350357Y-111228809D01*
X151397976Y-111419285D01*
X151445595Y-111514523D01*
X151540833Y-111609761D01*
X151683690Y-111657380D01*
X151778928Y-111657380D01*
X151921785Y-111609761D01*
X151969404Y-111562142D01*
X151969404Y-111228809D01*
X151778928Y-111228809D01*
X152397976Y-111657380D02*
X152397976Y-110657380D01*
X152969404Y-111657380D01*
X152969404Y-110657380D01*
X153445595Y-111657380D02*
X153445595Y-110657380D01*
X153683690Y-110657380D01*
X153826547Y-110705000D01*
X153921785Y-110800238D01*
X153969404Y-110895476D01*
X154017023Y-111085952D01*
X154017023Y-111228809D01*
X153969404Y-111419285D01*
X153921785Y-111514523D01*
X153826547Y-111609761D01*
X153683690Y-111657380D01*
X153445595Y-111657380D01*
X151921785Y-114665000D02*
X151826547Y-114617380D01*
X151683690Y-114617380D01*
X151540833Y-114665000D01*
X151445595Y-114760238D01*
X151397976Y-114855476D01*
X151350357Y-115045952D01*
X151350357Y-115188809D01*
X151397976Y-115379285D01*
X151445595Y-115474523D01*
X151540833Y-115569761D01*
X151683690Y-115617380D01*
X151778928Y-115617380D01*
X151921785Y-115569761D01*
X151969404Y-115522142D01*
X151969404Y-115188809D01*
X151778928Y-115188809D01*
X152397976Y-115617380D02*
X152397976Y-114617380D01*
X152969404Y-115617380D01*
X152969404Y-114617380D01*
X153445595Y-115617380D02*
X153445595Y-114617380D01*
X153683690Y-114617380D01*
X153826547Y-114665000D01*
X153921785Y-114760238D01*
X153969404Y-114855476D01*
X154017023Y-115045952D01*
X154017023Y-115188809D01*
X153969404Y-115379285D01*
X153921785Y-115474523D01*
X153826547Y-115569761D01*
X153683690Y-115617380D01*
X153445595Y-115617380D01*
X150445595Y-119196428D02*
X151207500Y-119196428D01*
X152207500Y-119577380D02*
X151636071Y-119577380D01*
X151921785Y-119577380D02*
X151921785Y-118577380D01*
X151826547Y-118720238D01*
X151731309Y-118815476D01*
X151636071Y-118863095D01*
X152588452Y-118672619D02*
X152636071Y-118625000D01*
X152731309Y-118577380D01*
X152969404Y-118577380D01*
X153064642Y-118625000D01*
X153112261Y-118672619D01*
X153159880Y-118767857D01*
X153159880Y-118863095D01*
X153112261Y-119005952D01*
X152540833Y-119577380D01*
X153159880Y-119577380D01*
X153445595Y-118577380D02*
X153778928Y-119577380D01*
X154112261Y-118577380D01*
D12*
%TO.C,J3*%
X171450000Y-62230000D02*
X171450000Y-68580000D01*
X170120000Y-68640000D02*
X176590000Y-68640000D01*
X170120000Y-68640000D02*
X170120000Y-62170000D01*
X170120000Y-62170000D02*
X176590000Y-62170000D01*
X176590000Y-62170000D02*
X176590000Y-68640000D01*
%TO.C,J2*%
X169545000Y-73025000D02*
X169545000Y-133545000D01*
X167640000Y-133545000D02*
X167640000Y-73025000D01*
X179070000Y-133545000D02*
X167640000Y-133545000D01*
X179070000Y-73025000D02*
X179070000Y-133545000D01*
X167640000Y-73025000D02*
X179070000Y-73025000D01*
%TO.C,J1*%
X156210000Y-96785000D02*
X156210000Y-121665000D01*
X154305000Y-121665000D02*
X154305000Y-96785000D01*
X165735000Y-121665000D02*
X154305000Y-121665000D01*
X165735000Y-96785000D02*
X165735000Y-121665000D01*
X154305000Y-96785000D02*
X165735000Y-96785000D01*
%TO.C,J3*%
D10*
X173021666Y-60412380D02*
X173021666Y-61126666D01*
X172974047Y-61269523D01*
X172878809Y-61364761D01*
X172735952Y-61412380D01*
X172640714Y-61412380D01*
X173402619Y-60412380D02*
X174021666Y-60412380D01*
X173688333Y-60793333D01*
X173831190Y-60793333D01*
X173926428Y-60840952D01*
X173974047Y-60888571D01*
X174021666Y-60983809D01*
X174021666Y-61221904D01*
X173974047Y-61317142D01*
X173926428Y-61364761D01*
X173831190Y-61412380D01*
X173545476Y-61412380D01*
X173450238Y-61364761D01*
X173402619Y-61317142D01*
X172593095Y-69778571D02*
X172259761Y-69778571D01*
X172259761Y-70302380D02*
X172259761Y-69302380D01*
X172735952Y-69302380D01*
X173545476Y-70302380D02*
X173545476Y-69778571D01*
X173497857Y-69683333D01*
X173402619Y-69635714D01*
X173212142Y-69635714D01*
X173116904Y-69683333D01*
X173545476Y-70254761D02*
X173450238Y-70302380D01*
X173212142Y-70302380D01*
X173116904Y-70254761D01*
X173069285Y-70159523D01*
X173069285Y-70064285D01*
X173116904Y-69969047D01*
X173212142Y-69921428D01*
X173450238Y-69921428D01*
X173545476Y-69873809D01*
X174021666Y-69635714D02*
X174021666Y-70302380D01*
X174021666Y-69730952D02*
X174069285Y-69683333D01*
X174164523Y-69635714D01*
X174307380Y-69635714D01*
X174402619Y-69683333D01*
X174450238Y-69778571D01*
X174450238Y-70302380D01*
%TO.C,J2*%
X173021666Y-134072380D02*
X173021666Y-134786666D01*
X172974047Y-134929523D01*
X172878809Y-135024761D01*
X172735952Y-135072380D01*
X172640714Y-135072380D01*
X173450238Y-134167619D02*
X173497857Y-134120000D01*
X173593095Y-134072380D01*
X173831190Y-134072380D01*
X173926428Y-134120000D01*
X173974047Y-134167619D01*
X174021666Y-134262857D01*
X174021666Y-134358095D01*
X173974047Y-134500952D01*
X173402619Y-135072380D01*
X174021666Y-135072380D01*
X171331190Y-135342380D02*
X171521666Y-135342380D01*
X171616904Y-135390000D01*
X171712142Y-135485238D01*
X171759761Y-135675714D01*
X171759761Y-136009047D01*
X171712142Y-136199523D01*
X171616904Y-136294761D01*
X171521666Y-136342380D01*
X171331190Y-136342380D01*
X171235952Y-136294761D01*
X171140714Y-136199523D01*
X171093095Y-136009047D01*
X171093095Y-135675714D01*
X171140714Y-135485238D01*
X171235952Y-135390000D01*
X171331190Y-135342380D01*
X172616904Y-135675714D02*
X172616904Y-136342380D01*
X172188333Y-135675714D02*
X172188333Y-136199523D01*
X172235952Y-136294761D01*
X172331190Y-136342380D01*
X172474047Y-136342380D01*
X172569285Y-136294761D01*
X172616904Y-136247142D01*
X172950238Y-135675714D02*
X173331190Y-135675714D01*
X173093095Y-135342380D02*
X173093095Y-136199523D01*
X173140714Y-136294761D01*
X173235952Y-136342380D01*
X173331190Y-136342380D01*
X173664523Y-135675714D02*
X173664523Y-136675714D01*
X173664523Y-135723333D02*
X173759761Y-135675714D01*
X173950238Y-135675714D01*
X174045476Y-135723333D01*
X174093095Y-135770952D01*
X174140714Y-135866190D01*
X174140714Y-136151904D01*
X174093095Y-136247142D01*
X174045476Y-136294761D01*
X173950238Y-136342380D01*
X173759761Y-136342380D01*
X173664523Y-136294761D01*
X174997857Y-135675714D02*
X174997857Y-136342380D01*
X174569285Y-135675714D02*
X174569285Y-136199523D01*
X174616904Y-136294761D01*
X174712142Y-136342380D01*
X174855000Y-136342380D01*
X174950238Y-136294761D01*
X174997857Y-136247142D01*
X175331190Y-135675714D02*
X175712142Y-135675714D01*
X175474047Y-135342380D02*
X175474047Y-136199523D01*
X175521666Y-136294761D01*
X175616904Y-136342380D01*
X175712142Y-136342380D01*
%TO.C,J1*%
X159686666Y-122007380D02*
X159686666Y-122721666D01*
X159639047Y-122864523D01*
X159543809Y-122959761D01*
X159400952Y-123007380D01*
X159305714Y-123007380D01*
X160686666Y-123007380D02*
X160115238Y-123007380D01*
X160400952Y-123007380D02*
X160400952Y-122007380D01*
X160305714Y-122150238D01*
X160210476Y-122245476D01*
X160115238Y-122293095D01*
X158377142Y-124542380D02*
X158377142Y-123542380D01*
X158853333Y-123875714D02*
X158853333Y-124542380D01*
X158853333Y-123970952D02*
X158900952Y-123923333D01*
X158996190Y-123875714D01*
X159139047Y-123875714D01*
X159234285Y-123923333D01*
X159281904Y-124018571D01*
X159281904Y-124542380D01*
X159758095Y-123875714D02*
X159758095Y-124875714D01*
X159758095Y-123923333D02*
X159853333Y-123875714D01*
X160043809Y-123875714D01*
X160139047Y-123923333D01*
X160186666Y-123970952D01*
X160234285Y-124066190D01*
X160234285Y-124351904D01*
X160186666Y-124447142D01*
X160139047Y-124494761D01*
X160043809Y-124542380D01*
X159853333Y-124542380D01*
X159758095Y-124494761D01*
X161091428Y-123875714D02*
X161091428Y-124542380D01*
X160662857Y-123875714D02*
X160662857Y-124399523D01*
X160710476Y-124494761D01*
X160805714Y-124542380D01*
X160948571Y-124542380D01*
X161043809Y-124494761D01*
X161091428Y-124447142D01*
X161424761Y-123875714D02*
X161805714Y-123875714D01*
X161567619Y-123542380D02*
X161567619Y-124399523D01*
X161615238Y-124494761D01*
X161710476Y-124542380D01*
X161805714Y-124542380D01*
%TD*%
M02*
