%TF.GenerationSoftware,KiCad,Pcbnew,(5.1.9)-1*%
%TF.CreationDate,2021-05-18T19:43:41+08:00*%
%TF.ProjectId,Tandy1000PowerGeneric,54616e64-7931-4303-9030-506f77657247,rev?*%
%TF.SameCoordinates,Original*%
%TF.FileFunction,Copper,L2,Bot*%
%TF.FilePolarity,Positive*%
%FSLAX46Y46*%
G04 Gerber Fmt 4.6, Leading zero omitted, Abs format (unit mm)*
G04 Created by KiCad (PCBNEW (5.1.9)-1) date 2021-05-18 19:43:41*
%MOMM*%
%LPD*%
G01*
G04 APERTURE LIST*
%TA.AperFunction,ComponentPad*%
%ADD10O,2.540000X1.700000*%
%TD*%
%TA.AperFunction,ComponentPad*%
%ADD11O,4.800000X3.500000*%
%TD*%
%TA.AperFunction,ComponentPad*%
%ADD12C,7.400000*%
%TD*%
%TA.AperFunction,Conductor*%
%ADD13C,0.254000*%
%TD*%
%TA.AperFunction,Conductor*%
%ADD14C,0.100000*%
%TD*%
G04 APERTURE END LIST*
D10*
%TO.P,J3,1*%
%TO.N,+12V*%
X173355000Y-64135000D03*
%TO.P,J3,2*%
%TO.N,GND*%
X173355000Y-66675000D03*
%TD*%
D11*
%TO.P,J2,15*%
%TO.N,-12V*%
X173355000Y-131005000D03*
%TO.P,J2,14*%
%TO.N,GND*%
X173355000Y-127045000D03*
%TO.P,J2,13*%
X173355000Y-123085000D03*
%TO.P,J2,12*%
X173355000Y-119125000D03*
%TO.P,J2,11*%
%TO.N,+5V*%
X173355000Y-115165000D03*
%TO.P,J2,10*%
X173355000Y-111205000D03*
%TO.P,J2,9*%
X173355000Y-107245000D03*
%TO.P,J2,8*%
%TO.N,GND*%
X173355000Y-103285000D03*
%TO.P,J2,7*%
%TO.N,+12V*%
X173355000Y-99325000D03*
%TO.P,J2,6*%
%TO.N,Net-(J2-Pad6)*%
X173355000Y-95365000D03*
%TO.P,J2,5*%
%TO.N,+12V*%
X173355000Y-91405000D03*
%TO.P,J2,4*%
%TO.N,GND*%
X173355000Y-87445000D03*
%TO.P,J2,3*%
X173355000Y-83485000D03*
%TO.P,J2,2*%
%TO.N,+5V*%
X173355000Y-79525000D03*
%TO.P,J2,1*%
%TO.N,Net-(J2-Pad1)*%
X173355000Y-75565000D03*
%TD*%
%TO.P,J1,6*%
%TO.N,-12V*%
X160020000Y-119125000D03*
%TO.P,J1,5*%
%TO.N,GND*%
X160020000Y-115165000D03*
%TO.P,J1,4*%
X160020000Y-111205000D03*
%TO.P,J1,3*%
%TO.N,+5V*%
X160020000Y-107245000D03*
%TO.P,J1,2*%
X160020000Y-103285000D03*
%TO.P,J1,1*%
%TO.N,+12V*%
X160020000Y-99325000D03*
%TD*%
D12*
%TO.P,H2,1*%
%TO.N,GND*%
X173355000Y-139680000D03*
%TD*%
%TO.P,H1,1*%
%TO.N,Net-(H1-Pad1)*%
X173355000Y-54630000D03*
%TD*%
D13*
%TO.N,GND*%
X165608000Y-58420000D02*
X165610440Y-58444776D01*
X165617667Y-58468601D01*
X165629403Y-58490557D01*
X165645197Y-58509803D01*
X169455197Y-62319803D01*
X169474443Y-62335597D01*
X169496399Y-62347333D01*
X169520224Y-62354560D01*
X169545000Y-62357000D01*
X182805000Y-62357000D01*
X182805001Y-144745269D01*
X182790995Y-144888109D01*
X182759599Y-144992099D01*
X182708601Y-145088013D01*
X182639941Y-145172199D01*
X182556243Y-145241439D01*
X182460689Y-145293105D01*
X182356922Y-145325227D01*
X182216359Y-145340000D01*
X151164720Y-145340000D01*
X151021891Y-145325995D01*
X150917901Y-145294599D01*
X150821987Y-145243601D01*
X150737801Y-145174941D01*
X150668561Y-145091243D01*
X150616895Y-144995689D01*
X150584773Y-144891922D01*
X150570000Y-144751359D01*
X150570000Y-131005000D01*
X170308461Y-131005000D01*
X170354510Y-131472542D01*
X170490887Y-131922116D01*
X170712351Y-132336446D01*
X171010391Y-132699609D01*
X171373554Y-132997649D01*
X171787884Y-133219113D01*
X172237458Y-133355490D01*
X172587843Y-133390000D01*
X174122157Y-133390000D01*
X174472542Y-133355490D01*
X174922116Y-133219113D01*
X175336446Y-132997649D01*
X175699609Y-132699609D01*
X175997649Y-132336446D01*
X176219113Y-131922116D01*
X176355490Y-131472542D01*
X176401539Y-131005000D01*
X176355490Y-130537458D01*
X176219113Y-130087884D01*
X175997649Y-129673554D01*
X175699609Y-129310391D01*
X175336446Y-129012351D01*
X174922116Y-128790887D01*
X174472542Y-128654510D01*
X174122157Y-128620000D01*
X172587843Y-128620000D01*
X172237458Y-128654510D01*
X171787884Y-128790887D01*
X171373554Y-129012351D01*
X171010391Y-129310391D01*
X170712351Y-129673554D01*
X170490887Y-130087884D01*
X170354510Y-130537458D01*
X170308461Y-131005000D01*
X150570000Y-131005000D01*
X150570000Y-119125000D01*
X156973461Y-119125000D01*
X157019510Y-119592542D01*
X157155887Y-120042116D01*
X157377351Y-120456446D01*
X157675391Y-120819609D01*
X158038554Y-121117649D01*
X158452884Y-121339113D01*
X158902458Y-121475490D01*
X159252843Y-121510000D01*
X160787157Y-121510000D01*
X161137542Y-121475490D01*
X161587116Y-121339113D01*
X162001446Y-121117649D01*
X162364609Y-120819609D01*
X162662649Y-120456446D01*
X162884113Y-120042116D01*
X163020490Y-119592542D01*
X163066539Y-119125000D01*
X163020490Y-118657458D01*
X162884113Y-118207884D01*
X162662649Y-117793554D01*
X162364609Y-117430391D01*
X162001446Y-117132351D01*
X161587116Y-116910887D01*
X161137542Y-116774510D01*
X160787157Y-116740000D01*
X159252843Y-116740000D01*
X158902458Y-116774510D01*
X158452884Y-116910887D01*
X158038554Y-117132351D01*
X157675391Y-117430391D01*
X157377351Y-117793554D01*
X157155887Y-118207884D01*
X157019510Y-118657458D01*
X156973461Y-119125000D01*
X150570000Y-119125000D01*
X150570000Y-99325000D01*
X156973461Y-99325000D01*
X157019510Y-99792542D01*
X157155887Y-100242116D01*
X157377351Y-100656446D01*
X157675391Y-101019609D01*
X158023141Y-101305000D01*
X157675391Y-101590391D01*
X157377351Y-101953554D01*
X157155887Y-102367884D01*
X157019510Y-102817458D01*
X156973461Y-103285000D01*
X157019510Y-103752542D01*
X157155887Y-104202116D01*
X157377351Y-104616446D01*
X157675391Y-104979609D01*
X158023141Y-105265000D01*
X157675391Y-105550391D01*
X157377351Y-105913554D01*
X157155887Y-106327884D01*
X157019510Y-106777458D01*
X156973461Y-107245000D01*
X157019510Y-107712542D01*
X157155887Y-108162116D01*
X157377351Y-108576446D01*
X157675391Y-108939609D01*
X158038554Y-109237649D01*
X158452884Y-109459113D01*
X158902458Y-109595490D01*
X159252843Y-109630000D01*
X160787157Y-109630000D01*
X161137542Y-109595490D01*
X161587116Y-109459113D01*
X162001446Y-109237649D01*
X162364609Y-108939609D01*
X162662649Y-108576446D01*
X162884113Y-108162116D01*
X163020490Y-107712542D01*
X163066539Y-107245000D01*
X170308461Y-107245000D01*
X170354510Y-107712542D01*
X170490887Y-108162116D01*
X170712351Y-108576446D01*
X171010391Y-108939609D01*
X171358141Y-109225000D01*
X171010391Y-109510391D01*
X170712351Y-109873554D01*
X170490887Y-110287884D01*
X170354510Y-110737458D01*
X170308461Y-111205000D01*
X170354510Y-111672542D01*
X170490887Y-112122116D01*
X170712351Y-112536446D01*
X171010391Y-112899609D01*
X171358141Y-113185000D01*
X171010391Y-113470391D01*
X170712351Y-113833554D01*
X170490887Y-114247884D01*
X170354510Y-114697458D01*
X170308461Y-115165000D01*
X170354510Y-115632542D01*
X170490887Y-116082116D01*
X170712351Y-116496446D01*
X171010391Y-116859609D01*
X171373554Y-117157649D01*
X171787884Y-117379113D01*
X172237458Y-117515490D01*
X172587843Y-117550000D01*
X174122157Y-117550000D01*
X174472542Y-117515490D01*
X174922116Y-117379113D01*
X175336446Y-117157649D01*
X175699609Y-116859609D01*
X175997649Y-116496446D01*
X176219113Y-116082116D01*
X176355490Y-115632542D01*
X176401539Y-115165000D01*
X176355490Y-114697458D01*
X176219113Y-114247884D01*
X175997649Y-113833554D01*
X175699609Y-113470391D01*
X175351859Y-113185000D01*
X175699609Y-112899609D01*
X175997649Y-112536446D01*
X176219113Y-112122116D01*
X176355490Y-111672542D01*
X176401539Y-111205000D01*
X176355490Y-110737458D01*
X176219113Y-110287884D01*
X175997649Y-109873554D01*
X175699609Y-109510391D01*
X175351859Y-109225000D01*
X175699609Y-108939609D01*
X175997649Y-108576446D01*
X176219113Y-108162116D01*
X176355490Y-107712542D01*
X176401539Y-107245000D01*
X176355490Y-106777458D01*
X176219113Y-106327884D01*
X175997649Y-105913554D01*
X175699609Y-105550391D01*
X175336446Y-105252351D01*
X174922116Y-105030887D01*
X174472542Y-104894510D01*
X174122157Y-104860000D01*
X172587843Y-104860000D01*
X172237458Y-104894510D01*
X171787884Y-105030887D01*
X171373554Y-105252351D01*
X171010391Y-105550391D01*
X170712351Y-105913554D01*
X170490887Y-106327884D01*
X170354510Y-106777458D01*
X170308461Y-107245000D01*
X163066539Y-107245000D01*
X163020490Y-106777458D01*
X162884113Y-106327884D01*
X162662649Y-105913554D01*
X162364609Y-105550391D01*
X162016859Y-105265000D01*
X162364609Y-104979609D01*
X162662649Y-104616446D01*
X162884113Y-104202116D01*
X163020490Y-103752542D01*
X163066539Y-103285000D01*
X163020490Y-102817458D01*
X162884113Y-102367884D01*
X162662649Y-101953554D01*
X162364609Y-101590391D01*
X162016859Y-101305000D01*
X162364609Y-101019609D01*
X162662649Y-100656446D01*
X162884113Y-100242116D01*
X163020490Y-99792542D01*
X163066539Y-99325000D01*
X163020490Y-98857458D01*
X162884113Y-98407884D01*
X162662649Y-97993554D01*
X162364609Y-97630391D01*
X162001446Y-97332351D01*
X161587116Y-97110887D01*
X161137542Y-96974510D01*
X160787157Y-96940000D01*
X159252843Y-96940000D01*
X158902458Y-96974510D01*
X158452884Y-97110887D01*
X158038554Y-97332351D01*
X157675391Y-97630391D01*
X157377351Y-97993554D01*
X157155887Y-98407884D01*
X157019510Y-98857458D01*
X156973461Y-99325000D01*
X150570000Y-99325000D01*
X150570000Y-91405000D01*
X170308461Y-91405000D01*
X170354510Y-91872542D01*
X170490887Y-92322116D01*
X170712351Y-92736446D01*
X171010391Y-93099609D01*
X171358141Y-93385000D01*
X171010391Y-93670391D01*
X170712351Y-94033554D01*
X170490887Y-94447884D01*
X170354510Y-94897458D01*
X170308461Y-95365000D01*
X170354510Y-95832542D01*
X170490887Y-96282116D01*
X170712351Y-96696446D01*
X171010391Y-97059609D01*
X171358141Y-97345000D01*
X171010391Y-97630391D01*
X170712351Y-97993554D01*
X170490887Y-98407884D01*
X170354510Y-98857458D01*
X170308461Y-99325000D01*
X170354510Y-99792542D01*
X170490887Y-100242116D01*
X170712351Y-100656446D01*
X171010391Y-101019609D01*
X171373554Y-101317649D01*
X171787884Y-101539113D01*
X172237458Y-101675490D01*
X172587843Y-101710000D01*
X174122157Y-101710000D01*
X174472542Y-101675490D01*
X174922116Y-101539113D01*
X175336446Y-101317649D01*
X175699609Y-101019609D01*
X175997649Y-100656446D01*
X176219113Y-100242116D01*
X176355490Y-99792542D01*
X176401539Y-99325000D01*
X176355490Y-98857458D01*
X176219113Y-98407884D01*
X175997649Y-97993554D01*
X175699609Y-97630391D01*
X175351859Y-97345000D01*
X175699609Y-97059609D01*
X175997649Y-96696446D01*
X176219113Y-96282116D01*
X176355490Y-95832542D01*
X176401539Y-95365000D01*
X176355490Y-94897458D01*
X176219113Y-94447884D01*
X175997649Y-94033554D01*
X175699609Y-93670391D01*
X175351859Y-93385000D01*
X175699609Y-93099609D01*
X175997649Y-92736446D01*
X176219113Y-92322116D01*
X176355490Y-91872542D01*
X176401539Y-91405000D01*
X176355490Y-90937458D01*
X176219113Y-90487884D01*
X175997649Y-90073554D01*
X175699609Y-89710391D01*
X175336446Y-89412351D01*
X174922116Y-89190887D01*
X174472542Y-89054510D01*
X174122157Y-89020000D01*
X172587843Y-89020000D01*
X172237458Y-89054510D01*
X171787884Y-89190887D01*
X171373554Y-89412351D01*
X171010391Y-89710391D01*
X170712351Y-90073554D01*
X170490887Y-90487884D01*
X170354510Y-90937458D01*
X170308461Y-91405000D01*
X150570000Y-91405000D01*
X150570000Y-75565000D01*
X170308461Y-75565000D01*
X170354510Y-76032542D01*
X170490887Y-76482116D01*
X170712351Y-76896446D01*
X171010391Y-77259609D01*
X171358141Y-77545000D01*
X171010391Y-77830391D01*
X170712351Y-78193554D01*
X170490887Y-78607884D01*
X170354510Y-79057458D01*
X170308461Y-79525000D01*
X170354510Y-79992542D01*
X170490887Y-80442116D01*
X170712351Y-80856446D01*
X171010391Y-81219609D01*
X171373554Y-81517649D01*
X171787884Y-81739113D01*
X172237458Y-81875490D01*
X172587843Y-81910000D01*
X174122157Y-81910000D01*
X174472542Y-81875490D01*
X174922116Y-81739113D01*
X175336446Y-81517649D01*
X175699609Y-81219609D01*
X175997649Y-80856446D01*
X176219113Y-80442116D01*
X176355490Y-79992542D01*
X176401539Y-79525000D01*
X176355490Y-79057458D01*
X176219113Y-78607884D01*
X175997649Y-78193554D01*
X175699609Y-77830391D01*
X175351859Y-77545000D01*
X175699609Y-77259609D01*
X175997649Y-76896446D01*
X176219113Y-76482116D01*
X176355490Y-76032542D01*
X176401539Y-75565000D01*
X176355490Y-75097458D01*
X176219113Y-74647884D01*
X175997649Y-74233554D01*
X175699609Y-73870391D01*
X175336446Y-73572351D01*
X174922116Y-73350887D01*
X174472542Y-73214510D01*
X174122157Y-73180000D01*
X172587843Y-73180000D01*
X172237458Y-73214510D01*
X171787884Y-73350887D01*
X171373554Y-73572351D01*
X171010391Y-73870391D01*
X170712351Y-74233554D01*
X170490887Y-74647884D01*
X170354510Y-75097458D01*
X170308461Y-75565000D01*
X150570000Y-75565000D01*
X150570000Y-64135000D01*
X171442815Y-64135000D01*
X171471487Y-64426111D01*
X171556401Y-64706034D01*
X171694294Y-64964014D01*
X171879866Y-65190134D01*
X172105986Y-65375706D01*
X172363966Y-65513599D01*
X172643889Y-65598513D01*
X172862050Y-65620000D01*
X173847950Y-65620000D01*
X174066111Y-65598513D01*
X174346034Y-65513599D01*
X174604014Y-65375706D01*
X174830134Y-65190134D01*
X175015706Y-64964014D01*
X175153599Y-64706034D01*
X175238513Y-64426111D01*
X175267185Y-64135000D01*
X175238513Y-63843889D01*
X175153599Y-63563966D01*
X175015706Y-63305986D01*
X174830134Y-63079866D01*
X174604014Y-62894294D01*
X174346034Y-62756401D01*
X174066111Y-62671487D01*
X173847950Y-62650000D01*
X172862050Y-62650000D01*
X172643889Y-62671487D01*
X172363966Y-62756401D01*
X172105986Y-62894294D01*
X171879866Y-63079866D01*
X171694294Y-63305986D01*
X171556401Y-63563966D01*
X171471487Y-63843889D01*
X171442815Y-64135000D01*
X150570000Y-64135000D01*
X150570000Y-49564720D01*
X150584005Y-49421891D01*
X150615402Y-49317899D01*
X150666399Y-49221986D01*
X150735055Y-49137806D01*
X150818758Y-49068560D01*
X150914311Y-49016895D01*
X151018078Y-48984773D01*
X151158641Y-48970000D01*
X165608000Y-48970000D01*
X165608000Y-58420000D01*
%TA.AperFunction,Conductor*%
D14*
G36*
X165608000Y-58420000D02*
G01*
X165610440Y-58444776D01*
X165617667Y-58468601D01*
X165629403Y-58490557D01*
X165645197Y-58509803D01*
X169455197Y-62319803D01*
X169474443Y-62335597D01*
X169496399Y-62347333D01*
X169520224Y-62354560D01*
X169545000Y-62357000D01*
X182805000Y-62357000D01*
X182805001Y-144745269D01*
X182790995Y-144888109D01*
X182759599Y-144992099D01*
X182708601Y-145088013D01*
X182639941Y-145172199D01*
X182556243Y-145241439D01*
X182460689Y-145293105D01*
X182356922Y-145325227D01*
X182216359Y-145340000D01*
X151164720Y-145340000D01*
X151021891Y-145325995D01*
X150917901Y-145294599D01*
X150821987Y-145243601D01*
X150737801Y-145174941D01*
X150668561Y-145091243D01*
X150616895Y-144995689D01*
X150584773Y-144891922D01*
X150570000Y-144751359D01*
X150570000Y-131005000D01*
X170308461Y-131005000D01*
X170354510Y-131472542D01*
X170490887Y-131922116D01*
X170712351Y-132336446D01*
X171010391Y-132699609D01*
X171373554Y-132997649D01*
X171787884Y-133219113D01*
X172237458Y-133355490D01*
X172587843Y-133390000D01*
X174122157Y-133390000D01*
X174472542Y-133355490D01*
X174922116Y-133219113D01*
X175336446Y-132997649D01*
X175699609Y-132699609D01*
X175997649Y-132336446D01*
X176219113Y-131922116D01*
X176355490Y-131472542D01*
X176401539Y-131005000D01*
X176355490Y-130537458D01*
X176219113Y-130087884D01*
X175997649Y-129673554D01*
X175699609Y-129310391D01*
X175336446Y-129012351D01*
X174922116Y-128790887D01*
X174472542Y-128654510D01*
X174122157Y-128620000D01*
X172587843Y-128620000D01*
X172237458Y-128654510D01*
X171787884Y-128790887D01*
X171373554Y-129012351D01*
X171010391Y-129310391D01*
X170712351Y-129673554D01*
X170490887Y-130087884D01*
X170354510Y-130537458D01*
X170308461Y-131005000D01*
X150570000Y-131005000D01*
X150570000Y-119125000D01*
X156973461Y-119125000D01*
X157019510Y-119592542D01*
X157155887Y-120042116D01*
X157377351Y-120456446D01*
X157675391Y-120819609D01*
X158038554Y-121117649D01*
X158452884Y-121339113D01*
X158902458Y-121475490D01*
X159252843Y-121510000D01*
X160787157Y-121510000D01*
X161137542Y-121475490D01*
X161587116Y-121339113D01*
X162001446Y-121117649D01*
X162364609Y-120819609D01*
X162662649Y-120456446D01*
X162884113Y-120042116D01*
X163020490Y-119592542D01*
X163066539Y-119125000D01*
X163020490Y-118657458D01*
X162884113Y-118207884D01*
X162662649Y-117793554D01*
X162364609Y-117430391D01*
X162001446Y-117132351D01*
X161587116Y-116910887D01*
X161137542Y-116774510D01*
X160787157Y-116740000D01*
X159252843Y-116740000D01*
X158902458Y-116774510D01*
X158452884Y-116910887D01*
X158038554Y-117132351D01*
X157675391Y-117430391D01*
X157377351Y-117793554D01*
X157155887Y-118207884D01*
X157019510Y-118657458D01*
X156973461Y-119125000D01*
X150570000Y-119125000D01*
X150570000Y-99325000D01*
X156973461Y-99325000D01*
X157019510Y-99792542D01*
X157155887Y-100242116D01*
X157377351Y-100656446D01*
X157675391Y-101019609D01*
X158023141Y-101305000D01*
X157675391Y-101590391D01*
X157377351Y-101953554D01*
X157155887Y-102367884D01*
X157019510Y-102817458D01*
X156973461Y-103285000D01*
X157019510Y-103752542D01*
X157155887Y-104202116D01*
X157377351Y-104616446D01*
X157675391Y-104979609D01*
X158023141Y-105265000D01*
X157675391Y-105550391D01*
X157377351Y-105913554D01*
X157155887Y-106327884D01*
X157019510Y-106777458D01*
X156973461Y-107245000D01*
X157019510Y-107712542D01*
X157155887Y-108162116D01*
X157377351Y-108576446D01*
X157675391Y-108939609D01*
X158038554Y-109237649D01*
X158452884Y-109459113D01*
X158902458Y-109595490D01*
X159252843Y-109630000D01*
X160787157Y-109630000D01*
X161137542Y-109595490D01*
X161587116Y-109459113D01*
X162001446Y-109237649D01*
X162364609Y-108939609D01*
X162662649Y-108576446D01*
X162884113Y-108162116D01*
X163020490Y-107712542D01*
X163066539Y-107245000D01*
X170308461Y-107245000D01*
X170354510Y-107712542D01*
X170490887Y-108162116D01*
X170712351Y-108576446D01*
X171010391Y-108939609D01*
X171358141Y-109225000D01*
X171010391Y-109510391D01*
X170712351Y-109873554D01*
X170490887Y-110287884D01*
X170354510Y-110737458D01*
X170308461Y-111205000D01*
X170354510Y-111672542D01*
X170490887Y-112122116D01*
X170712351Y-112536446D01*
X171010391Y-112899609D01*
X171358141Y-113185000D01*
X171010391Y-113470391D01*
X170712351Y-113833554D01*
X170490887Y-114247884D01*
X170354510Y-114697458D01*
X170308461Y-115165000D01*
X170354510Y-115632542D01*
X170490887Y-116082116D01*
X170712351Y-116496446D01*
X171010391Y-116859609D01*
X171373554Y-117157649D01*
X171787884Y-117379113D01*
X172237458Y-117515490D01*
X172587843Y-117550000D01*
X174122157Y-117550000D01*
X174472542Y-117515490D01*
X174922116Y-117379113D01*
X175336446Y-117157649D01*
X175699609Y-116859609D01*
X175997649Y-116496446D01*
X176219113Y-116082116D01*
X176355490Y-115632542D01*
X176401539Y-115165000D01*
X176355490Y-114697458D01*
X176219113Y-114247884D01*
X175997649Y-113833554D01*
X175699609Y-113470391D01*
X175351859Y-113185000D01*
X175699609Y-112899609D01*
X175997649Y-112536446D01*
X176219113Y-112122116D01*
X176355490Y-111672542D01*
X176401539Y-111205000D01*
X176355490Y-110737458D01*
X176219113Y-110287884D01*
X175997649Y-109873554D01*
X175699609Y-109510391D01*
X175351859Y-109225000D01*
X175699609Y-108939609D01*
X175997649Y-108576446D01*
X176219113Y-108162116D01*
X176355490Y-107712542D01*
X176401539Y-107245000D01*
X176355490Y-106777458D01*
X176219113Y-106327884D01*
X175997649Y-105913554D01*
X175699609Y-105550391D01*
X175336446Y-105252351D01*
X174922116Y-105030887D01*
X174472542Y-104894510D01*
X174122157Y-104860000D01*
X172587843Y-104860000D01*
X172237458Y-104894510D01*
X171787884Y-105030887D01*
X171373554Y-105252351D01*
X171010391Y-105550391D01*
X170712351Y-105913554D01*
X170490887Y-106327884D01*
X170354510Y-106777458D01*
X170308461Y-107245000D01*
X163066539Y-107245000D01*
X163020490Y-106777458D01*
X162884113Y-106327884D01*
X162662649Y-105913554D01*
X162364609Y-105550391D01*
X162016859Y-105265000D01*
X162364609Y-104979609D01*
X162662649Y-104616446D01*
X162884113Y-104202116D01*
X163020490Y-103752542D01*
X163066539Y-103285000D01*
X163020490Y-102817458D01*
X162884113Y-102367884D01*
X162662649Y-101953554D01*
X162364609Y-101590391D01*
X162016859Y-101305000D01*
X162364609Y-101019609D01*
X162662649Y-100656446D01*
X162884113Y-100242116D01*
X163020490Y-99792542D01*
X163066539Y-99325000D01*
X163020490Y-98857458D01*
X162884113Y-98407884D01*
X162662649Y-97993554D01*
X162364609Y-97630391D01*
X162001446Y-97332351D01*
X161587116Y-97110887D01*
X161137542Y-96974510D01*
X160787157Y-96940000D01*
X159252843Y-96940000D01*
X158902458Y-96974510D01*
X158452884Y-97110887D01*
X158038554Y-97332351D01*
X157675391Y-97630391D01*
X157377351Y-97993554D01*
X157155887Y-98407884D01*
X157019510Y-98857458D01*
X156973461Y-99325000D01*
X150570000Y-99325000D01*
X150570000Y-91405000D01*
X170308461Y-91405000D01*
X170354510Y-91872542D01*
X170490887Y-92322116D01*
X170712351Y-92736446D01*
X171010391Y-93099609D01*
X171358141Y-93385000D01*
X171010391Y-93670391D01*
X170712351Y-94033554D01*
X170490887Y-94447884D01*
X170354510Y-94897458D01*
X170308461Y-95365000D01*
X170354510Y-95832542D01*
X170490887Y-96282116D01*
X170712351Y-96696446D01*
X171010391Y-97059609D01*
X171358141Y-97345000D01*
X171010391Y-97630391D01*
X170712351Y-97993554D01*
X170490887Y-98407884D01*
X170354510Y-98857458D01*
X170308461Y-99325000D01*
X170354510Y-99792542D01*
X170490887Y-100242116D01*
X170712351Y-100656446D01*
X171010391Y-101019609D01*
X171373554Y-101317649D01*
X171787884Y-101539113D01*
X172237458Y-101675490D01*
X172587843Y-101710000D01*
X174122157Y-101710000D01*
X174472542Y-101675490D01*
X174922116Y-101539113D01*
X175336446Y-101317649D01*
X175699609Y-101019609D01*
X175997649Y-100656446D01*
X176219113Y-100242116D01*
X176355490Y-99792542D01*
X176401539Y-99325000D01*
X176355490Y-98857458D01*
X176219113Y-98407884D01*
X175997649Y-97993554D01*
X175699609Y-97630391D01*
X175351859Y-97345000D01*
X175699609Y-97059609D01*
X175997649Y-96696446D01*
X176219113Y-96282116D01*
X176355490Y-95832542D01*
X176401539Y-95365000D01*
X176355490Y-94897458D01*
X176219113Y-94447884D01*
X175997649Y-94033554D01*
X175699609Y-93670391D01*
X175351859Y-93385000D01*
X175699609Y-93099609D01*
X175997649Y-92736446D01*
X176219113Y-92322116D01*
X176355490Y-91872542D01*
X176401539Y-91405000D01*
X176355490Y-90937458D01*
X176219113Y-90487884D01*
X175997649Y-90073554D01*
X175699609Y-89710391D01*
X175336446Y-89412351D01*
X174922116Y-89190887D01*
X174472542Y-89054510D01*
X174122157Y-89020000D01*
X172587843Y-89020000D01*
X172237458Y-89054510D01*
X171787884Y-89190887D01*
X171373554Y-89412351D01*
X171010391Y-89710391D01*
X170712351Y-90073554D01*
X170490887Y-90487884D01*
X170354510Y-90937458D01*
X170308461Y-91405000D01*
X150570000Y-91405000D01*
X150570000Y-75565000D01*
X170308461Y-75565000D01*
X170354510Y-76032542D01*
X170490887Y-76482116D01*
X170712351Y-76896446D01*
X171010391Y-77259609D01*
X171358141Y-77545000D01*
X171010391Y-77830391D01*
X170712351Y-78193554D01*
X170490887Y-78607884D01*
X170354510Y-79057458D01*
X170308461Y-79525000D01*
X170354510Y-79992542D01*
X170490887Y-80442116D01*
X170712351Y-80856446D01*
X171010391Y-81219609D01*
X171373554Y-81517649D01*
X171787884Y-81739113D01*
X172237458Y-81875490D01*
X172587843Y-81910000D01*
X174122157Y-81910000D01*
X174472542Y-81875490D01*
X174922116Y-81739113D01*
X175336446Y-81517649D01*
X175699609Y-81219609D01*
X175997649Y-80856446D01*
X176219113Y-80442116D01*
X176355490Y-79992542D01*
X176401539Y-79525000D01*
X176355490Y-79057458D01*
X176219113Y-78607884D01*
X175997649Y-78193554D01*
X175699609Y-77830391D01*
X175351859Y-77545000D01*
X175699609Y-77259609D01*
X175997649Y-76896446D01*
X176219113Y-76482116D01*
X176355490Y-76032542D01*
X176401539Y-75565000D01*
X176355490Y-75097458D01*
X176219113Y-74647884D01*
X175997649Y-74233554D01*
X175699609Y-73870391D01*
X175336446Y-73572351D01*
X174922116Y-73350887D01*
X174472542Y-73214510D01*
X174122157Y-73180000D01*
X172587843Y-73180000D01*
X172237458Y-73214510D01*
X171787884Y-73350887D01*
X171373554Y-73572351D01*
X171010391Y-73870391D01*
X170712351Y-74233554D01*
X170490887Y-74647884D01*
X170354510Y-75097458D01*
X170308461Y-75565000D01*
X150570000Y-75565000D01*
X150570000Y-64135000D01*
X171442815Y-64135000D01*
X171471487Y-64426111D01*
X171556401Y-64706034D01*
X171694294Y-64964014D01*
X171879866Y-65190134D01*
X172105986Y-65375706D01*
X172363966Y-65513599D01*
X172643889Y-65598513D01*
X172862050Y-65620000D01*
X173847950Y-65620000D01*
X174066111Y-65598513D01*
X174346034Y-65513599D01*
X174604014Y-65375706D01*
X174830134Y-65190134D01*
X175015706Y-64964014D01*
X175153599Y-64706034D01*
X175238513Y-64426111D01*
X175267185Y-64135000D01*
X175238513Y-63843889D01*
X175153599Y-63563966D01*
X175015706Y-63305986D01*
X174830134Y-63079866D01*
X174604014Y-62894294D01*
X174346034Y-62756401D01*
X174066111Y-62671487D01*
X173847950Y-62650000D01*
X172862050Y-62650000D01*
X172643889Y-62671487D01*
X172363966Y-62756401D01*
X172105986Y-62894294D01*
X171879866Y-63079866D01*
X171694294Y-63305986D01*
X171556401Y-63563966D01*
X171471487Y-63843889D01*
X171442815Y-64135000D01*
X150570000Y-64135000D01*
X150570000Y-49564720D01*
X150584005Y-49421891D01*
X150615402Y-49317899D01*
X150666399Y-49221986D01*
X150735055Y-49137806D01*
X150818758Y-49068560D01*
X150914311Y-49016895D01*
X151018078Y-48984773D01*
X151158641Y-48970000D01*
X165608000Y-48970000D01*
X165608000Y-58420000D01*
G37*
%TD.AperFunction*%
%TD*%
M02*
