%TF.GenerationSoftware,KiCad,Pcbnew,(5.1.9)-1*%
%TF.CreationDate,2021-05-18T19:43:41+08:00*%
%TF.ProjectId,Tandy1000PowerGeneric,54616e64-7931-4303-9030-506f77657247,rev?*%
%TF.SameCoordinates,Original*%
%TF.FileFunction,Copper,L1,Top*%
%TF.FilePolarity,Positive*%
%FSLAX46Y46*%
G04 Gerber Fmt 4.6, Leading zero omitted, Abs format (unit mm)*
G04 Created by KiCad (PCBNEW (5.1.9)-1) date 2021-05-18 19:43:41*
%MOMM*%
%LPD*%
G01*
G04 APERTURE LIST*
%TA.AperFunction,ComponentPad*%
%ADD10O,2.540000X1.700000*%
%TD*%
%TA.AperFunction,ComponentPad*%
%ADD11O,4.800000X3.500000*%
%TD*%
%TA.AperFunction,ComponentPad*%
%ADD12C,7.400000*%
%TD*%
%TA.AperFunction,Conductor*%
%ADD13C,3.500000*%
%TD*%
%TA.AperFunction,Conductor*%
%ADD14C,1.700000*%
%TD*%
G04 APERTURE END LIST*
D10*
%TO.P,J3,1*%
%TO.N,+12V*%
X173355000Y-64135000D03*
%TO.P,J3,2*%
%TO.N,GND*%
X173355000Y-66675000D03*
%TD*%
D11*
%TO.P,J2,15*%
%TO.N,-12V*%
X173355000Y-131005000D03*
%TO.P,J2,14*%
%TO.N,GND*%
X173355000Y-127045000D03*
%TO.P,J2,13*%
X173355000Y-123085000D03*
%TO.P,J2,12*%
X173355000Y-119125000D03*
%TO.P,J2,11*%
%TO.N,+5V*%
X173355000Y-115165000D03*
%TO.P,J2,10*%
X173355000Y-111205000D03*
%TO.P,J2,9*%
X173355000Y-107245000D03*
%TO.P,J2,8*%
%TO.N,GND*%
X173355000Y-103285000D03*
%TO.P,J2,7*%
%TO.N,+12V*%
X173355000Y-99325000D03*
%TO.P,J2,6*%
%TO.N,Net-(J2-Pad6)*%
X173355000Y-95365000D03*
%TO.P,J2,5*%
%TO.N,+12V*%
X173355000Y-91405000D03*
%TO.P,J2,4*%
%TO.N,GND*%
X173355000Y-87445000D03*
%TO.P,J2,3*%
X173355000Y-83485000D03*
%TO.P,J2,2*%
%TO.N,+5V*%
X173355000Y-79525000D03*
%TO.P,J2,1*%
%TO.N,Net-(J2-Pad1)*%
X173355000Y-75565000D03*
%TD*%
%TO.P,J1,6*%
%TO.N,-12V*%
X160020000Y-119125000D03*
%TO.P,J1,5*%
%TO.N,GND*%
X160020000Y-115165000D03*
%TO.P,J1,4*%
X160020000Y-111205000D03*
%TO.P,J1,3*%
%TO.N,+5V*%
X160020000Y-107245000D03*
%TO.P,J1,2*%
X160020000Y-103285000D03*
%TO.P,J1,1*%
%TO.N,+12V*%
X160020000Y-99325000D03*
%TD*%
D12*
%TO.P,H2,1*%
%TO.N,GND*%
X173355000Y-139680000D03*
%TD*%
%TO.P,H1,1*%
%TO.N,Net-(H1-Pad1)*%
X173355000Y-54630000D03*
%TD*%
D13*
%TO.N,-12V*%
X168787500Y-131005000D02*
X173355000Y-131005000D01*
X160020000Y-122237500D02*
X168787500Y-131005000D01*
X160020000Y-119125000D02*
X160020000Y-122237500D01*
%TO.N,+5V*%
X173355000Y-79525000D02*
X175829873Y-79525000D01*
X179855000Y-79525000D02*
X173355000Y-79525000D01*
X180340000Y-80010000D02*
X179855000Y-79525000D01*
X180340000Y-106680000D02*
X180340000Y-80010000D01*
X179705000Y-107315000D02*
X180340000Y-106680000D01*
X173355000Y-107245000D02*
X179705000Y-107315000D01*
X173355000Y-107245000D02*
X173355000Y-111205000D01*
X173355000Y-111205000D02*
X173355000Y-115165000D01*
X173355000Y-115165000D02*
X179475000Y-115165000D01*
X179475000Y-115165000D02*
X180340000Y-114300000D01*
X179785000Y-111205000D02*
X180340000Y-111760000D01*
X173355000Y-111205000D02*
X179785000Y-111205000D01*
X180340000Y-111760000D02*
X180340000Y-106680000D01*
X180340000Y-114300000D02*
X180340000Y-111760000D01*
X173355000Y-107245000D02*
X177315000Y-111205000D01*
X177315000Y-111205000D02*
X179785000Y-111205000D01*
X173355000Y-115165000D02*
X177315000Y-111205000D01*
X180340000Y-114230000D02*
X177315000Y-111205000D01*
X180340000Y-114300000D02*
X180340000Y-114230000D01*
X180340000Y-108180000D02*
X177315000Y-111205000D01*
X180340000Y-106680000D02*
X180340000Y-108180000D01*
X160020000Y-107245000D02*
X163125000Y-107245000D01*
X162490000Y-107245000D02*
X160020000Y-107245000D01*
X170410000Y-115165000D02*
X162490000Y-107245000D01*
X173355000Y-115165000D02*
X170410000Y-115165000D01*
X170550000Y-107245000D02*
X173355000Y-107245000D01*
X166590000Y-103285000D02*
X170550000Y-107245000D01*
X160020000Y-103285000D02*
X166590000Y-103285000D01*
X159605000Y-106830000D02*
X160020000Y-107245000D01*
X159385000Y-103285000D02*
X159385000Y-106830000D01*
X160020000Y-103285000D02*
X159605000Y-103285000D01*
X160020000Y-107245000D02*
X161855000Y-105410000D01*
X161855000Y-105410000D02*
X165735000Y-105410000D01*
X172165000Y-111205000D02*
X168205000Y-107245000D01*
X168205000Y-107245000D02*
X173355000Y-107245000D01*
X173355000Y-111205000D02*
X172165000Y-111205000D01*
X163125000Y-107245000D02*
X168205000Y-107245000D01*
X173355000Y-115165000D02*
X173355000Y-114935000D01*
X173355000Y-114935000D02*
X167640000Y-109220000D01*
X176600000Y-107245000D02*
X180340000Y-103505000D01*
X173355000Y-107245000D02*
X176600000Y-107245000D01*
X178752500Y-105092500D02*
X178602500Y-81747500D01*
X180340000Y-83185000D02*
X180340000Y-85090000D01*
X176680000Y-79525000D02*
X180340000Y-83185000D01*
X173355000Y-79525000D02*
X176680000Y-79525000D01*
X180340000Y-80010000D02*
X181239990Y-80909990D01*
X181239990Y-113400010D02*
X179475000Y-115165000D01*
X181239990Y-80909990D02*
X181239990Y-113400010D01*
D14*
%TO.N,+12V*%
X167640000Y-64135000D02*
X173355000Y-64135000D01*
D13*
X173355000Y-91405000D02*
X170980000Y-91405000D01*
X167640000Y-88065000D02*
X167640000Y-64135000D01*
X170980000Y-91405000D02*
X167640000Y-88065000D01*
X168275000Y-97790000D02*
X168275000Y-94110000D01*
X166435000Y-95950000D02*
X168657500Y-93727500D01*
X168275000Y-94110000D02*
X168657500Y-93727500D01*
X168657500Y-93727500D02*
X170980000Y-91405000D01*
X166435000Y-95950000D02*
X168275000Y-97790000D01*
X168657500Y-97102373D02*
X168657500Y-93727500D01*
X170880127Y-99325000D02*
X168657500Y-97102373D01*
X173355000Y-99325000D02*
X170880127Y-99325000D01*
X165735000Y-95250000D02*
X166435000Y-95950000D01*
X163195000Y-64135000D02*
X167640000Y-64135000D01*
X163195000Y-64135000D02*
X163195000Y-96520000D01*
X163195000Y-64770000D02*
X163195000Y-64135000D01*
X166300000Y-91405000D02*
X166000000Y-91705000D01*
X173355000Y-91405000D02*
X166300000Y-91405000D01*
D14*
X173355000Y-64135000D02*
X170180000Y-64135000D01*
X166000000Y-68315000D02*
X166000000Y-79005000D01*
X170180000Y-64135000D02*
X166000000Y-68315000D01*
D13*
X166000000Y-79005000D02*
X166000000Y-67575000D01*
X166000000Y-91705000D02*
X166000000Y-79005000D01*
X159385000Y-67945000D02*
X163195000Y-64135000D01*
X159385000Y-98690000D02*
X159385000Y-67945000D01*
X160020000Y-99325000D02*
X159385000Y-98690000D01*
X160020000Y-69850000D02*
X164147500Y-65722500D01*
X164147500Y-65722500D02*
X163195000Y-64770000D01*
X160020000Y-99325000D02*
X160020000Y-69850000D01*
X166000000Y-67575000D02*
X164147500Y-65722500D01*
X160390000Y-99325000D02*
X160020000Y-99325000D01*
X163195000Y-96520000D02*
X160390000Y-99325000D01*
X162242500Y-97472500D02*
X163195000Y-96520000D01*
X162612627Y-97102373D02*
X162242500Y-97472500D01*
X165100000Y-92605000D02*
X166000000Y-91705000D01*
X165100000Y-99060000D02*
X165100000Y-92605000D01*
X168657500Y-99060000D02*
X165100000Y-99060000D01*
X165100000Y-99060000D02*
X160612627Y-99060000D01*
X168922500Y-99325000D02*
X173355000Y-99325000D01*
X168657500Y-99060000D02*
X168922500Y-99325000D01*
%TD*%
M02*
