M48
; DRILL file {KiCad (5.1.9)-1} date 02/16/21 22:14:34
; FORMAT={-:-/ absolute / metric / decimal}
; #@! TF.CreationDate,2021-02-16T22:14:34+08:00
; #@! TF.GenerationSoftware,Kicad,Pcbnew,(5.1.9)-1
FMAT,2
METRIC
T1C0.400
T2C0.800
T3C1.000
T4C1.300
%
G90
G05
T1
X143.51Y-82.55
X143.51Y-90.17
X144.78Y-78.74
X144.78Y-91.44
X146.05Y-93.98
X146.05Y-95.25
X146.05Y-90.17
X151.13Y-58.42
X151.13Y-59.69
X151.13Y-77.47
X151.13Y-83.82
X151.13Y-120.65
X152.222Y-89.078
X152.222Y-91.262
X152.4Y-72.39
X152.4Y-78.74
X152.4Y-125.73
T2
X143.51Y-84.836
X143.51Y-94.996
X143.51Y-97.79
X143.51Y-100.33
X143.51Y-102.87
X143.51Y-105.41
X143.51Y-107.95
X143.51Y-110.49
X143.51Y-113.03
X143.51Y-115.57
X143.51Y-118.11
X146.05Y-58.42
X146.05Y-60.96
X146.05Y-63.5
X146.05Y-66.04
X146.05Y-68.58
X146.05Y-71.12
X146.05Y-73.66
X146.05Y-76.2
X146.05Y-97.79
X146.05Y-100.33
X146.05Y-102.87
X146.05Y-105.41
X146.05Y-107.95
X146.05Y-110.49
X146.05Y-113.03
X146.05Y-115.57
X146.05Y-118.11
X146.05Y-128.27
X146.05Y-130.81
X146.05Y-133.35
X146.05Y-135.89
X146.05Y-138.43
X146.05Y-140.97
X146.05Y-143.51
X148.59Y-87.63
X148.59Y-92.51
X151.13Y-97.79
X151.13Y-100.33
X151.13Y-102.87
X151.13Y-105.41
X151.13Y-107.95
X151.13Y-110.49
X151.13Y-113.03
X151.13Y-115.57
X151.13Y-118.11
X153.67Y-58.42
X153.67Y-60.96
X153.67Y-63.5
X153.67Y-66.04
X153.67Y-68.58
X153.67Y-71.12
X153.67Y-73.66
X153.67Y-76.2
X153.67Y-84.836
X153.67Y-94.996
X153.67Y-97.79
X153.67Y-100.33
X153.67Y-102.87
X153.67Y-105.41
X153.67Y-107.95
X153.67Y-110.49
X153.67Y-113.03
X153.67Y-115.57
X153.67Y-118.11
X153.67Y-128.27
X153.67Y-130.81
X153.67Y-133.35
X153.67Y-135.89
X153.67Y-138.43
X153.67Y-140.97
X153.67Y-143.51
T3
X144.272Y-148.59
X147.4Y-53.848
X147.4Y-80.772
X147.4Y-123.19
X152.4Y-53.848
X152.4Y-80.772
X152.4Y-123.19
T4
X148.082Y-148.59
X153.162Y-148.59
T0
M30
