%TF.GenerationSoftware,KiCad,Pcbnew,(5.1.9)-1*%
%TF.CreationDate,2021-02-16T22:14:15+08:00*%
%TF.ProjectId,DaveJonesTandy1000Turbo,44617665-4a6f-46e6-9573-54616e647931,rev?*%
%TF.SameCoordinates,Original*%
%TF.FileFunction,Soldermask,Top*%
%TF.FilePolarity,Negative*%
%FSLAX46Y46*%
G04 Gerber Fmt 4.6, Leading zero omitted, Abs format (unit mm)*
G04 Created by KiCad (PCBNEW (5.1.9)-1) date 2021-02-16 22:14:15*
%MOMM*%
%LPD*%
G01*
G04 APERTURE LIST*
%ADD10O,1.600000X1.600000*%
%ADD11R,1.600000X1.600000*%
%ADD12C,1.600000*%
%ADD13C,1.500000*%
%ADD14C,2.600000*%
%ADD15C,2.000000*%
G04 APERTURE END LIST*
D10*
%TO.C,CN1*%
X151130000Y-97790000D03*
X143510000Y-118110000D03*
X151130000Y-100330000D03*
X143510000Y-115570000D03*
X151130000Y-102870000D03*
X143510000Y-113030000D03*
X151130000Y-105410000D03*
X143510000Y-110490000D03*
X151130000Y-107950000D03*
X143510000Y-107950000D03*
X151130000Y-110490000D03*
X143510000Y-105410000D03*
X151130000Y-113030000D03*
X143510000Y-102870000D03*
X151130000Y-115570000D03*
X143510000Y-100330000D03*
X151130000Y-118110000D03*
D11*
X143510000Y-97790000D03*
%TD*%
D10*
%TO.C,R2*%
X153670000Y-94996000D03*
D12*
X153670000Y-84836000D03*
%TD*%
D10*
%TO.C,R1*%
X143510000Y-94996000D03*
D12*
X143510000Y-84836000D03*
%TD*%
D13*
%TO.C,Y1*%
X148590000Y-92510000D03*
X148590000Y-87630000D03*
%TD*%
D10*
%TO.C,U3*%
X153670000Y-97790000D03*
X146050000Y-118110000D03*
X153670000Y-100330000D03*
X146050000Y-115570000D03*
X153670000Y-102870000D03*
X146050000Y-113030000D03*
X153670000Y-105410000D03*
X146050000Y-110490000D03*
X153670000Y-107950000D03*
X146050000Y-107950000D03*
X153670000Y-110490000D03*
X146050000Y-105410000D03*
X153670000Y-113030000D03*
X146050000Y-102870000D03*
X153670000Y-115570000D03*
X146050000Y-100330000D03*
X153670000Y-118110000D03*
D11*
X146050000Y-97790000D03*
%TD*%
D10*
%TO.C,U2*%
X153670000Y-128270000D03*
X146050000Y-143510000D03*
X153670000Y-130810000D03*
X146050000Y-140970000D03*
X153670000Y-133350000D03*
X146050000Y-138430000D03*
X153670000Y-135890000D03*
X146050000Y-135890000D03*
X153670000Y-138430000D03*
X146050000Y-133350000D03*
X153670000Y-140970000D03*
X146050000Y-130810000D03*
X153670000Y-143510000D03*
D11*
X146050000Y-128270000D03*
%TD*%
D10*
%TO.C,U1*%
X153670000Y-58420000D03*
X146050000Y-76200000D03*
X153670000Y-60960000D03*
X146050000Y-73660000D03*
X153670000Y-63500000D03*
X146050000Y-71120000D03*
X153670000Y-66040000D03*
X146050000Y-68580000D03*
X153670000Y-68580000D03*
X146050000Y-66040000D03*
X153670000Y-71120000D03*
X146050000Y-63500000D03*
X153670000Y-73660000D03*
X146050000Y-60960000D03*
X153670000Y-76200000D03*
D11*
X146050000Y-58420000D03*
%TD*%
D14*
%TO.C,SW1*%
X148082000Y-148590000D03*
G36*
G01*
X154462000Y-147940000D02*
X154462000Y-149240000D01*
G75*
G02*
X153812000Y-149890000I-650000J0D01*
G01*
X152512000Y-149890000D01*
G75*
G02*
X151862000Y-149240000I0J650000D01*
G01*
X151862000Y-147940000D01*
G75*
G02*
X152512000Y-147290000I650000J0D01*
G01*
X153812000Y-147290000D01*
G75*
G02*
X154462000Y-147940000I0J-650000D01*
G01*
G37*
%TD*%
D15*
%TO.C,J1*%
X144272000Y-148590000D03*
%TD*%
%TO.C,C3*%
X147400000Y-80772000D03*
X152400000Y-80772000D03*
%TD*%
%TO.C,C2*%
X147400000Y-123190000D03*
X152400000Y-123190000D03*
%TD*%
%TO.C,C1*%
X147400000Y-53848000D03*
X152400000Y-53848000D03*
%TD*%
M02*
