%TF.GenerationSoftware,KiCad,Pcbnew,(5.1.9)-1*%
%TF.CreationDate,2021-05-07T21:51:07+08:00*%
%TF.ProjectId,DaveJonesTandy1000Turbo,44617665-4a6f-46e6-9573-54616e647931,rev?*%
%TF.SameCoordinates,Original*%
%TF.FileFunction,Copper,L2,Bot*%
%TF.FilePolarity,Positive*%
%FSLAX46Y46*%
G04 Gerber Fmt 4.6, Leading zero omitted, Abs format (unit mm)*
G04 Created by KiCad (PCBNEW (5.1.9)-1) date 2021-05-07 21:51:07*
%MOMM*%
%LPD*%
G01*
G04 APERTURE LIST*
%TA.AperFunction,ComponentPad*%
%ADD10O,1.600000X1.600000*%
%TD*%
%TA.AperFunction,ComponentPad*%
%ADD11R,1.600000X1.600000*%
%TD*%
%TA.AperFunction,ComponentPad*%
%ADD12C,1.600000*%
%TD*%
%TA.AperFunction,ComponentPad*%
%ADD13C,1.500000*%
%TD*%
%TA.AperFunction,ComponentPad*%
%ADD14C,2.600000*%
%TD*%
%TA.AperFunction,ComponentPad*%
%ADD15C,2.000000*%
%TD*%
%TA.AperFunction,ViaPad*%
%ADD16C,0.800000*%
%TD*%
%TA.AperFunction,Conductor*%
%ADD17C,1.000000*%
%TD*%
%TA.AperFunction,Conductor*%
%ADD18C,0.500000*%
%TD*%
%TA.AperFunction,Conductor*%
%ADD19C,0.250000*%
%TD*%
%TA.AperFunction,Conductor*%
%ADD20C,0.254000*%
%TD*%
%TA.AperFunction,Conductor*%
%ADD21C,0.100000*%
%TD*%
G04 APERTURE END LIST*
D10*
%TO.P,CN1,18*%
%TO.N,VCC*%
X151130000Y-97790000D03*
%TO.P,CN1,9*%
%TO.N,GND*%
X143510000Y-118110000D03*
%TO.P,CN1,17*%
%TO.N,Net-(CN1-Pad17)*%
X151130000Y-100330000D03*
%TO.P,CN1,8*%
%TO.N,Net-(CN1-Pad8)*%
X143510000Y-115570000D03*
%TO.P,CN1,16*%
%TO.N,Net-(CN1-Pad16)*%
X151130000Y-102870000D03*
%TO.P,CN1,7*%
%TO.N,Net-(CN1-Pad7)*%
X143510000Y-113030000D03*
%TO.P,CN1,15*%
%TO.N,GND*%
X151130000Y-105410000D03*
%TO.P,CN1,6*%
%TO.N,Net-(CN1-Pad6)*%
X143510000Y-110490000D03*
%TO.P,CN1,14*%
%TO.N,Net-(CN1-Pad14)*%
X151130000Y-107950000D03*
%TO.P,CN1,5*%
%TO.N,Net-(CN1-Pad5)*%
X143510000Y-107950000D03*
%TO.P,CN1,13*%
%TO.N,Net-(CN1-Pad13)*%
X151130000Y-110490000D03*
%TO.P,CN1,4*%
%TO.N,GND*%
X143510000Y-105410000D03*
%TO.P,CN1,12*%
%TO.N,Net-(CN1-Pad12)*%
X151130000Y-113030000D03*
%TO.P,CN1,3*%
%TO.N,Net-(CN1-Pad3)*%
X143510000Y-102870000D03*
%TO.P,CN1,11*%
%TO.N,Net-(CN1-Pad11)*%
X151130000Y-115570000D03*
%TO.P,CN1,2*%
%TO.N,Net-(CN1-Pad2)*%
X143510000Y-100330000D03*
%TO.P,CN1,10*%
%TO.N,Net-(CN1-Pad10)*%
X151130000Y-118110000D03*
D11*
%TO.P,CN1,1*%
%TO.N,GND*%
X143510000Y-97790000D03*
%TD*%
D10*
%TO.P,R2,2*%
%TO.N,Net-(R2-Pad2)*%
X153670000Y-94996000D03*
D12*
%TO.P,R2,1*%
%TO.N,GND*%
X153670000Y-84836000D03*
%TD*%
D10*
%TO.P,R1,2*%
%TO.N,Net-(R1-Pad2)*%
X143510000Y-94996000D03*
D12*
%TO.P,R1,1*%
%TO.N,GND*%
X143510000Y-84836000D03*
%TD*%
D13*
%TO.P,Y1,2*%
%TO.N,Net-(R1-Pad2)*%
X148590000Y-92510000D03*
%TO.P,Y1,1*%
%TO.N,Net-(R2-Pad2)*%
X148590000Y-87630000D03*
%TD*%
D10*
%TO.P,U3,18*%
%TO.N,VCC*%
X153670000Y-97790000D03*
%TO.P,U3,9*%
%TO.N,GND*%
X146050000Y-118110000D03*
%TO.P,U3,17*%
%TO.N,Net-(R2-Pad2)*%
X153670000Y-100330000D03*
%TO.P,U3,8*%
%TO.N,Net-(CN1-Pad8)*%
X146050000Y-115570000D03*
%TO.P,U3,16*%
%TO.N,Net-(R1-Pad2)*%
X153670000Y-102870000D03*
%TO.P,U3,7*%
%TO.N,Net-(CN1-Pad7)*%
X146050000Y-113030000D03*
%TO.P,U3,15*%
%TO.N,GND*%
X153670000Y-105410000D03*
%TO.P,U3,6*%
%TO.N,Net-(CN1-Pad6)*%
X146050000Y-110490000D03*
%TO.P,U3,14*%
%TO.N,Net-(CN1-Pad14)*%
X153670000Y-107950000D03*
%TO.P,U3,5*%
%TO.N,Net-(CN1-Pad5)*%
X146050000Y-107950000D03*
%TO.P,U3,13*%
%TO.N,Net-(CN1-Pad13)*%
X153670000Y-110490000D03*
%TO.P,U3,4*%
%TO.N,GND*%
X146050000Y-105410000D03*
%TO.P,U3,12*%
%TO.N,Net-(CN1-Pad12)*%
X153670000Y-113030000D03*
%TO.P,U3,3*%
%TO.N,Net-(CN1-Pad3)*%
X146050000Y-102870000D03*
%TO.P,U3,11*%
%TO.N,Net-(CN1-Pad11)*%
X153670000Y-115570000D03*
%TO.P,U3,2*%
%TO.N,Net-(U3-Pad2)*%
X146050000Y-100330000D03*
%TO.P,U3,10*%
%TO.N,Net-(CN1-Pad10)*%
X153670000Y-118110000D03*
D11*
%TO.P,U3,1*%
%TO.N,GND*%
X146050000Y-97790000D03*
%TD*%
D10*
%TO.P,U2,14*%
%TO.N,VCC*%
X153670000Y-128270000D03*
%TO.P,U2,7*%
%TO.N,GND*%
X146050000Y-143510000D03*
%TO.P,U2,13*%
X153670000Y-130810000D03*
%TO.P,U2,6*%
%TO.N,Net-(U2-Pad6)*%
X146050000Y-140970000D03*
%TO.P,U2,12*%
%TO.N,GND*%
X153670000Y-133350000D03*
%TO.P,U2,5*%
X146050000Y-138430000D03*
%TO.P,U2,11*%
%TO.N,Net-(U2-Pad11)*%
X153670000Y-135890000D03*
%TO.P,U2,4*%
%TO.N,GND*%
X146050000Y-135890000D03*
%TO.P,U2,10*%
X153670000Y-138430000D03*
%TO.P,U2,3*%
%TO.N,Net-(J1-Pad1)*%
X146050000Y-133350000D03*
%TO.P,U2,9*%
%TO.N,GND*%
X153670000Y-140970000D03*
%TO.P,U2,2*%
%TO.N,Net-(U1-Pad2)*%
X146050000Y-130810000D03*
%TO.P,U2,8*%
%TO.N,Net-(U2-Pad8)*%
X153670000Y-143510000D03*
D11*
%TO.P,U2,1*%
%TO.N,Net-(U1-Pad12)*%
X146050000Y-128270000D03*
%TD*%
D10*
%TO.P,U1,16*%
%TO.N,VCC*%
X153670000Y-58420000D03*
%TO.P,U1,8*%
%TO.N,GND*%
X146050000Y-76200000D03*
%TO.P,U1,15*%
%TO.N,Net-(U1-Pad15)*%
X153670000Y-60960000D03*
%TO.P,U1,7*%
%TO.N,Net-(U1-Pad12)*%
X146050000Y-73660000D03*
%TO.P,U1,14*%
%TO.N,Net-(U1-Pad14)*%
X153670000Y-63500000D03*
%TO.P,U1,6*%
%TO.N,Net-(U1-Pad6)*%
X146050000Y-71120000D03*
%TO.P,U1,13*%
%TO.N,GND*%
X153670000Y-66040000D03*
%TO.P,U1,5*%
%TO.N,Net-(U1-Pad2)*%
X146050000Y-68580000D03*
%TO.P,U1,12*%
%TO.N,Net-(U1-Pad12)*%
X153670000Y-68580000D03*
%TO.P,U1,4*%
%TO.N,Net-(U1-Pad11)*%
X146050000Y-66040000D03*
%TO.P,U1,11*%
X153670000Y-71120000D03*
%TO.P,U1,3*%
%TO.N,Net-(U1-Pad3)*%
X146050000Y-63500000D03*
%TO.P,U1,10*%
%TO.N,Net-(CN1-Pad2)*%
X153670000Y-73660000D03*
%TO.P,U1,2*%
%TO.N,Net-(U1-Pad2)*%
X146050000Y-60960000D03*
%TO.P,U1,9*%
%TO.N,Net-(CN1-Pad14)*%
X153670000Y-76200000D03*
D11*
%TO.P,U1,1*%
%TO.N,VCC*%
X146050000Y-58420000D03*
%TD*%
D14*
%TO.P,SW1,2*%
%TO.N,GND*%
X148082000Y-148590000D03*
%TO.P,SW1,1*%
%TO.N,Net-(CN1-Pad13)*%
%TA.AperFunction,ComponentPad*%
G36*
G01*
X154462000Y-147940000D02*
X154462000Y-149240000D01*
G75*
G02*
X153812000Y-149890000I-650000J0D01*
G01*
X152512000Y-149890000D01*
G75*
G02*
X151862000Y-149240000I0J650000D01*
G01*
X151862000Y-147940000D01*
G75*
G02*
X152512000Y-147290000I650000J0D01*
G01*
X153812000Y-147290000D01*
G75*
G02*
X154462000Y-147940000I0J-650000D01*
G01*
G37*
%TD.AperFunction*%
%TD*%
D15*
%TO.P,J1,1*%
%TO.N,Net-(J1-Pad1)*%
X144272000Y-148590000D03*
%TD*%
%TO.P,C3,2*%
%TO.N,GND*%
X147400000Y-80772000D03*
%TO.P,C3,1*%
%TO.N,VCC*%
X152400000Y-80772000D03*
%TD*%
%TO.P,C2,2*%
%TO.N,GND*%
X147400000Y-123190000D03*
%TO.P,C2,1*%
%TO.N,VCC*%
X152400000Y-123190000D03*
%TD*%
%TO.P,C1,2*%
%TO.N,GND*%
X147400000Y-53848000D03*
%TO.P,C1,1*%
%TO.N,VCC*%
X152400000Y-53848000D03*
%TD*%
D16*
%TO.N,VCC*%
X152400000Y-78740000D03*
X151130000Y-77470000D03*
X151130000Y-59690000D03*
X151130000Y-58420000D03*
X151130000Y-83820000D03*
%TO.N,Net-(CN1-Pad13)*%
X151130000Y-120650000D03*
X152400000Y-125730000D03*
%TO.N,Net-(CN1-Pad2)*%
X144780000Y-78740000D03*
X143510000Y-82550000D03*
X143510000Y-90170000D03*
%TO.N,Net-(R1-Pad2)*%
X152221827Y-91261827D03*
%TO.N,Net-(R2-Pad2)*%
X152221827Y-89078173D03*
%TO.N,Net-(U1-Pad12)*%
X152400000Y-72390000D03*
X146050000Y-93980000D03*
X146050008Y-90170000D03*
%TO.N,Net-(U1-Pad2)*%
X146050000Y-95250000D03*
X144780000Y-91440000D03*
%TD*%
D17*
%TO.N,GND*%
X146050000Y-97790000D02*
X143510000Y-97790000D01*
D18*
X143510000Y-105410000D02*
X146050000Y-105410000D01*
X151130000Y-105410000D02*
X153670000Y-105410000D01*
%TO.N,VCC*%
X152400000Y-53340000D02*
X152400000Y-55880000D01*
X152400000Y-55880000D02*
X153670000Y-57150000D01*
X153670000Y-57150000D02*
X153670000Y-58420000D01*
D17*
X151130000Y-77470000D02*
X152400000Y-78740000D01*
D18*
X153670000Y-58420000D02*
X151130000Y-58420000D01*
D17*
X151130000Y-58420000D02*
X151130000Y-77470000D01*
D18*
X153670000Y-124460000D02*
X153670000Y-128270000D01*
X152400000Y-123190000D02*
X153670000Y-124460000D01*
X152400000Y-82550000D02*
X151130000Y-83820000D01*
X152400000Y-78740000D02*
X152400000Y-82550000D01*
X151130000Y-57150000D02*
X151130000Y-58420000D01*
X152400000Y-55880000D02*
X151130000Y-57150000D01*
D19*
%TO.N,Net-(CN1-Pad8)*%
X143510000Y-115570000D02*
X146050000Y-115570000D01*
%TO.N,Net-(CN1-Pad7)*%
X146050000Y-113030000D02*
X143510000Y-113030000D01*
%TO.N,Net-(CN1-Pad6)*%
X143510000Y-110490000D02*
X146050000Y-110490000D01*
%TO.N,Net-(CN1-Pad14)*%
X153670000Y-107950000D02*
X151130000Y-107950000D01*
%TO.N,Net-(CN1-Pad5)*%
X146050000Y-107950000D02*
X143510000Y-107950000D01*
%TO.N,Net-(CN1-Pad13)*%
X151130000Y-110490000D02*
X153670000Y-110490000D01*
X150730001Y-121049999D02*
X150730001Y-124060001D01*
X151130000Y-120650000D02*
X150730001Y-121049999D01*
X150730001Y-124060001D02*
X152400000Y-125730000D01*
%TO.N,Net-(CN1-Pad12)*%
X151130000Y-113030000D02*
X153670000Y-113030000D01*
%TO.N,Net-(CN1-Pad3)*%
X143510000Y-102870000D02*
X146050000Y-102870000D01*
%TO.N,Net-(CN1-Pad11)*%
X153670000Y-115570000D02*
X151130000Y-115570000D01*
%TO.N,Net-(CN1-Pad2)*%
X144780000Y-81280000D02*
X143510000Y-82550000D01*
X144780000Y-78740000D02*
X144780000Y-81280000D01*
X144685001Y-99154999D02*
X143510000Y-100330000D01*
X143510000Y-92710000D02*
X144685001Y-93885001D01*
X143510000Y-90170000D02*
X143510000Y-92710000D01*
X147225001Y-96689999D02*
X147055002Y-96520000D01*
X147225001Y-98890001D02*
X147225001Y-96689999D01*
X146960003Y-99154999D02*
X147225001Y-98890001D01*
X144685001Y-99154999D02*
X146960003Y-99154999D01*
X145415000Y-96520000D02*
X144685001Y-95790001D01*
X147055002Y-96520000D02*
X145415000Y-96520000D01*
X144685001Y-93885001D02*
X144685001Y-95790001D01*
%TO.N,Net-(CN1-Pad10)*%
X151130000Y-118110000D02*
X153670000Y-118110000D01*
%TO.N,Net-(R1-Pad2)*%
X153670000Y-102870000D02*
X152400000Y-101600000D01*
X150660998Y-101600000D02*
X149860000Y-100799002D01*
X152400000Y-101600000D02*
X150660998Y-101600000D01*
X149860000Y-97320998D02*
X152400000Y-94780998D01*
X149860000Y-100799002D02*
X149860000Y-97320998D01*
X152400000Y-91440000D02*
X152221827Y-91261827D01*
X152400000Y-94780998D02*
X152400000Y-91440000D01*
%TO.N,Net-(R2-Pad2)*%
X153670000Y-90526346D02*
X152221827Y-89078173D01*
X153670000Y-95250000D02*
X153670000Y-90526346D01*
X152494999Y-96171001D02*
X153670000Y-94996000D01*
X152494999Y-99154999D02*
X152494999Y-96171001D01*
X153670000Y-100330000D02*
X152494999Y-99154999D01*
%TO.N,Net-(U1-Pad12)*%
X152400000Y-69850000D02*
X153670000Y-68580000D01*
X152400000Y-72390000D02*
X152400000Y-69850000D01*
X146050000Y-93980000D02*
X146050000Y-90170008D01*
X146050000Y-90170008D02*
X146050008Y-90170000D01*
%TO.N,Net-(U1-Pad2)*%
X145274999Y-94474999D02*
X145274999Y-93204999D01*
X146050000Y-95250000D02*
X145274999Y-94474999D01*
X145274999Y-93204999D02*
X145274999Y-91934999D01*
X145274999Y-91934999D02*
X144780000Y-91440000D01*
%TD*%
D20*
%TO.N,GND*%
X154280001Y-56505741D02*
X154265050Y-56493471D01*
X153285000Y-55513422D01*
X153285000Y-55223059D01*
X153442252Y-55117987D01*
X153669987Y-54890252D01*
X153848918Y-54622463D01*
X153972168Y-54324912D01*
X154035000Y-54009033D01*
X154035000Y-53686967D01*
X153972168Y-53371088D01*
X153848918Y-53073537D01*
X153669987Y-52805748D01*
X153442252Y-52578013D01*
X153174463Y-52399082D01*
X152876912Y-52275832D01*
X152561033Y-52213000D01*
X152238967Y-52213000D01*
X151923088Y-52275832D01*
X151625537Y-52399082D01*
X151357748Y-52578013D01*
X151130013Y-52805748D01*
X150951082Y-53073537D01*
X150827832Y-53371088D01*
X150765000Y-53686967D01*
X150765000Y-54009033D01*
X150827832Y-54324912D01*
X150951082Y-54622463D01*
X151130013Y-54890252D01*
X151357748Y-55117987D01*
X151515001Y-55223060D01*
X151515001Y-55513420D01*
X150534956Y-56493466D01*
X150501183Y-56521183D01*
X150390589Y-56655942D01*
X150308411Y-56809688D01*
X150273157Y-56925904D01*
X150257806Y-56976509D01*
X150257805Y-56976511D01*
X150245000Y-57106524D01*
X150245000Y-57106531D01*
X150240719Y-57150000D01*
X150245000Y-57193470D01*
X150245000Y-57709265D01*
X150181716Y-57786377D01*
X150076324Y-57983554D01*
X150011423Y-58197502D01*
X149995000Y-58364249D01*
X149995001Y-77414238D01*
X149989509Y-77470000D01*
X150011423Y-77692498D01*
X150076324Y-77906446D01*
X150092155Y-77936063D01*
X150181717Y-78103623D01*
X150323552Y-78276449D01*
X150366860Y-78311991D01*
X151477120Y-79422251D01*
X151357748Y-79502013D01*
X151130013Y-79729748D01*
X150951082Y-79997537D01*
X150827832Y-80295088D01*
X150765000Y-80610967D01*
X150765000Y-80933033D01*
X150827832Y-81248912D01*
X150951082Y-81546463D01*
X151130013Y-81814252D01*
X151357748Y-82041987D01*
X151515001Y-82147060D01*
X151515001Y-82183420D01*
X150884957Y-82813465D01*
X150828102Y-82824774D01*
X150639744Y-82902795D01*
X150470226Y-83016063D01*
X150326063Y-83160226D01*
X150212795Y-83329744D01*
X150134774Y-83518102D01*
X150095000Y-83718061D01*
X150095000Y-83921939D01*
X150134774Y-84121898D01*
X150212795Y-84310256D01*
X150326063Y-84479774D01*
X150470226Y-84623937D01*
X150639744Y-84737205D01*
X150828102Y-84815226D01*
X151028061Y-84855000D01*
X151231939Y-84855000D01*
X151431898Y-84815226D01*
X151620256Y-84737205D01*
X151789774Y-84623937D01*
X151933937Y-84479774D01*
X152047205Y-84310256D01*
X152125226Y-84121898D01*
X152136535Y-84065043D01*
X152995049Y-83206530D01*
X153028817Y-83178817D01*
X153082177Y-83113799D01*
X153139410Y-83044060D01*
X153139411Y-83044059D01*
X153221589Y-82890313D01*
X153272195Y-82723490D01*
X153285000Y-82593477D01*
X153285000Y-82593467D01*
X153289281Y-82550001D01*
X153285000Y-82506535D01*
X153285000Y-82147059D01*
X153442252Y-82041987D01*
X153669987Y-81814252D01*
X153848918Y-81546463D01*
X153972168Y-81248912D01*
X154035000Y-80933033D01*
X154035000Y-80610967D01*
X153972168Y-80295088D01*
X153848918Y-79997537D01*
X153669987Y-79729748D01*
X153442252Y-79502013D01*
X153313511Y-79415991D01*
X153348283Y-79373622D01*
X153453675Y-79176446D01*
X153518577Y-78962498D01*
X153540490Y-78739999D01*
X153518577Y-78517500D01*
X153453675Y-78303553D01*
X153348283Y-78106377D01*
X153241988Y-77976856D01*
X152265000Y-76999869D01*
X152265000Y-76492153D01*
X152290147Y-76618574D01*
X152398320Y-76879727D01*
X152555363Y-77114759D01*
X152755241Y-77314637D01*
X152990273Y-77471680D01*
X153251426Y-77579853D01*
X153528665Y-77635000D01*
X153811335Y-77635000D01*
X154088574Y-77579853D01*
X154280001Y-77500562D01*
X154280001Y-83537101D01*
X154156004Y-83478429D01*
X153881816Y-83409700D01*
X153599488Y-83395783D01*
X153319870Y-83437213D01*
X153053708Y-83532397D01*
X152928486Y-83599329D01*
X152856903Y-83843298D01*
X153670000Y-84656395D01*
X153684143Y-84642253D01*
X153863748Y-84821858D01*
X153849605Y-84836000D01*
X153863748Y-84850143D01*
X153684143Y-85029748D01*
X153670000Y-85015605D01*
X152856903Y-85828702D01*
X152928486Y-86072671D01*
X153183996Y-86193571D01*
X153458184Y-86262300D01*
X153740512Y-86276217D01*
X154020130Y-86234787D01*
X154280001Y-86141853D01*
X154280001Y-90071639D01*
X154233799Y-90015343D01*
X154210001Y-89986345D01*
X154181003Y-89962547D01*
X153256827Y-89038372D01*
X153256827Y-88976234D01*
X153217053Y-88776275D01*
X153139032Y-88587917D01*
X153025764Y-88418399D01*
X152881601Y-88274236D01*
X152712083Y-88160968D01*
X152523725Y-88082947D01*
X152323766Y-88043173D01*
X152119888Y-88043173D01*
X151919929Y-88082947D01*
X151731571Y-88160968D01*
X151562053Y-88274236D01*
X151417890Y-88418399D01*
X151304622Y-88587917D01*
X151226601Y-88776275D01*
X151186827Y-88976234D01*
X151186827Y-89180112D01*
X151226601Y-89380071D01*
X151304622Y-89568429D01*
X151417890Y-89737947D01*
X151562053Y-89882110D01*
X151731571Y-89995378D01*
X151919929Y-90073399D01*
X152119888Y-90113173D01*
X152182026Y-90113173D01*
X152295680Y-90226827D01*
X152119888Y-90226827D01*
X151919929Y-90266601D01*
X151731571Y-90344622D01*
X151562053Y-90457890D01*
X151417890Y-90602053D01*
X151304622Y-90771571D01*
X151226601Y-90959929D01*
X151186827Y-91159888D01*
X151186827Y-91363766D01*
X151226601Y-91563725D01*
X151304622Y-91752083D01*
X151417890Y-91921601D01*
X151562053Y-92065764D01*
X151640001Y-92117847D01*
X151640000Y-94466195D01*
X149348998Y-96757199D01*
X149320000Y-96780997D01*
X149296202Y-96809995D01*
X149296201Y-96809996D01*
X149225026Y-96896722D01*
X149154454Y-97028752D01*
X149129726Y-97110273D01*
X149116167Y-97154974D01*
X149110998Y-97172013D01*
X149096324Y-97320998D01*
X149100001Y-97358330D01*
X149100000Y-100761679D01*
X149096324Y-100799002D01*
X149100000Y-100836324D01*
X149100000Y-100836334D01*
X149110997Y-100947987D01*
X149137756Y-101036201D01*
X149154454Y-101091248D01*
X149225026Y-101223278D01*
X149264871Y-101271828D01*
X149319999Y-101339003D01*
X149349002Y-101362805D01*
X149985753Y-101999556D01*
X149858320Y-102190273D01*
X149750147Y-102451426D01*
X149695000Y-102728665D01*
X149695000Y-103011335D01*
X149750147Y-103288574D01*
X149858320Y-103549727D01*
X150015363Y-103784759D01*
X150215241Y-103984637D01*
X150450273Y-104141680D01*
X150460865Y-104146067D01*
X150274869Y-104257615D01*
X150066481Y-104446586D01*
X149898963Y-104672580D01*
X149778754Y-104926913D01*
X149738096Y-105060961D01*
X149860085Y-105283000D01*
X151003000Y-105283000D01*
X151003000Y-105263000D01*
X151257000Y-105263000D01*
X151257000Y-105283000D01*
X152399915Y-105283000D01*
X152400000Y-105282845D01*
X152400085Y-105283000D01*
X153543000Y-105283000D01*
X153543000Y-105263000D01*
X153797000Y-105263000D01*
X153797000Y-105283000D01*
X153817000Y-105283000D01*
X153817000Y-105537000D01*
X153797000Y-105537000D01*
X153797000Y-105557000D01*
X153543000Y-105557000D01*
X153543000Y-105537000D01*
X152400085Y-105537000D01*
X152400000Y-105537155D01*
X152399915Y-105537000D01*
X151257000Y-105537000D01*
X151257000Y-105557000D01*
X151003000Y-105557000D01*
X151003000Y-105537000D01*
X149860085Y-105537000D01*
X149738096Y-105759039D01*
X149778754Y-105893087D01*
X149898963Y-106147420D01*
X150066481Y-106373414D01*
X150274869Y-106562385D01*
X150460865Y-106673933D01*
X150450273Y-106678320D01*
X150215241Y-106835363D01*
X150015363Y-107035241D01*
X149858320Y-107270273D01*
X149750147Y-107531426D01*
X149695000Y-107808665D01*
X149695000Y-108091335D01*
X149750147Y-108368574D01*
X149858320Y-108629727D01*
X150015363Y-108864759D01*
X150215241Y-109064637D01*
X150447759Y-109220000D01*
X150215241Y-109375363D01*
X150015363Y-109575241D01*
X149858320Y-109810273D01*
X149750147Y-110071426D01*
X149695000Y-110348665D01*
X149695000Y-110631335D01*
X149750147Y-110908574D01*
X149858320Y-111169727D01*
X150015363Y-111404759D01*
X150215241Y-111604637D01*
X150447759Y-111760000D01*
X150215241Y-111915363D01*
X150015363Y-112115241D01*
X149858320Y-112350273D01*
X149750147Y-112611426D01*
X149695000Y-112888665D01*
X149695000Y-113171335D01*
X149750147Y-113448574D01*
X149858320Y-113709727D01*
X150015363Y-113944759D01*
X150215241Y-114144637D01*
X150447759Y-114300000D01*
X150215241Y-114455363D01*
X150015363Y-114655241D01*
X149858320Y-114890273D01*
X149750147Y-115151426D01*
X149695000Y-115428665D01*
X149695000Y-115711335D01*
X149750147Y-115988574D01*
X149858320Y-116249727D01*
X150015363Y-116484759D01*
X150215241Y-116684637D01*
X150447759Y-116840000D01*
X150215241Y-116995363D01*
X150015363Y-117195241D01*
X149858320Y-117430273D01*
X149750147Y-117691426D01*
X149695000Y-117968665D01*
X149695000Y-118251335D01*
X149750147Y-118528574D01*
X149858320Y-118789727D01*
X150015363Y-119024759D01*
X150215241Y-119224637D01*
X150450273Y-119381680D01*
X150711426Y-119489853D01*
X150988665Y-119545000D01*
X151271335Y-119545000D01*
X151548574Y-119489853D01*
X151809727Y-119381680D01*
X152044759Y-119224637D01*
X152244637Y-119024759D01*
X152348043Y-118870000D01*
X152451957Y-118870000D01*
X152555363Y-119024759D01*
X152755241Y-119224637D01*
X152990273Y-119381680D01*
X153251426Y-119489853D01*
X153528665Y-119545000D01*
X153811335Y-119545000D01*
X154088574Y-119489853D01*
X154280000Y-119410562D01*
X154280000Y-123815740D01*
X154265050Y-123803471D01*
X153998104Y-123536525D01*
X154035000Y-123351033D01*
X154035000Y-123028967D01*
X153972168Y-122713088D01*
X153848918Y-122415537D01*
X153669987Y-122147748D01*
X153442252Y-121920013D01*
X153174463Y-121741082D01*
X152876912Y-121617832D01*
X152561033Y-121555000D01*
X152238967Y-121555000D01*
X151923088Y-121617832D01*
X151625537Y-121741082D01*
X151490001Y-121831644D01*
X151490001Y-121621159D01*
X151620256Y-121567205D01*
X151789774Y-121453937D01*
X151933937Y-121309774D01*
X152047205Y-121140256D01*
X152125226Y-120951898D01*
X152165000Y-120751939D01*
X152165000Y-120548061D01*
X152125226Y-120348102D01*
X152047205Y-120159744D01*
X151933937Y-119990226D01*
X151789774Y-119846063D01*
X151620256Y-119732795D01*
X151431898Y-119654774D01*
X151231939Y-119615000D01*
X151028061Y-119615000D01*
X150828102Y-119654774D01*
X150639744Y-119732795D01*
X150470226Y-119846063D01*
X150326063Y-119990226D01*
X150212795Y-120159744D01*
X150134774Y-120348102D01*
X150095000Y-120548061D01*
X150095000Y-120625774D01*
X150082050Y-120650001D01*
X150024455Y-120757753D01*
X149980998Y-120901014D01*
X149970001Y-121012667D01*
X149970001Y-121012677D01*
X149966325Y-121049999D01*
X149970001Y-121087322D01*
X149970002Y-124022669D01*
X149966325Y-124060001D01*
X149980999Y-124208986D01*
X150024455Y-124352247D01*
X150095027Y-124484277D01*
X150166202Y-124571003D01*
X150190001Y-124600002D01*
X150218999Y-124623800D01*
X151365000Y-125769802D01*
X151365000Y-125831939D01*
X151404774Y-126031898D01*
X151482795Y-126220256D01*
X151596063Y-126389774D01*
X151740226Y-126533937D01*
X151909744Y-126647205D01*
X152098102Y-126725226D01*
X152298061Y-126765000D01*
X152501939Y-126765000D01*
X152701898Y-126725226D01*
X152785001Y-126690804D01*
X152785001Y-127135478D01*
X152755241Y-127155363D01*
X152555363Y-127355241D01*
X152398320Y-127590273D01*
X152290147Y-127851426D01*
X152235000Y-128128665D01*
X152235000Y-128411335D01*
X152290147Y-128688574D01*
X152398320Y-128949727D01*
X152555363Y-129184759D01*
X152755241Y-129384637D01*
X152990273Y-129541680D01*
X153000865Y-129546067D01*
X152814869Y-129657615D01*
X152606481Y-129846586D01*
X152438963Y-130072580D01*
X152318754Y-130326913D01*
X152278096Y-130460961D01*
X152400085Y-130683000D01*
X153543000Y-130683000D01*
X153543000Y-130663000D01*
X153797000Y-130663000D01*
X153797000Y-130683000D01*
X153817000Y-130683000D01*
X153817000Y-130937000D01*
X153797000Y-130937000D01*
X153797000Y-133223000D01*
X153817000Y-133223000D01*
X153817000Y-133477000D01*
X153797000Y-133477000D01*
X153797000Y-133497000D01*
X153543000Y-133497000D01*
X153543000Y-133477000D01*
X152400085Y-133477000D01*
X152278096Y-133699039D01*
X152318754Y-133833087D01*
X152438963Y-134087420D01*
X152606481Y-134313414D01*
X152814869Y-134502385D01*
X153000865Y-134613933D01*
X152990273Y-134618320D01*
X152755241Y-134775363D01*
X152555363Y-134975241D01*
X152398320Y-135210273D01*
X152290147Y-135471426D01*
X152235000Y-135748665D01*
X152235000Y-136031335D01*
X152290147Y-136308574D01*
X152398320Y-136569727D01*
X152555363Y-136804759D01*
X152755241Y-137004637D01*
X152990273Y-137161680D01*
X153000865Y-137166067D01*
X152814869Y-137277615D01*
X152606481Y-137466586D01*
X152438963Y-137692580D01*
X152318754Y-137946913D01*
X152278096Y-138080961D01*
X152400085Y-138303000D01*
X153543000Y-138303000D01*
X153543000Y-138283000D01*
X153797000Y-138283000D01*
X153797000Y-138303000D01*
X153817000Y-138303000D01*
X153817000Y-138557000D01*
X153797000Y-138557000D01*
X153797000Y-140843000D01*
X153817000Y-140843000D01*
X153817000Y-141097000D01*
X153797000Y-141097000D01*
X153797000Y-141117000D01*
X153543000Y-141117000D01*
X153543000Y-141097000D01*
X152400085Y-141097000D01*
X152278096Y-141319039D01*
X152318754Y-141453087D01*
X152438963Y-141707420D01*
X152606481Y-141933414D01*
X152814869Y-142122385D01*
X153000865Y-142233933D01*
X152990273Y-142238320D01*
X152755241Y-142395363D01*
X152555363Y-142595241D01*
X152398320Y-142830273D01*
X152290147Y-143091426D01*
X152235000Y-143368665D01*
X152235000Y-143651335D01*
X152290147Y-143928574D01*
X152398320Y-144189727D01*
X152555363Y-144424759D01*
X152755241Y-144624637D01*
X152990273Y-144781680D01*
X153251426Y-144889853D01*
X153528665Y-144945000D01*
X153811335Y-144945000D01*
X154088574Y-144889853D01*
X154280000Y-144810562D01*
X154280000Y-146742416D01*
X154063290Y-146676678D01*
X153812000Y-146651928D01*
X152512000Y-146651928D01*
X152260710Y-146676678D01*
X152019076Y-146749977D01*
X151796386Y-146869007D01*
X151601196Y-147029196D01*
X151441007Y-147224386D01*
X151321977Y-147447076D01*
X151248678Y-147688710D01*
X151223928Y-147940000D01*
X151223928Y-149240000D01*
X151248678Y-149491290D01*
X151321977Y-149732924D01*
X151376538Y-149835000D01*
X149506608Y-149835000D01*
X149431226Y-149759618D01*
X149726312Y-149627683D01*
X149897159Y-149286955D01*
X149998250Y-148919443D01*
X150025701Y-148539271D01*
X149978457Y-148161049D01*
X149858333Y-147799310D01*
X149726312Y-147552317D01*
X149431224Y-147420381D01*
X148261605Y-148590000D01*
X148275748Y-148604143D01*
X148096143Y-148783748D01*
X148082000Y-148769605D01*
X148067858Y-148783748D01*
X147888253Y-148604143D01*
X147902395Y-148590000D01*
X146732776Y-147420381D01*
X146437688Y-147552317D01*
X146266841Y-147893045D01*
X146165750Y-148260557D01*
X146138299Y-148640729D01*
X146185543Y-149018951D01*
X146305667Y-149380690D01*
X146437688Y-149627683D01*
X146732774Y-149759618D01*
X146657392Y-149835000D01*
X145339239Y-149835000D01*
X145541987Y-149632252D01*
X145720918Y-149364463D01*
X145844168Y-149066912D01*
X145907000Y-148751033D01*
X145907000Y-148428967D01*
X145844168Y-148113088D01*
X145720918Y-147815537D01*
X145541987Y-147547748D01*
X145314252Y-147320013D01*
X145195666Y-147240776D01*
X146912381Y-147240776D01*
X148082000Y-148410395D01*
X149251619Y-147240776D01*
X149119683Y-146945688D01*
X148778955Y-146774841D01*
X148411443Y-146673750D01*
X148031271Y-146646299D01*
X147653049Y-146693543D01*
X147291310Y-146813667D01*
X147044317Y-146945688D01*
X146912381Y-147240776D01*
X145195666Y-147240776D01*
X145046463Y-147141082D01*
X144748912Y-147017832D01*
X144433033Y-146955000D01*
X144110967Y-146955000D01*
X143795088Y-147017832D01*
X143497537Y-147141082D01*
X143229748Y-147320013D01*
X143002013Y-147547748D01*
X142900000Y-147700421D01*
X142900000Y-143859039D01*
X144658096Y-143859039D01*
X144698754Y-143993087D01*
X144818963Y-144247420D01*
X144986481Y-144473414D01*
X145194869Y-144662385D01*
X145436119Y-144807070D01*
X145700960Y-144901909D01*
X145923000Y-144780624D01*
X145923000Y-143637000D01*
X146177000Y-143637000D01*
X146177000Y-144780624D01*
X146399040Y-144901909D01*
X146663881Y-144807070D01*
X146905131Y-144662385D01*
X147113519Y-144473414D01*
X147281037Y-144247420D01*
X147401246Y-143993087D01*
X147441904Y-143859039D01*
X147319915Y-143637000D01*
X146177000Y-143637000D01*
X145923000Y-143637000D01*
X144780085Y-143637000D01*
X144658096Y-143859039D01*
X142900000Y-143859039D01*
X142900000Y-140828665D01*
X144615000Y-140828665D01*
X144615000Y-141111335D01*
X144670147Y-141388574D01*
X144778320Y-141649727D01*
X144935363Y-141884759D01*
X145135241Y-142084637D01*
X145370273Y-142241680D01*
X145380865Y-142246067D01*
X145194869Y-142357615D01*
X144986481Y-142546586D01*
X144818963Y-142772580D01*
X144698754Y-143026913D01*
X144658096Y-143160961D01*
X144780085Y-143383000D01*
X145923000Y-143383000D01*
X145923000Y-143363000D01*
X146177000Y-143363000D01*
X146177000Y-143383000D01*
X147319915Y-143383000D01*
X147441904Y-143160961D01*
X147401246Y-143026913D01*
X147281037Y-142772580D01*
X147113519Y-142546586D01*
X146905131Y-142357615D01*
X146719135Y-142246067D01*
X146729727Y-142241680D01*
X146964759Y-142084637D01*
X147164637Y-141884759D01*
X147321680Y-141649727D01*
X147429853Y-141388574D01*
X147485000Y-141111335D01*
X147485000Y-140828665D01*
X147429853Y-140551426D01*
X147321680Y-140290273D01*
X147164637Y-140055241D01*
X146964759Y-139855363D01*
X146729727Y-139698320D01*
X146719135Y-139693933D01*
X146905131Y-139582385D01*
X147113519Y-139393414D01*
X147281037Y-139167420D01*
X147401246Y-138913087D01*
X147441904Y-138779039D01*
X152278096Y-138779039D01*
X152318754Y-138913087D01*
X152438963Y-139167420D01*
X152606481Y-139393414D01*
X152814869Y-139582385D01*
X153010982Y-139700000D01*
X152814869Y-139817615D01*
X152606481Y-140006586D01*
X152438963Y-140232580D01*
X152318754Y-140486913D01*
X152278096Y-140620961D01*
X152400085Y-140843000D01*
X153543000Y-140843000D01*
X153543000Y-138557000D01*
X152400085Y-138557000D01*
X152278096Y-138779039D01*
X147441904Y-138779039D01*
X147319915Y-138557000D01*
X146177000Y-138557000D01*
X146177000Y-138577000D01*
X145923000Y-138577000D01*
X145923000Y-138557000D01*
X144780085Y-138557000D01*
X144658096Y-138779039D01*
X144698754Y-138913087D01*
X144818963Y-139167420D01*
X144986481Y-139393414D01*
X145194869Y-139582385D01*
X145380865Y-139693933D01*
X145370273Y-139698320D01*
X145135241Y-139855363D01*
X144935363Y-140055241D01*
X144778320Y-140290273D01*
X144670147Y-140551426D01*
X144615000Y-140828665D01*
X142900000Y-140828665D01*
X142900000Y-136239039D01*
X144658096Y-136239039D01*
X144698754Y-136373087D01*
X144818963Y-136627420D01*
X144986481Y-136853414D01*
X145194869Y-137042385D01*
X145390982Y-137160000D01*
X145194869Y-137277615D01*
X144986481Y-137466586D01*
X144818963Y-137692580D01*
X144698754Y-137946913D01*
X144658096Y-138080961D01*
X144780085Y-138303000D01*
X145923000Y-138303000D01*
X145923000Y-136017000D01*
X146177000Y-136017000D01*
X146177000Y-138303000D01*
X147319915Y-138303000D01*
X147441904Y-138080961D01*
X147401246Y-137946913D01*
X147281037Y-137692580D01*
X147113519Y-137466586D01*
X146905131Y-137277615D01*
X146709018Y-137160000D01*
X146905131Y-137042385D01*
X147113519Y-136853414D01*
X147281037Y-136627420D01*
X147401246Y-136373087D01*
X147441904Y-136239039D01*
X147319915Y-136017000D01*
X146177000Y-136017000D01*
X145923000Y-136017000D01*
X144780085Y-136017000D01*
X144658096Y-136239039D01*
X142900000Y-136239039D01*
X142900000Y-127470000D01*
X144611928Y-127470000D01*
X144611928Y-129070000D01*
X144624188Y-129194482D01*
X144660498Y-129314180D01*
X144719463Y-129424494D01*
X144798815Y-129521185D01*
X144895506Y-129600537D01*
X145005820Y-129659502D01*
X145125518Y-129695812D01*
X145133961Y-129696643D01*
X144935363Y-129895241D01*
X144778320Y-130130273D01*
X144670147Y-130391426D01*
X144615000Y-130668665D01*
X144615000Y-130951335D01*
X144670147Y-131228574D01*
X144778320Y-131489727D01*
X144935363Y-131724759D01*
X145135241Y-131924637D01*
X145367759Y-132080000D01*
X145135241Y-132235363D01*
X144935363Y-132435241D01*
X144778320Y-132670273D01*
X144670147Y-132931426D01*
X144615000Y-133208665D01*
X144615000Y-133491335D01*
X144670147Y-133768574D01*
X144778320Y-134029727D01*
X144935363Y-134264759D01*
X145135241Y-134464637D01*
X145370273Y-134621680D01*
X145380865Y-134626067D01*
X145194869Y-134737615D01*
X144986481Y-134926586D01*
X144818963Y-135152580D01*
X144698754Y-135406913D01*
X144658096Y-135540961D01*
X144780085Y-135763000D01*
X145923000Y-135763000D01*
X145923000Y-135743000D01*
X146177000Y-135743000D01*
X146177000Y-135763000D01*
X147319915Y-135763000D01*
X147441904Y-135540961D01*
X147401246Y-135406913D01*
X147281037Y-135152580D01*
X147113519Y-134926586D01*
X146905131Y-134737615D01*
X146719135Y-134626067D01*
X146729727Y-134621680D01*
X146964759Y-134464637D01*
X147164637Y-134264759D01*
X147321680Y-134029727D01*
X147429853Y-133768574D01*
X147485000Y-133491335D01*
X147485000Y-133208665D01*
X147429853Y-132931426D01*
X147321680Y-132670273D01*
X147164637Y-132435241D01*
X146964759Y-132235363D01*
X146732241Y-132080000D01*
X146964759Y-131924637D01*
X147164637Y-131724759D01*
X147321680Y-131489727D01*
X147429853Y-131228574D01*
X147443684Y-131159039D01*
X152278096Y-131159039D01*
X152318754Y-131293087D01*
X152438963Y-131547420D01*
X152606481Y-131773414D01*
X152814869Y-131962385D01*
X153010982Y-132080000D01*
X152814869Y-132197615D01*
X152606481Y-132386586D01*
X152438963Y-132612580D01*
X152318754Y-132866913D01*
X152278096Y-133000961D01*
X152400085Y-133223000D01*
X153543000Y-133223000D01*
X153543000Y-130937000D01*
X152400085Y-130937000D01*
X152278096Y-131159039D01*
X147443684Y-131159039D01*
X147485000Y-130951335D01*
X147485000Y-130668665D01*
X147429853Y-130391426D01*
X147321680Y-130130273D01*
X147164637Y-129895241D01*
X146966039Y-129696643D01*
X146974482Y-129695812D01*
X147094180Y-129659502D01*
X147204494Y-129600537D01*
X147301185Y-129521185D01*
X147380537Y-129424494D01*
X147439502Y-129314180D01*
X147475812Y-129194482D01*
X147488072Y-129070000D01*
X147488072Y-127470000D01*
X147475812Y-127345518D01*
X147439502Y-127225820D01*
X147380537Y-127115506D01*
X147301185Y-127018815D01*
X147204494Y-126939463D01*
X147094180Y-126880498D01*
X146974482Y-126844188D01*
X146850000Y-126831928D01*
X145250000Y-126831928D01*
X145125518Y-126844188D01*
X145005820Y-126880498D01*
X144895506Y-126939463D01*
X144798815Y-127018815D01*
X144719463Y-127115506D01*
X144660498Y-127225820D01*
X144624188Y-127345518D01*
X144611928Y-127470000D01*
X142900000Y-127470000D01*
X142900000Y-124325413D01*
X146444192Y-124325413D01*
X146539956Y-124589814D01*
X146829571Y-124730704D01*
X147141108Y-124812384D01*
X147462595Y-124831718D01*
X147781675Y-124787961D01*
X148086088Y-124682795D01*
X148260044Y-124589814D01*
X148355808Y-124325413D01*
X147400000Y-123369605D01*
X146444192Y-124325413D01*
X142900000Y-124325413D01*
X142900000Y-123252595D01*
X145758282Y-123252595D01*
X145802039Y-123571675D01*
X145907205Y-123876088D01*
X146000186Y-124050044D01*
X146264587Y-124145808D01*
X147220395Y-123190000D01*
X147579605Y-123190000D01*
X148535413Y-124145808D01*
X148799814Y-124050044D01*
X148940704Y-123760429D01*
X149022384Y-123448892D01*
X149041718Y-123127405D01*
X148997961Y-122808325D01*
X148892795Y-122503912D01*
X148799814Y-122329956D01*
X148535413Y-122234192D01*
X147579605Y-123190000D01*
X147220395Y-123190000D01*
X146264587Y-122234192D01*
X146000186Y-122329956D01*
X145859296Y-122619571D01*
X145777616Y-122931108D01*
X145758282Y-123252595D01*
X142900000Y-123252595D01*
X142900000Y-122054587D01*
X146444192Y-122054587D01*
X147400000Y-123010395D01*
X148355808Y-122054587D01*
X148260044Y-121790186D01*
X147970429Y-121649296D01*
X147658892Y-121567616D01*
X147337405Y-121548282D01*
X147018325Y-121592039D01*
X146713912Y-121697205D01*
X146539956Y-121790186D01*
X146444192Y-122054587D01*
X142900000Y-122054587D01*
X142900000Y-119408460D01*
X143160960Y-119501909D01*
X143383000Y-119380624D01*
X143383000Y-118237000D01*
X143637000Y-118237000D01*
X143637000Y-119380624D01*
X143859040Y-119501909D01*
X144123881Y-119407070D01*
X144365131Y-119262385D01*
X144573519Y-119073414D01*
X144741037Y-118847420D01*
X144780000Y-118764984D01*
X144818963Y-118847420D01*
X144986481Y-119073414D01*
X145194869Y-119262385D01*
X145436119Y-119407070D01*
X145700960Y-119501909D01*
X145923000Y-119380624D01*
X145923000Y-118237000D01*
X146177000Y-118237000D01*
X146177000Y-119380624D01*
X146399040Y-119501909D01*
X146663881Y-119407070D01*
X146905131Y-119262385D01*
X147113519Y-119073414D01*
X147281037Y-118847420D01*
X147401246Y-118593087D01*
X147441904Y-118459039D01*
X147319915Y-118237000D01*
X146177000Y-118237000D01*
X145923000Y-118237000D01*
X144780085Y-118237000D01*
X144780000Y-118237155D01*
X144779915Y-118237000D01*
X143637000Y-118237000D01*
X143383000Y-118237000D01*
X143363000Y-118237000D01*
X143363000Y-117983000D01*
X143383000Y-117983000D01*
X143383000Y-117963000D01*
X143637000Y-117963000D01*
X143637000Y-117983000D01*
X144779915Y-117983000D01*
X144780000Y-117982845D01*
X144780085Y-117983000D01*
X145923000Y-117983000D01*
X145923000Y-117963000D01*
X146177000Y-117963000D01*
X146177000Y-117983000D01*
X147319915Y-117983000D01*
X147441904Y-117760961D01*
X147401246Y-117626913D01*
X147281037Y-117372580D01*
X147113519Y-117146586D01*
X146905131Y-116957615D01*
X146719135Y-116846067D01*
X146729727Y-116841680D01*
X146964759Y-116684637D01*
X147164637Y-116484759D01*
X147321680Y-116249727D01*
X147429853Y-115988574D01*
X147485000Y-115711335D01*
X147485000Y-115428665D01*
X147429853Y-115151426D01*
X147321680Y-114890273D01*
X147164637Y-114655241D01*
X146964759Y-114455363D01*
X146732241Y-114300000D01*
X146964759Y-114144637D01*
X147164637Y-113944759D01*
X147321680Y-113709727D01*
X147429853Y-113448574D01*
X147485000Y-113171335D01*
X147485000Y-112888665D01*
X147429853Y-112611426D01*
X147321680Y-112350273D01*
X147164637Y-112115241D01*
X146964759Y-111915363D01*
X146732241Y-111760000D01*
X146964759Y-111604637D01*
X147164637Y-111404759D01*
X147321680Y-111169727D01*
X147429853Y-110908574D01*
X147485000Y-110631335D01*
X147485000Y-110348665D01*
X147429853Y-110071426D01*
X147321680Y-109810273D01*
X147164637Y-109575241D01*
X146964759Y-109375363D01*
X146732241Y-109220000D01*
X146964759Y-109064637D01*
X147164637Y-108864759D01*
X147321680Y-108629727D01*
X147429853Y-108368574D01*
X147485000Y-108091335D01*
X147485000Y-107808665D01*
X147429853Y-107531426D01*
X147321680Y-107270273D01*
X147164637Y-107035241D01*
X146964759Y-106835363D01*
X146729727Y-106678320D01*
X146719135Y-106673933D01*
X146905131Y-106562385D01*
X147113519Y-106373414D01*
X147281037Y-106147420D01*
X147401246Y-105893087D01*
X147441904Y-105759039D01*
X147319915Y-105537000D01*
X146177000Y-105537000D01*
X146177000Y-105557000D01*
X145923000Y-105557000D01*
X145923000Y-105537000D01*
X144780085Y-105537000D01*
X144780000Y-105537155D01*
X144779915Y-105537000D01*
X143637000Y-105537000D01*
X143637000Y-105557000D01*
X143383000Y-105557000D01*
X143383000Y-105537000D01*
X143363000Y-105537000D01*
X143363000Y-105283000D01*
X143383000Y-105283000D01*
X143383000Y-105263000D01*
X143637000Y-105263000D01*
X143637000Y-105283000D01*
X144779915Y-105283000D01*
X144780000Y-105282845D01*
X144780085Y-105283000D01*
X145923000Y-105283000D01*
X145923000Y-105263000D01*
X146177000Y-105263000D01*
X146177000Y-105283000D01*
X147319915Y-105283000D01*
X147441904Y-105060961D01*
X147401246Y-104926913D01*
X147281037Y-104672580D01*
X147113519Y-104446586D01*
X146905131Y-104257615D01*
X146719135Y-104146067D01*
X146729727Y-104141680D01*
X146964759Y-103984637D01*
X147164637Y-103784759D01*
X147321680Y-103549727D01*
X147429853Y-103288574D01*
X147485000Y-103011335D01*
X147485000Y-102728665D01*
X147429853Y-102451426D01*
X147321680Y-102190273D01*
X147164637Y-101955241D01*
X146964759Y-101755363D01*
X146732241Y-101600000D01*
X146964759Y-101444637D01*
X147164637Y-101244759D01*
X147321680Y-101009727D01*
X147429853Y-100748574D01*
X147485000Y-100471335D01*
X147485000Y-100188665D01*
X147429853Y-99911426D01*
X147380404Y-99792044D01*
X147384279Y-99789973D01*
X147500004Y-99695000D01*
X147523807Y-99665996D01*
X147735999Y-99453804D01*
X147765002Y-99430002D01*
X147859975Y-99314277D01*
X147930547Y-99182248D01*
X147974004Y-99038987D01*
X147985001Y-98927334D01*
X147985001Y-98927326D01*
X147988677Y-98890001D01*
X147985001Y-98852676D01*
X147985001Y-96727322D01*
X147988677Y-96689999D01*
X147985001Y-96652676D01*
X147985001Y-96652666D01*
X147974004Y-96541013D01*
X147930547Y-96397752D01*
X147859975Y-96265723D01*
X147765002Y-96149998D01*
X147735998Y-96126195D01*
X147618806Y-96009003D01*
X147595003Y-95979999D01*
X147479278Y-95885026D01*
X147347249Y-95814454D01*
X147203988Y-95770997D01*
X147092335Y-95760000D01*
X147092324Y-95760000D01*
X147055002Y-95756324D01*
X147017680Y-95760000D01*
X146954013Y-95760000D01*
X146967205Y-95740256D01*
X147045226Y-95551898D01*
X147085000Y-95351939D01*
X147085000Y-95148061D01*
X147045226Y-94948102D01*
X146967205Y-94759744D01*
X146870490Y-94615000D01*
X146967205Y-94470256D01*
X147045226Y-94281898D01*
X147085000Y-94081939D01*
X147085000Y-93878061D01*
X147045226Y-93678102D01*
X146967205Y-93489744D01*
X146853937Y-93320226D01*
X146810000Y-93276289D01*
X146810000Y-92373589D01*
X147205000Y-92373589D01*
X147205000Y-92646411D01*
X147258225Y-92913989D01*
X147362629Y-93166043D01*
X147514201Y-93392886D01*
X147707114Y-93585799D01*
X147933957Y-93737371D01*
X148186011Y-93841775D01*
X148453589Y-93895000D01*
X148726411Y-93895000D01*
X148993989Y-93841775D01*
X149246043Y-93737371D01*
X149472886Y-93585799D01*
X149665799Y-93392886D01*
X149817371Y-93166043D01*
X149921775Y-92913989D01*
X149975000Y-92646411D01*
X149975000Y-92373589D01*
X149921775Y-92106011D01*
X149817371Y-91853957D01*
X149665799Y-91627114D01*
X149472886Y-91434201D01*
X149246043Y-91282629D01*
X148993989Y-91178225D01*
X148726411Y-91125000D01*
X148453589Y-91125000D01*
X148186011Y-91178225D01*
X147933957Y-91282629D01*
X147707114Y-91434201D01*
X147514201Y-91627114D01*
X147362629Y-91853957D01*
X147258225Y-92106011D01*
X147205000Y-92373589D01*
X146810000Y-92373589D01*
X146810000Y-90873719D01*
X146853945Y-90829774D01*
X146967213Y-90660256D01*
X147045234Y-90471898D01*
X147085008Y-90271939D01*
X147085008Y-90068061D01*
X147045234Y-89868102D01*
X146967213Y-89679744D01*
X146853945Y-89510226D01*
X146709782Y-89366063D01*
X146540264Y-89252795D01*
X146351906Y-89174774D01*
X146151947Y-89135000D01*
X145948069Y-89135000D01*
X145748110Y-89174774D01*
X145559752Y-89252795D01*
X145390234Y-89366063D01*
X145246071Y-89510226D01*
X145132803Y-89679744D01*
X145054782Y-89868102D01*
X145015008Y-90068061D01*
X145015008Y-90271939D01*
X145048047Y-90438041D01*
X144881939Y-90405000D01*
X144678061Y-90405000D01*
X144511961Y-90438039D01*
X144545000Y-90271939D01*
X144545000Y-90068061D01*
X144505226Y-89868102D01*
X144427205Y-89679744D01*
X144313937Y-89510226D01*
X144169774Y-89366063D01*
X144000256Y-89252795D01*
X143811898Y-89174774D01*
X143611939Y-89135000D01*
X143408061Y-89135000D01*
X143208102Y-89174774D01*
X143019744Y-89252795D01*
X142900000Y-89332805D01*
X142900000Y-87493589D01*
X147205000Y-87493589D01*
X147205000Y-87766411D01*
X147258225Y-88033989D01*
X147362629Y-88286043D01*
X147514201Y-88512886D01*
X147707114Y-88705799D01*
X147933957Y-88857371D01*
X148186011Y-88961775D01*
X148453589Y-89015000D01*
X148726411Y-89015000D01*
X148993989Y-88961775D01*
X149246043Y-88857371D01*
X149472886Y-88705799D01*
X149665799Y-88512886D01*
X149817371Y-88286043D01*
X149921775Y-88033989D01*
X149975000Y-87766411D01*
X149975000Y-87493589D01*
X149921775Y-87226011D01*
X149817371Y-86973957D01*
X149665799Y-86747114D01*
X149472886Y-86554201D01*
X149246043Y-86402629D01*
X148993989Y-86298225D01*
X148726411Y-86245000D01*
X148453589Y-86245000D01*
X148186011Y-86298225D01*
X147933957Y-86402629D01*
X147707114Y-86554201D01*
X147514201Y-86747114D01*
X147362629Y-86973957D01*
X147258225Y-87226011D01*
X147205000Y-87493589D01*
X142900000Y-87493589D01*
X142900000Y-86134900D01*
X143023996Y-86193571D01*
X143298184Y-86262300D01*
X143580512Y-86276217D01*
X143860130Y-86234787D01*
X144126292Y-86139603D01*
X144251514Y-86072671D01*
X144323097Y-85828702D01*
X143510000Y-85015605D01*
X143495858Y-85029748D01*
X143316253Y-84850143D01*
X143330395Y-84836000D01*
X143689605Y-84836000D01*
X144502702Y-85649097D01*
X144746671Y-85577514D01*
X144867571Y-85322004D01*
X144936300Y-85047816D01*
X144943265Y-84906512D01*
X152229783Y-84906512D01*
X152271213Y-85186130D01*
X152366397Y-85452292D01*
X152433329Y-85577514D01*
X152677298Y-85649097D01*
X153490395Y-84836000D01*
X152677298Y-84022903D01*
X152433329Y-84094486D01*
X152312429Y-84349996D01*
X152243700Y-84624184D01*
X152229783Y-84906512D01*
X144943265Y-84906512D01*
X144950217Y-84765488D01*
X144908787Y-84485870D01*
X144813603Y-84219708D01*
X144746671Y-84094486D01*
X144502702Y-84022903D01*
X143689605Y-84836000D01*
X143330395Y-84836000D01*
X143316253Y-84821858D01*
X143495858Y-84642253D01*
X143510000Y-84656395D01*
X144323097Y-83843298D01*
X144251514Y-83599329D01*
X143996004Y-83478429D01*
X143981772Y-83474861D01*
X144000256Y-83467205D01*
X144169774Y-83353937D01*
X144313937Y-83209774D01*
X144427205Y-83040256D01*
X144505226Y-82851898D01*
X144545000Y-82651939D01*
X144545000Y-82589801D01*
X145227388Y-81907413D01*
X146444192Y-81907413D01*
X146539956Y-82171814D01*
X146829571Y-82312704D01*
X147141108Y-82394384D01*
X147462595Y-82413718D01*
X147781675Y-82369961D01*
X148086088Y-82264795D01*
X148260044Y-82171814D01*
X148355808Y-81907413D01*
X147400000Y-80951605D01*
X146444192Y-81907413D01*
X145227388Y-81907413D01*
X145291003Y-81843799D01*
X145320001Y-81820001D01*
X145414974Y-81704276D01*
X145485546Y-81572247D01*
X145529003Y-81428986D01*
X145540000Y-81317333D01*
X145540000Y-81317324D01*
X145543676Y-81280001D01*
X145540000Y-81242678D01*
X145540000Y-80834595D01*
X145758282Y-80834595D01*
X145802039Y-81153675D01*
X145907205Y-81458088D01*
X146000186Y-81632044D01*
X146264587Y-81727808D01*
X147220395Y-80772000D01*
X147579605Y-80772000D01*
X148535413Y-81727808D01*
X148799814Y-81632044D01*
X148940704Y-81342429D01*
X149022384Y-81030892D01*
X149041718Y-80709405D01*
X148997961Y-80390325D01*
X148892795Y-80085912D01*
X148799814Y-79911956D01*
X148535413Y-79816192D01*
X147579605Y-80772000D01*
X147220395Y-80772000D01*
X146264587Y-79816192D01*
X146000186Y-79911956D01*
X145859296Y-80201571D01*
X145777616Y-80513108D01*
X145758282Y-80834595D01*
X145540000Y-80834595D01*
X145540000Y-79636587D01*
X146444192Y-79636587D01*
X147400000Y-80592395D01*
X148355808Y-79636587D01*
X148260044Y-79372186D01*
X147970429Y-79231296D01*
X147658892Y-79149616D01*
X147337405Y-79130282D01*
X147018325Y-79174039D01*
X146713912Y-79279205D01*
X146539956Y-79372186D01*
X146444192Y-79636587D01*
X145540000Y-79636587D01*
X145540000Y-79443711D01*
X145583937Y-79399774D01*
X145697205Y-79230256D01*
X145775226Y-79041898D01*
X145815000Y-78841939D01*
X145815000Y-78638061D01*
X145775226Y-78438102D01*
X145697205Y-78249744D01*
X145583937Y-78080226D01*
X145439774Y-77936063D01*
X145270256Y-77822795D01*
X145081898Y-77744774D01*
X144881939Y-77705000D01*
X144678061Y-77705000D01*
X144478102Y-77744774D01*
X144289744Y-77822795D01*
X144120226Y-77936063D01*
X143976063Y-78080226D01*
X143862795Y-78249744D01*
X143784774Y-78438102D01*
X143745000Y-78638061D01*
X143745000Y-78841939D01*
X143784774Y-79041898D01*
X143862795Y-79230256D01*
X143976063Y-79399774D01*
X144020000Y-79443711D01*
X144020001Y-80965197D01*
X143470199Y-81515000D01*
X143408061Y-81515000D01*
X143208102Y-81554774D01*
X143019744Y-81632795D01*
X142900000Y-81712805D01*
X142900000Y-76549039D01*
X144658096Y-76549039D01*
X144698754Y-76683087D01*
X144818963Y-76937420D01*
X144986481Y-77163414D01*
X145194869Y-77352385D01*
X145436119Y-77497070D01*
X145700960Y-77591909D01*
X145923000Y-77470624D01*
X145923000Y-76327000D01*
X146177000Y-76327000D01*
X146177000Y-77470624D01*
X146399040Y-77591909D01*
X146663881Y-77497070D01*
X146905131Y-77352385D01*
X147113519Y-77163414D01*
X147281037Y-76937420D01*
X147401246Y-76683087D01*
X147441904Y-76549039D01*
X147319915Y-76327000D01*
X146177000Y-76327000D01*
X145923000Y-76327000D01*
X144780085Y-76327000D01*
X144658096Y-76549039D01*
X142900000Y-76549039D01*
X142900000Y-57620000D01*
X144611928Y-57620000D01*
X144611928Y-59220000D01*
X144624188Y-59344482D01*
X144660498Y-59464180D01*
X144719463Y-59574494D01*
X144798815Y-59671185D01*
X144895506Y-59750537D01*
X145005820Y-59809502D01*
X145125518Y-59845812D01*
X145133961Y-59846643D01*
X144935363Y-60045241D01*
X144778320Y-60280273D01*
X144670147Y-60541426D01*
X144615000Y-60818665D01*
X144615000Y-61101335D01*
X144670147Y-61378574D01*
X144778320Y-61639727D01*
X144935363Y-61874759D01*
X145135241Y-62074637D01*
X145367759Y-62230000D01*
X145135241Y-62385363D01*
X144935363Y-62585241D01*
X144778320Y-62820273D01*
X144670147Y-63081426D01*
X144615000Y-63358665D01*
X144615000Y-63641335D01*
X144670147Y-63918574D01*
X144778320Y-64179727D01*
X144935363Y-64414759D01*
X145135241Y-64614637D01*
X145367759Y-64770000D01*
X145135241Y-64925363D01*
X144935363Y-65125241D01*
X144778320Y-65360273D01*
X144670147Y-65621426D01*
X144615000Y-65898665D01*
X144615000Y-66181335D01*
X144670147Y-66458574D01*
X144778320Y-66719727D01*
X144935363Y-66954759D01*
X145135241Y-67154637D01*
X145367759Y-67310000D01*
X145135241Y-67465363D01*
X144935363Y-67665241D01*
X144778320Y-67900273D01*
X144670147Y-68161426D01*
X144615000Y-68438665D01*
X144615000Y-68721335D01*
X144670147Y-68998574D01*
X144778320Y-69259727D01*
X144935363Y-69494759D01*
X145135241Y-69694637D01*
X145367759Y-69850000D01*
X145135241Y-70005363D01*
X144935363Y-70205241D01*
X144778320Y-70440273D01*
X144670147Y-70701426D01*
X144615000Y-70978665D01*
X144615000Y-71261335D01*
X144670147Y-71538574D01*
X144778320Y-71799727D01*
X144935363Y-72034759D01*
X145135241Y-72234637D01*
X145367759Y-72390000D01*
X145135241Y-72545363D01*
X144935363Y-72745241D01*
X144778320Y-72980273D01*
X144670147Y-73241426D01*
X144615000Y-73518665D01*
X144615000Y-73801335D01*
X144670147Y-74078574D01*
X144778320Y-74339727D01*
X144935363Y-74574759D01*
X145135241Y-74774637D01*
X145370273Y-74931680D01*
X145380865Y-74936067D01*
X145194869Y-75047615D01*
X144986481Y-75236586D01*
X144818963Y-75462580D01*
X144698754Y-75716913D01*
X144658096Y-75850961D01*
X144780085Y-76073000D01*
X145923000Y-76073000D01*
X145923000Y-76053000D01*
X146177000Y-76053000D01*
X146177000Y-76073000D01*
X147319915Y-76073000D01*
X147441904Y-75850961D01*
X147401246Y-75716913D01*
X147281037Y-75462580D01*
X147113519Y-75236586D01*
X146905131Y-75047615D01*
X146719135Y-74936067D01*
X146729727Y-74931680D01*
X146964759Y-74774637D01*
X147164637Y-74574759D01*
X147321680Y-74339727D01*
X147429853Y-74078574D01*
X147485000Y-73801335D01*
X147485000Y-73518665D01*
X147429853Y-73241426D01*
X147321680Y-72980273D01*
X147164637Y-72745241D01*
X146964759Y-72545363D01*
X146732241Y-72390000D01*
X146964759Y-72234637D01*
X147164637Y-72034759D01*
X147321680Y-71799727D01*
X147429853Y-71538574D01*
X147485000Y-71261335D01*
X147485000Y-70978665D01*
X147429853Y-70701426D01*
X147321680Y-70440273D01*
X147164637Y-70205241D01*
X146964759Y-70005363D01*
X146732241Y-69850000D01*
X146964759Y-69694637D01*
X147164637Y-69494759D01*
X147321680Y-69259727D01*
X147429853Y-68998574D01*
X147485000Y-68721335D01*
X147485000Y-68438665D01*
X147429853Y-68161426D01*
X147321680Y-67900273D01*
X147164637Y-67665241D01*
X146964759Y-67465363D01*
X146732241Y-67310000D01*
X146964759Y-67154637D01*
X147164637Y-66954759D01*
X147321680Y-66719727D01*
X147429853Y-66458574D01*
X147485000Y-66181335D01*
X147485000Y-65898665D01*
X147429853Y-65621426D01*
X147321680Y-65360273D01*
X147164637Y-65125241D01*
X146964759Y-64925363D01*
X146732241Y-64770000D01*
X146964759Y-64614637D01*
X147164637Y-64414759D01*
X147321680Y-64179727D01*
X147429853Y-63918574D01*
X147485000Y-63641335D01*
X147485000Y-63358665D01*
X147429853Y-63081426D01*
X147321680Y-62820273D01*
X147164637Y-62585241D01*
X146964759Y-62385363D01*
X146732241Y-62230000D01*
X146964759Y-62074637D01*
X147164637Y-61874759D01*
X147321680Y-61639727D01*
X147429853Y-61378574D01*
X147485000Y-61101335D01*
X147485000Y-60818665D01*
X147429853Y-60541426D01*
X147321680Y-60280273D01*
X147164637Y-60045241D01*
X146966039Y-59846643D01*
X146974482Y-59845812D01*
X147094180Y-59809502D01*
X147204494Y-59750537D01*
X147301185Y-59671185D01*
X147380537Y-59574494D01*
X147439502Y-59464180D01*
X147475812Y-59344482D01*
X147488072Y-59220000D01*
X147488072Y-57620000D01*
X147475812Y-57495518D01*
X147439502Y-57375820D01*
X147380537Y-57265506D01*
X147301185Y-57168815D01*
X147204494Y-57089463D01*
X147094180Y-57030498D01*
X146974482Y-56994188D01*
X146850000Y-56981928D01*
X145250000Y-56981928D01*
X145125518Y-56994188D01*
X145005820Y-57030498D01*
X144895506Y-57089463D01*
X144798815Y-57168815D01*
X144719463Y-57265506D01*
X144660498Y-57375820D01*
X144624188Y-57495518D01*
X144611928Y-57620000D01*
X142900000Y-57620000D01*
X142900000Y-54983413D01*
X146444192Y-54983413D01*
X146539956Y-55247814D01*
X146829571Y-55388704D01*
X147141108Y-55470384D01*
X147462595Y-55489718D01*
X147781675Y-55445961D01*
X148086088Y-55340795D01*
X148260044Y-55247814D01*
X148355808Y-54983413D01*
X147400000Y-54027605D01*
X146444192Y-54983413D01*
X142900000Y-54983413D01*
X142900000Y-53910595D01*
X145758282Y-53910595D01*
X145802039Y-54229675D01*
X145907205Y-54534088D01*
X146000186Y-54708044D01*
X146264587Y-54803808D01*
X147220395Y-53848000D01*
X147579605Y-53848000D01*
X148535413Y-54803808D01*
X148799814Y-54708044D01*
X148940704Y-54418429D01*
X149022384Y-54106892D01*
X149041718Y-53785405D01*
X148997961Y-53466325D01*
X148892795Y-53161912D01*
X148799814Y-52987956D01*
X148535413Y-52892192D01*
X147579605Y-53848000D01*
X147220395Y-53848000D01*
X146264587Y-52892192D01*
X146000186Y-52987956D01*
X145859296Y-53277571D01*
X145777616Y-53589108D01*
X145758282Y-53910595D01*
X142900000Y-53910595D01*
X142900000Y-52712587D01*
X146444192Y-52712587D01*
X147400000Y-53668395D01*
X148355808Y-52712587D01*
X148260044Y-52448186D01*
X147970429Y-52307296D01*
X147658892Y-52225616D01*
X147337405Y-52206282D01*
X147018325Y-52250039D01*
X146713912Y-52355205D01*
X146539956Y-52448186D01*
X146444192Y-52712587D01*
X142900000Y-52712587D01*
X142900000Y-51460000D01*
X154280001Y-51460000D01*
X154280001Y-56505741D01*
%TA.AperFunction,Conductor*%
D21*
G36*
X154280001Y-56505741D02*
G01*
X154265050Y-56493471D01*
X153285000Y-55513422D01*
X153285000Y-55223059D01*
X153442252Y-55117987D01*
X153669987Y-54890252D01*
X153848918Y-54622463D01*
X153972168Y-54324912D01*
X154035000Y-54009033D01*
X154035000Y-53686967D01*
X153972168Y-53371088D01*
X153848918Y-53073537D01*
X153669987Y-52805748D01*
X153442252Y-52578013D01*
X153174463Y-52399082D01*
X152876912Y-52275832D01*
X152561033Y-52213000D01*
X152238967Y-52213000D01*
X151923088Y-52275832D01*
X151625537Y-52399082D01*
X151357748Y-52578013D01*
X151130013Y-52805748D01*
X150951082Y-53073537D01*
X150827832Y-53371088D01*
X150765000Y-53686967D01*
X150765000Y-54009033D01*
X150827832Y-54324912D01*
X150951082Y-54622463D01*
X151130013Y-54890252D01*
X151357748Y-55117987D01*
X151515001Y-55223060D01*
X151515001Y-55513420D01*
X150534956Y-56493466D01*
X150501183Y-56521183D01*
X150390589Y-56655942D01*
X150308411Y-56809688D01*
X150273157Y-56925904D01*
X150257806Y-56976509D01*
X150257805Y-56976511D01*
X150245000Y-57106524D01*
X150245000Y-57106531D01*
X150240719Y-57150000D01*
X150245000Y-57193470D01*
X150245000Y-57709265D01*
X150181716Y-57786377D01*
X150076324Y-57983554D01*
X150011423Y-58197502D01*
X149995000Y-58364249D01*
X149995001Y-77414238D01*
X149989509Y-77470000D01*
X150011423Y-77692498D01*
X150076324Y-77906446D01*
X150092155Y-77936063D01*
X150181717Y-78103623D01*
X150323552Y-78276449D01*
X150366860Y-78311991D01*
X151477120Y-79422251D01*
X151357748Y-79502013D01*
X151130013Y-79729748D01*
X150951082Y-79997537D01*
X150827832Y-80295088D01*
X150765000Y-80610967D01*
X150765000Y-80933033D01*
X150827832Y-81248912D01*
X150951082Y-81546463D01*
X151130013Y-81814252D01*
X151357748Y-82041987D01*
X151515001Y-82147060D01*
X151515001Y-82183420D01*
X150884957Y-82813465D01*
X150828102Y-82824774D01*
X150639744Y-82902795D01*
X150470226Y-83016063D01*
X150326063Y-83160226D01*
X150212795Y-83329744D01*
X150134774Y-83518102D01*
X150095000Y-83718061D01*
X150095000Y-83921939D01*
X150134774Y-84121898D01*
X150212795Y-84310256D01*
X150326063Y-84479774D01*
X150470226Y-84623937D01*
X150639744Y-84737205D01*
X150828102Y-84815226D01*
X151028061Y-84855000D01*
X151231939Y-84855000D01*
X151431898Y-84815226D01*
X151620256Y-84737205D01*
X151789774Y-84623937D01*
X151933937Y-84479774D01*
X152047205Y-84310256D01*
X152125226Y-84121898D01*
X152136535Y-84065043D01*
X152995049Y-83206530D01*
X153028817Y-83178817D01*
X153082177Y-83113799D01*
X153139410Y-83044060D01*
X153139411Y-83044059D01*
X153221589Y-82890313D01*
X153272195Y-82723490D01*
X153285000Y-82593477D01*
X153285000Y-82593467D01*
X153289281Y-82550001D01*
X153285000Y-82506535D01*
X153285000Y-82147059D01*
X153442252Y-82041987D01*
X153669987Y-81814252D01*
X153848918Y-81546463D01*
X153972168Y-81248912D01*
X154035000Y-80933033D01*
X154035000Y-80610967D01*
X153972168Y-80295088D01*
X153848918Y-79997537D01*
X153669987Y-79729748D01*
X153442252Y-79502013D01*
X153313511Y-79415991D01*
X153348283Y-79373622D01*
X153453675Y-79176446D01*
X153518577Y-78962498D01*
X153540490Y-78739999D01*
X153518577Y-78517500D01*
X153453675Y-78303553D01*
X153348283Y-78106377D01*
X153241988Y-77976856D01*
X152265000Y-76999869D01*
X152265000Y-76492153D01*
X152290147Y-76618574D01*
X152398320Y-76879727D01*
X152555363Y-77114759D01*
X152755241Y-77314637D01*
X152990273Y-77471680D01*
X153251426Y-77579853D01*
X153528665Y-77635000D01*
X153811335Y-77635000D01*
X154088574Y-77579853D01*
X154280001Y-77500562D01*
X154280001Y-83537101D01*
X154156004Y-83478429D01*
X153881816Y-83409700D01*
X153599488Y-83395783D01*
X153319870Y-83437213D01*
X153053708Y-83532397D01*
X152928486Y-83599329D01*
X152856903Y-83843298D01*
X153670000Y-84656395D01*
X153684143Y-84642253D01*
X153863748Y-84821858D01*
X153849605Y-84836000D01*
X153863748Y-84850143D01*
X153684143Y-85029748D01*
X153670000Y-85015605D01*
X152856903Y-85828702D01*
X152928486Y-86072671D01*
X153183996Y-86193571D01*
X153458184Y-86262300D01*
X153740512Y-86276217D01*
X154020130Y-86234787D01*
X154280001Y-86141853D01*
X154280001Y-90071639D01*
X154233799Y-90015343D01*
X154210001Y-89986345D01*
X154181003Y-89962547D01*
X153256827Y-89038372D01*
X153256827Y-88976234D01*
X153217053Y-88776275D01*
X153139032Y-88587917D01*
X153025764Y-88418399D01*
X152881601Y-88274236D01*
X152712083Y-88160968D01*
X152523725Y-88082947D01*
X152323766Y-88043173D01*
X152119888Y-88043173D01*
X151919929Y-88082947D01*
X151731571Y-88160968D01*
X151562053Y-88274236D01*
X151417890Y-88418399D01*
X151304622Y-88587917D01*
X151226601Y-88776275D01*
X151186827Y-88976234D01*
X151186827Y-89180112D01*
X151226601Y-89380071D01*
X151304622Y-89568429D01*
X151417890Y-89737947D01*
X151562053Y-89882110D01*
X151731571Y-89995378D01*
X151919929Y-90073399D01*
X152119888Y-90113173D01*
X152182026Y-90113173D01*
X152295680Y-90226827D01*
X152119888Y-90226827D01*
X151919929Y-90266601D01*
X151731571Y-90344622D01*
X151562053Y-90457890D01*
X151417890Y-90602053D01*
X151304622Y-90771571D01*
X151226601Y-90959929D01*
X151186827Y-91159888D01*
X151186827Y-91363766D01*
X151226601Y-91563725D01*
X151304622Y-91752083D01*
X151417890Y-91921601D01*
X151562053Y-92065764D01*
X151640001Y-92117847D01*
X151640000Y-94466195D01*
X149348998Y-96757199D01*
X149320000Y-96780997D01*
X149296202Y-96809995D01*
X149296201Y-96809996D01*
X149225026Y-96896722D01*
X149154454Y-97028752D01*
X149129726Y-97110273D01*
X149116167Y-97154974D01*
X149110998Y-97172013D01*
X149096324Y-97320998D01*
X149100001Y-97358330D01*
X149100000Y-100761679D01*
X149096324Y-100799002D01*
X149100000Y-100836324D01*
X149100000Y-100836334D01*
X149110997Y-100947987D01*
X149137756Y-101036201D01*
X149154454Y-101091248D01*
X149225026Y-101223278D01*
X149264871Y-101271828D01*
X149319999Y-101339003D01*
X149349002Y-101362805D01*
X149985753Y-101999556D01*
X149858320Y-102190273D01*
X149750147Y-102451426D01*
X149695000Y-102728665D01*
X149695000Y-103011335D01*
X149750147Y-103288574D01*
X149858320Y-103549727D01*
X150015363Y-103784759D01*
X150215241Y-103984637D01*
X150450273Y-104141680D01*
X150460865Y-104146067D01*
X150274869Y-104257615D01*
X150066481Y-104446586D01*
X149898963Y-104672580D01*
X149778754Y-104926913D01*
X149738096Y-105060961D01*
X149860085Y-105283000D01*
X151003000Y-105283000D01*
X151003000Y-105263000D01*
X151257000Y-105263000D01*
X151257000Y-105283000D01*
X152399915Y-105283000D01*
X152400000Y-105282845D01*
X152400085Y-105283000D01*
X153543000Y-105283000D01*
X153543000Y-105263000D01*
X153797000Y-105263000D01*
X153797000Y-105283000D01*
X153817000Y-105283000D01*
X153817000Y-105537000D01*
X153797000Y-105537000D01*
X153797000Y-105557000D01*
X153543000Y-105557000D01*
X153543000Y-105537000D01*
X152400085Y-105537000D01*
X152400000Y-105537155D01*
X152399915Y-105537000D01*
X151257000Y-105537000D01*
X151257000Y-105557000D01*
X151003000Y-105557000D01*
X151003000Y-105537000D01*
X149860085Y-105537000D01*
X149738096Y-105759039D01*
X149778754Y-105893087D01*
X149898963Y-106147420D01*
X150066481Y-106373414D01*
X150274869Y-106562385D01*
X150460865Y-106673933D01*
X150450273Y-106678320D01*
X150215241Y-106835363D01*
X150015363Y-107035241D01*
X149858320Y-107270273D01*
X149750147Y-107531426D01*
X149695000Y-107808665D01*
X149695000Y-108091335D01*
X149750147Y-108368574D01*
X149858320Y-108629727D01*
X150015363Y-108864759D01*
X150215241Y-109064637D01*
X150447759Y-109220000D01*
X150215241Y-109375363D01*
X150015363Y-109575241D01*
X149858320Y-109810273D01*
X149750147Y-110071426D01*
X149695000Y-110348665D01*
X149695000Y-110631335D01*
X149750147Y-110908574D01*
X149858320Y-111169727D01*
X150015363Y-111404759D01*
X150215241Y-111604637D01*
X150447759Y-111760000D01*
X150215241Y-111915363D01*
X150015363Y-112115241D01*
X149858320Y-112350273D01*
X149750147Y-112611426D01*
X149695000Y-112888665D01*
X149695000Y-113171335D01*
X149750147Y-113448574D01*
X149858320Y-113709727D01*
X150015363Y-113944759D01*
X150215241Y-114144637D01*
X150447759Y-114300000D01*
X150215241Y-114455363D01*
X150015363Y-114655241D01*
X149858320Y-114890273D01*
X149750147Y-115151426D01*
X149695000Y-115428665D01*
X149695000Y-115711335D01*
X149750147Y-115988574D01*
X149858320Y-116249727D01*
X150015363Y-116484759D01*
X150215241Y-116684637D01*
X150447759Y-116840000D01*
X150215241Y-116995363D01*
X150015363Y-117195241D01*
X149858320Y-117430273D01*
X149750147Y-117691426D01*
X149695000Y-117968665D01*
X149695000Y-118251335D01*
X149750147Y-118528574D01*
X149858320Y-118789727D01*
X150015363Y-119024759D01*
X150215241Y-119224637D01*
X150450273Y-119381680D01*
X150711426Y-119489853D01*
X150988665Y-119545000D01*
X151271335Y-119545000D01*
X151548574Y-119489853D01*
X151809727Y-119381680D01*
X152044759Y-119224637D01*
X152244637Y-119024759D01*
X152348043Y-118870000D01*
X152451957Y-118870000D01*
X152555363Y-119024759D01*
X152755241Y-119224637D01*
X152990273Y-119381680D01*
X153251426Y-119489853D01*
X153528665Y-119545000D01*
X153811335Y-119545000D01*
X154088574Y-119489853D01*
X154280000Y-119410562D01*
X154280000Y-123815740D01*
X154265050Y-123803471D01*
X153998104Y-123536525D01*
X154035000Y-123351033D01*
X154035000Y-123028967D01*
X153972168Y-122713088D01*
X153848918Y-122415537D01*
X153669987Y-122147748D01*
X153442252Y-121920013D01*
X153174463Y-121741082D01*
X152876912Y-121617832D01*
X152561033Y-121555000D01*
X152238967Y-121555000D01*
X151923088Y-121617832D01*
X151625537Y-121741082D01*
X151490001Y-121831644D01*
X151490001Y-121621159D01*
X151620256Y-121567205D01*
X151789774Y-121453937D01*
X151933937Y-121309774D01*
X152047205Y-121140256D01*
X152125226Y-120951898D01*
X152165000Y-120751939D01*
X152165000Y-120548061D01*
X152125226Y-120348102D01*
X152047205Y-120159744D01*
X151933937Y-119990226D01*
X151789774Y-119846063D01*
X151620256Y-119732795D01*
X151431898Y-119654774D01*
X151231939Y-119615000D01*
X151028061Y-119615000D01*
X150828102Y-119654774D01*
X150639744Y-119732795D01*
X150470226Y-119846063D01*
X150326063Y-119990226D01*
X150212795Y-120159744D01*
X150134774Y-120348102D01*
X150095000Y-120548061D01*
X150095000Y-120625774D01*
X150082050Y-120650001D01*
X150024455Y-120757753D01*
X149980998Y-120901014D01*
X149970001Y-121012667D01*
X149970001Y-121012677D01*
X149966325Y-121049999D01*
X149970001Y-121087322D01*
X149970002Y-124022669D01*
X149966325Y-124060001D01*
X149980999Y-124208986D01*
X150024455Y-124352247D01*
X150095027Y-124484277D01*
X150166202Y-124571003D01*
X150190001Y-124600002D01*
X150218999Y-124623800D01*
X151365000Y-125769802D01*
X151365000Y-125831939D01*
X151404774Y-126031898D01*
X151482795Y-126220256D01*
X151596063Y-126389774D01*
X151740226Y-126533937D01*
X151909744Y-126647205D01*
X152098102Y-126725226D01*
X152298061Y-126765000D01*
X152501939Y-126765000D01*
X152701898Y-126725226D01*
X152785001Y-126690804D01*
X152785001Y-127135478D01*
X152755241Y-127155363D01*
X152555363Y-127355241D01*
X152398320Y-127590273D01*
X152290147Y-127851426D01*
X152235000Y-128128665D01*
X152235000Y-128411335D01*
X152290147Y-128688574D01*
X152398320Y-128949727D01*
X152555363Y-129184759D01*
X152755241Y-129384637D01*
X152990273Y-129541680D01*
X153000865Y-129546067D01*
X152814869Y-129657615D01*
X152606481Y-129846586D01*
X152438963Y-130072580D01*
X152318754Y-130326913D01*
X152278096Y-130460961D01*
X152400085Y-130683000D01*
X153543000Y-130683000D01*
X153543000Y-130663000D01*
X153797000Y-130663000D01*
X153797000Y-130683000D01*
X153817000Y-130683000D01*
X153817000Y-130937000D01*
X153797000Y-130937000D01*
X153797000Y-133223000D01*
X153817000Y-133223000D01*
X153817000Y-133477000D01*
X153797000Y-133477000D01*
X153797000Y-133497000D01*
X153543000Y-133497000D01*
X153543000Y-133477000D01*
X152400085Y-133477000D01*
X152278096Y-133699039D01*
X152318754Y-133833087D01*
X152438963Y-134087420D01*
X152606481Y-134313414D01*
X152814869Y-134502385D01*
X153000865Y-134613933D01*
X152990273Y-134618320D01*
X152755241Y-134775363D01*
X152555363Y-134975241D01*
X152398320Y-135210273D01*
X152290147Y-135471426D01*
X152235000Y-135748665D01*
X152235000Y-136031335D01*
X152290147Y-136308574D01*
X152398320Y-136569727D01*
X152555363Y-136804759D01*
X152755241Y-137004637D01*
X152990273Y-137161680D01*
X153000865Y-137166067D01*
X152814869Y-137277615D01*
X152606481Y-137466586D01*
X152438963Y-137692580D01*
X152318754Y-137946913D01*
X152278096Y-138080961D01*
X152400085Y-138303000D01*
X153543000Y-138303000D01*
X153543000Y-138283000D01*
X153797000Y-138283000D01*
X153797000Y-138303000D01*
X153817000Y-138303000D01*
X153817000Y-138557000D01*
X153797000Y-138557000D01*
X153797000Y-140843000D01*
X153817000Y-140843000D01*
X153817000Y-141097000D01*
X153797000Y-141097000D01*
X153797000Y-141117000D01*
X153543000Y-141117000D01*
X153543000Y-141097000D01*
X152400085Y-141097000D01*
X152278096Y-141319039D01*
X152318754Y-141453087D01*
X152438963Y-141707420D01*
X152606481Y-141933414D01*
X152814869Y-142122385D01*
X153000865Y-142233933D01*
X152990273Y-142238320D01*
X152755241Y-142395363D01*
X152555363Y-142595241D01*
X152398320Y-142830273D01*
X152290147Y-143091426D01*
X152235000Y-143368665D01*
X152235000Y-143651335D01*
X152290147Y-143928574D01*
X152398320Y-144189727D01*
X152555363Y-144424759D01*
X152755241Y-144624637D01*
X152990273Y-144781680D01*
X153251426Y-144889853D01*
X153528665Y-144945000D01*
X153811335Y-144945000D01*
X154088574Y-144889853D01*
X154280000Y-144810562D01*
X154280000Y-146742416D01*
X154063290Y-146676678D01*
X153812000Y-146651928D01*
X152512000Y-146651928D01*
X152260710Y-146676678D01*
X152019076Y-146749977D01*
X151796386Y-146869007D01*
X151601196Y-147029196D01*
X151441007Y-147224386D01*
X151321977Y-147447076D01*
X151248678Y-147688710D01*
X151223928Y-147940000D01*
X151223928Y-149240000D01*
X151248678Y-149491290D01*
X151321977Y-149732924D01*
X151376538Y-149835000D01*
X149506608Y-149835000D01*
X149431226Y-149759618D01*
X149726312Y-149627683D01*
X149897159Y-149286955D01*
X149998250Y-148919443D01*
X150025701Y-148539271D01*
X149978457Y-148161049D01*
X149858333Y-147799310D01*
X149726312Y-147552317D01*
X149431224Y-147420381D01*
X148261605Y-148590000D01*
X148275748Y-148604143D01*
X148096143Y-148783748D01*
X148082000Y-148769605D01*
X148067858Y-148783748D01*
X147888253Y-148604143D01*
X147902395Y-148590000D01*
X146732776Y-147420381D01*
X146437688Y-147552317D01*
X146266841Y-147893045D01*
X146165750Y-148260557D01*
X146138299Y-148640729D01*
X146185543Y-149018951D01*
X146305667Y-149380690D01*
X146437688Y-149627683D01*
X146732774Y-149759618D01*
X146657392Y-149835000D01*
X145339239Y-149835000D01*
X145541987Y-149632252D01*
X145720918Y-149364463D01*
X145844168Y-149066912D01*
X145907000Y-148751033D01*
X145907000Y-148428967D01*
X145844168Y-148113088D01*
X145720918Y-147815537D01*
X145541987Y-147547748D01*
X145314252Y-147320013D01*
X145195666Y-147240776D01*
X146912381Y-147240776D01*
X148082000Y-148410395D01*
X149251619Y-147240776D01*
X149119683Y-146945688D01*
X148778955Y-146774841D01*
X148411443Y-146673750D01*
X148031271Y-146646299D01*
X147653049Y-146693543D01*
X147291310Y-146813667D01*
X147044317Y-146945688D01*
X146912381Y-147240776D01*
X145195666Y-147240776D01*
X145046463Y-147141082D01*
X144748912Y-147017832D01*
X144433033Y-146955000D01*
X144110967Y-146955000D01*
X143795088Y-147017832D01*
X143497537Y-147141082D01*
X143229748Y-147320013D01*
X143002013Y-147547748D01*
X142900000Y-147700421D01*
X142900000Y-143859039D01*
X144658096Y-143859039D01*
X144698754Y-143993087D01*
X144818963Y-144247420D01*
X144986481Y-144473414D01*
X145194869Y-144662385D01*
X145436119Y-144807070D01*
X145700960Y-144901909D01*
X145923000Y-144780624D01*
X145923000Y-143637000D01*
X146177000Y-143637000D01*
X146177000Y-144780624D01*
X146399040Y-144901909D01*
X146663881Y-144807070D01*
X146905131Y-144662385D01*
X147113519Y-144473414D01*
X147281037Y-144247420D01*
X147401246Y-143993087D01*
X147441904Y-143859039D01*
X147319915Y-143637000D01*
X146177000Y-143637000D01*
X145923000Y-143637000D01*
X144780085Y-143637000D01*
X144658096Y-143859039D01*
X142900000Y-143859039D01*
X142900000Y-140828665D01*
X144615000Y-140828665D01*
X144615000Y-141111335D01*
X144670147Y-141388574D01*
X144778320Y-141649727D01*
X144935363Y-141884759D01*
X145135241Y-142084637D01*
X145370273Y-142241680D01*
X145380865Y-142246067D01*
X145194869Y-142357615D01*
X144986481Y-142546586D01*
X144818963Y-142772580D01*
X144698754Y-143026913D01*
X144658096Y-143160961D01*
X144780085Y-143383000D01*
X145923000Y-143383000D01*
X145923000Y-143363000D01*
X146177000Y-143363000D01*
X146177000Y-143383000D01*
X147319915Y-143383000D01*
X147441904Y-143160961D01*
X147401246Y-143026913D01*
X147281037Y-142772580D01*
X147113519Y-142546586D01*
X146905131Y-142357615D01*
X146719135Y-142246067D01*
X146729727Y-142241680D01*
X146964759Y-142084637D01*
X147164637Y-141884759D01*
X147321680Y-141649727D01*
X147429853Y-141388574D01*
X147485000Y-141111335D01*
X147485000Y-140828665D01*
X147429853Y-140551426D01*
X147321680Y-140290273D01*
X147164637Y-140055241D01*
X146964759Y-139855363D01*
X146729727Y-139698320D01*
X146719135Y-139693933D01*
X146905131Y-139582385D01*
X147113519Y-139393414D01*
X147281037Y-139167420D01*
X147401246Y-138913087D01*
X147441904Y-138779039D01*
X152278096Y-138779039D01*
X152318754Y-138913087D01*
X152438963Y-139167420D01*
X152606481Y-139393414D01*
X152814869Y-139582385D01*
X153010982Y-139700000D01*
X152814869Y-139817615D01*
X152606481Y-140006586D01*
X152438963Y-140232580D01*
X152318754Y-140486913D01*
X152278096Y-140620961D01*
X152400085Y-140843000D01*
X153543000Y-140843000D01*
X153543000Y-138557000D01*
X152400085Y-138557000D01*
X152278096Y-138779039D01*
X147441904Y-138779039D01*
X147319915Y-138557000D01*
X146177000Y-138557000D01*
X146177000Y-138577000D01*
X145923000Y-138577000D01*
X145923000Y-138557000D01*
X144780085Y-138557000D01*
X144658096Y-138779039D01*
X144698754Y-138913087D01*
X144818963Y-139167420D01*
X144986481Y-139393414D01*
X145194869Y-139582385D01*
X145380865Y-139693933D01*
X145370273Y-139698320D01*
X145135241Y-139855363D01*
X144935363Y-140055241D01*
X144778320Y-140290273D01*
X144670147Y-140551426D01*
X144615000Y-140828665D01*
X142900000Y-140828665D01*
X142900000Y-136239039D01*
X144658096Y-136239039D01*
X144698754Y-136373087D01*
X144818963Y-136627420D01*
X144986481Y-136853414D01*
X145194869Y-137042385D01*
X145390982Y-137160000D01*
X145194869Y-137277615D01*
X144986481Y-137466586D01*
X144818963Y-137692580D01*
X144698754Y-137946913D01*
X144658096Y-138080961D01*
X144780085Y-138303000D01*
X145923000Y-138303000D01*
X145923000Y-136017000D01*
X146177000Y-136017000D01*
X146177000Y-138303000D01*
X147319915Y-138303000D01*
X147441904Y-138080961D01*
X147401246Y-137946913D01*
X147281037Y-137692580D01*
X147113519Y-137466586D01*
X146905131Y-137277615D01*
X146709018Y-137160000D01*
X146905131Y-137042385D01*
X147113519Y-136853414D01*
X147281037Y-136627420D01*
X147401246Y-136373087D01*
X147441904Y-136239039D01*
X147319915Y-136017000D01*
X146177000Y-136017000D01*
X145923000Y-136017000D01*
X144780085Y-136017000D01*
X144658096Y-136239039D01*
X142900000Y-136239039D01*
X142900000Y-127470000D01*
X144611928Y-127470000D01*
X144611928Y-129070000D01*
X144624188Y-129194482D01*
X144660498Y-129314180D01*
X144719463Y-129424494D01*
X144798815Y-129521185D01*
X144895506Y-129600537D01*
X145005820Y-129659502D01*
X145125518Y-129695812D01*
X145133961Y-129696643D01*
X144935363Y-129895241D01*
X144778320Y-130130273D01*
X144670147Y-130391426D01*
X144615000Y-130668665D01*
X144615000Y-130951335D01*
X144670147Y-131228574D01*
X144778320Y-131489727D01*
X144935363Y-131724759D01*
X145135241Y-131924637D01*
X145367759Y-132080000D01*
X145135241Y-132235363D01*
X144935363Y-132435241D01*
X144778320Y-132670273D01*
X144670147Y-132931426D01*
X144615000Y-133208665D01*
X144615000Y-133491335D01*
X144670147Y-133768574D01*
X144778320Y-134029727D01*
X144935363Y-134264759D01*
X145135241Y-134464637D01*
X145370273Y-134621680D01*
X145380865Y-134626067D01*
X145194869Y-134737615D01*
X144986481Y-134926586D01*
X144818963Y-135152580D01*
X144698754Y-135406913D01*
X144658096Y-135540961D01*
X144780085Y-135763000D01*
X145923000Y-135763000D01*
X145923000Y-135743000D01*
X146177000Y-135743000D01*
X146177000Y-135763000D01*
X147319915Y-135763000D01*
X147441904Y-135540961D01*
X147401246Y-135406913D01*
X147281037Y-135152580D01*
X147113519Y-134926586D01*
X146905131Y-134737615D01*
X146719135Y-134626067D01*
X146729727Y-134621680D01*
X146964759Y-134464637D01*
X147164637Y-134264759D01*
X147321680Y-134029727D01*
X147429853Y-133768574D01*
X147485000Y-133491335D01*
X147485000Y-133208665D01*
X147429853Y-132931426D01*
X147321680Y-132670273D01*
X147164637Y-132435241D01*
X146964759Y-132235363D01*
X146732241Y-132080000D01*
X146964759Y-131924637D01*
X147164637Y-131724759D01*
X147321680Y-131489727D01*
X147429853Y-131228574D01*
X147443684Y-131159039D01*
X152278096Y-131159039D01*
X152318754Y-131293087D01*
X152438963Y-131547420D01*
X152606481Y-131773414D01*
X152814869Y-131962385D01*
X153010982Y-132080000D01*
X152814869Y-132197615D01*
X152606481Y-132386586D01*
X152438963Y-132612580D01*
X152318754Y-132866913D01*
X152278096Y-133000961D01*
X152400085Y-133223000D01*
X153543000Y-133223000D01*
X153543000Y-130937000D01*
X152400085Y-130937000D01*
X152278096Y-131159039D01*
X147443684Y-131159039D01*
X147485000Y-130951335D01*
X147485000Y-130668665D01*
X147429853Y-130391426D01*
X147321680Y-130130273D01*
X147164637Y-129895241D01*
X146966039Y-129696643D01*
X146974482Y-129695812D01*
X147094180Y-129659502D01*
X147204494Y-129600537D01*
X147301185Y-129521185D01*
X147380537Y-129424494D01*
X147439502Y-129314180D01*
X147475812Y-129194482D01*
X147488072Y-129070000D01*
X147488072Y-127470000D01*
X147475812Y-127345518D01*
X147439502Y-127225820D01*
X147380537Y-127115506D01*
X147301185Y-127018815D01*
X147204494Y-126939463D01*
X147094180Y-126880498D01*
X146974482Y-126844188D01*
X146850000Y-126831928D01*
X145250000Y-126831928D01*
X145125518Y-126844188D01*
X145005820Y-126880498D01*
X144895506Y-126939463D01*
X144798815Y-127018815D01*
X144719463Y-127115506D01*
X144660498Y-127225820D01*
X144624188Y-127345518D01*
X144611928Y-127470000D01*
X142900000Y-127470000D01*
X142900000Y-124325413D01*
X146444192Y-124325413D01*
X146539956Y-124589814D01*
X146829571Y-124730704D01*
X147141108Y-124812384D01*
X147462595Y-124831718D01*
X147781675Y-124787961D01*
X148086088Y-124682795D01*
X148260044Y-124589814D01*
X148355808Y-124325413D01*
X147400000Y-123369605D01*
X146444192Y-124325413D01*
X142900000Y-124325413D01*
X142900000Y-123252595D01*
X145758282Y-123252595D01*
X145802039Y-123571675D01*
X145907205Y-123876088D01*
X146000186Y-124050044D01*
X146264587Y-124145808D01*
X147220395Y-123190000D01*
X147579605Y-123190000D01*
X148535413Y-124145808D01*
X148799814Y-124050044D01*
X148940704Y-123760429D01*
X149022384Y-123448892D01*
X149041718Y-123127405D01*
X148997961Y-122808325D01*
X148892795Y-122503912D01*
X148799814Y-122329956D01*
X148535413Y-122234192D01*
X147579605Y-123190000D01*
X147220395Y-123190000D01*
X146264587Y-122234192D01*
X146000186Y-122329956D01*
X145859296Y-122619571D01*
X145777616Y-122931108D01*
X145758282Y-123252595D01*
X142900000Y-123252595D01*
X142900000Y-122054587D01*
X146444192Y-122054587D01*
X147400000Y-123010395D01*
X148355808Y-122054587D01*
X148260044Y-121790186D01*
X147970429Y-121649296D01*
X147658892Y-121567616D01*
X147337405Y-121548282D01*
X147018325Y-121592039D01*
X146713912Y-121697205D01*
X146539956Y-121790186D01*
X146444192Y-122054587D01*
X142900000Y-122054587D01*
X142900000Y-119408460D01*
X143160960Y-119501909D01*
X143383000Y-119380624D01*
X143383000Y-118237000D01*
X143637000Y-118237000D01*
X143637000Y-119380624D01*
X143859040Y-119501909D01*
X144123881Y-119407070D01*
X144365131Y-119262385D01*
X144573519Y-119073414D01*
X144741037Y-118847420D01*
X144780000Y-118764984D01*
X144818963Y-118847420D01*
X144986481Y-119073414D01*
X145194869Y-119262385D01*
X145436119Y-119407070D01*
X145700960Y-119501909D01*
X145923000Y-119380624D01*
X145923000Y-118237000D01*
X146177000Y-118237000D01*
X146177000Y-119380624D01*
X146399040Y-119501909D01*
X146663881Y-119407070D01*
X146905131Y-119262385D01*
X147113519Y-119073414D01*
X147281037Y-118847420D01*
X147401246Y-118593087D01*
X147441904Y-118459039D01*
X147319915Y-118237000D01*
X146177000Y-118237000D01*
X145923000Y-118237000D01*
X144780085Y-118237000D01*
X144780000Y-118237155D01*
X144779915Y-118237000D01*
X143637000Y-118237000D01*
X143383000Y-118237000D01*
X143363000Y-118237000D01*
X143363000Y-117983000D01*
X143383000Y-117983000D01*
X143383000Y-117963000D01*
X143637000Y-117963000D01*
X143637000Y-117983000D01*
X144779915Y-117983000D01*
X144780000Y-117982845D01*
X144780085Y-117983000D01*
X145923000Y-117983000D01*
X145923000Y-117963000D01*
X146177000Y-117963000D01*
X146177000Y-117983000D01*
X147319915Y-117983000D01*
X147441904Y-117760961D01*
X147401246Y-117626913D01*
X147281037Y-117372580D01*
X147113519Y-117146586D01*
X146905131Y-116957615D01*
X146719135Y-116846067D01*
X146729727Y-116841680D01*
X146964759Y-116684637D01*
X147164637Y-116484759D01*
X147321680Y-116249727D01*
X147429853Y-115988574D01*
X147485000Y-115711335D01*
X147485000Y-115428665D01*
X147429853Y-115151426D01*
X147321680Y-114890273D01*
X147164637Y-114655241D01*
X146964759Y-114455363D01*
X146732241Y-114300000D01*
X146964759Y-114144637D01*
X147164637Y-113944759D01*
X147321680Y-113709727D01*
X147429853Y-113448574D01*
X147485000Y-113171335D01*
X147485000Y-112888665D01*
X147429853Y-112611426D01*
X147321680Y-112350273D01*
X147164637Y-112115241D01*
X146964759Y-111915363D01*
X146732241Y-111760000D01*
X146964759Y-111604637D01*
X147164637Y-111404759D01*
X147321680Y-111169727D01*
X147429853Y-110908574D01*
X147485000Y-110631335D01*
X147485000Y-110348665D01*
X147429853Y-110071426D01*
X147321680Y-109810273D01*
X147164637Y-109575241D01*
X146964759Y-109375363D01*
X146732241Y-109220000D01*
X146964759Y-109064637D01*
X147164637Y-108864759D01*
X147321680Y-108629727D01*
X147429853Y-108368574D01*
X147485000Y-108091335D01*
X147485000Y-107808665D01*
X147429853Y-107531426D01*
X147321680Y-107270273D01*
X147164637Y-107035241D01*
X146964759Y-106835363D01*
X146729727Y-106678320D01*
X146719135Y-106673933D01*
X146905131Y-106562385D01*
X147113519Y-106373414D01*
X147281037Y-106147420D01*
X147401246Y-105893087D01*
X147441904Y-105759039D01*
X147319915Y-105537000D01*
X146177000Y-105537000D01*
X146177000Y-105557000D01*
X145923000Y-105557000D01*
X145923000Y-105537000D01*
X144780085Y-105537000D01*
X144780000Y-105537155D01*
X144779915Y-105537000D01*
X143637000Y-105537000D01*
X143637000Y-105557000D01*
X143383000Y-105557000D01*
X143383000Y-105537000D01*
X143363000Y-105537000D01*
X143363000Y-105283000D01*
X143383000Y-105283000D01*
X143383000Y-105263000D01*
X143637000Y-105263000D01*
X143637000Y-105283000D01*
X144779915Y-105283000D01*
X144780000Y-105282845D01*
X144780085Y-105283000D01*
X145923000Y-105283000D01*
X145923000Y-105263000D01*
X146177000Y-105263000D01*
X146177000Y-105283000D01*
X147319915Y-105283000D01*
X147441904Y-105060961D01*
X147401246Y-104926913D01*
X147281037Y-104672580D01*
X147113519Y-104446586D01*
X146905131Y-104257615D01*
X146719135Y-104146067D01*
X146729727Y-104141680D01*
X146964759Y-103984637D01*
X147164637Y-103784759D01*
X147321680Y-103549727D01*
X147429853Y-103288574D01*
X147485000Y-103011335D01*
X147485000Y-102728665D01*
X147429853Y-102451426D01*
X147321680Y-102190273D01*
X147164637Y-101955241D01*
X146964759Y-101755363D01*
X146732241Y-101600000D01*
X146964759Y-101444637D01*
X147164637Y-101244759D01*
X147321680Y-101009727D01*
X147429853Y-100748574D01*
X147485000Y-100471335D01*
X147485000Y-100188665D01*
X147429853Y-99911426D01*
X147380404Y-99792044D01*
X147384279Y-99789973D01*
X147500004Y-99695000D01*
X147523807Y-99665996D01*
X147735999Y-99453804D01*
X147765002Y-99430002D01*
X147859975Y-99314277D01*
X147930547Y-99182248D01*
X147974004Y-99038987D01*
X147985001Y-98927334D01*
X147985001Y-98927326D01*
X147988677Y-98890001D01*
X147985001Y-98852676D01*
X147985001Y-96727322D01*
X147988677Y-96689999D01*
X147985001Y-96652676D01*
X147985001Y-96652666D01*
X147974004Y-96541013D01*
X147930547Y-96397752D01*
X147859975Y-96265723D01*
X147765002Y-96149998D01*
X147735998Y-96126195D01*
X147618806Y-96009003D01*
X147595003Y-95979999D01*
X147479278Y-95885026D01*
X147347249Y-95814454D01*
X147203988Y-95770997D01*
X147092335Y-95760000D01*
X147092324Y-95760000D01*
X147055002Y-95756324D01*
X147017680Y-95760000D01*
X146954013Y-95760000D01*
X146967205Y-95740256D01*
X147045226Y-95551898D01*
X147085000Y-95351939D01*
X147085000Y-95148061D01*
X147045226Y-94948102D01*
X146967205Y-94759744D01*
X146870490Y-94615000D01*
X146967205Y-94470256D01*
X147045226Y-94281898D01*
X147085000Y-94081939D01*
X147085000Y-93878061D01*
X147045226Y-93678102D01*
X146967205Y-93489744D01*
X146853937Y-93320226D01*
X146810000Y-93276289D01*
X146810000Y-92373589D01*
X147205000Y-92373589D01*
X147205000Y-92646411D01*
X147258225Y-92913989D01*
X147362629Y-93166043D01*
X147514201Y-93392886D01*
X147707114Y-93585799D01*
X147933957Y-93737371D01*
X148186011Y-93841775D01*
X148453589Y-93895000D01*
X148726411Y-93895000D01*
X148993989Y-93841775D01*
X149246043Y-93737371D01*
X149472886Y-93585799D01*
X149665799Y-93392886D01*
X149817371Y-93166043D01*
X149921775Y-92913989D01*
X149975000Y-92646411D01*
X149975000Y-92373589D01*
X149921775Y-92106011D01*
X149817371Y-91853957D01*
X149665799Y-91627114D01*
X149472886Y-91434201D01*
X149246043Y-91282629D01*
X148993989Y-91178225D01*
X148726411Y-91125000D01*
X148453589Y-91125000D01*
X148186011Y-91178225D01*
X147933957Y-91282629D01*
X147707114Y-91434201D01*
X147514201Y-91627114D01*
X147362629Y-91853957D01*
X147258225Y-92106011D01*
X147205000Y-92373589D01*
X146810000Y-92373589D01*
X146810000Y-90873719D01*
X146853945Y-90829774D01*
X146967213Y-90660256D01*
X147045234Y-90471898D01*
X147085008Y-90271939D01*
X147085008Y-90068061D01*
X147045234Y-89868102D01*
X146967213Y-89679744D01*
X146853945Y-89510226D01*
X146709782Y-89366063D01*
X146540264Y-89252795D01*
X146351906Y-89174774D01*
X146151947Y-89135000D01*
X145948069Y-89135000D01*
X145748110Y-89174774D01*
X145559752Y-89252795D01*
X145390234Y-89366063D01*
X145246071Y-89510226D01*
X145132803Y-89679744D01*
X145054782Y-89868102D01*
X145015008Y-90068061D01*
X145015008Y-90271939D01*
X145048047Y-90438041D01*
X144881939Y-90405000D01*
X144678061Y-90405000D01*
X144511961Y-90438039D01*
X144545000Y-90271939D01*
X144545000Y-90068061D01*
X144505226Y-89868102D01*
X144427205Y-89679744D01*
X144313937Y-89510226D01*
X144169774Y-89366063D01*
X144000256Y-89252795D01*
X143811898Y-89174774D01*
X143611939Y-89135000D01*
X143408061Y-89135000D01*
X143208102Y-89174774D01*
X143019744Y-89252795D01*
X142900000Y-89332805D01*
X142900000Y-87493589D01*
X147205000Y-87493589D01*
X147205000Y-87766411D01*
X147258225Y-88033989D01*
X147362629Y-88286043D01*
X147514201Y-88512886D01*
X147707114Y-88705799D01*
X147933957Y-88857371D01*
X148186011Y-88961775D01*
X148453589Y-89015000D01*
X148726411Y-89015000D01*
X148993989Y-88961775D01*
X149246043Y-88857371D01*
X149472886Y-88705799D01*
X149665799Y-88512886D01*
X149817371Y-88286043D01*
X149921775Y-88033989D01*
X149975000Y-87766411D01*
X149975000Y-87493589D01*
X149921775Y-87226011D01*
X149817371Y-86973957D01*
X149665799Y-86747114D01*
X149472886Y-86554201D01*
X149246043Y-86402629D01*
X148993989Y-86298225D01*
X148726411Y-86245000D01*
X148453589Y-86245000D01*
X148186011Y-86298225D01*
X147933957Y-86402629D01*
X147707114Y-86554201D01*
X147514201Y-86747114D01*
X147362629Y-86973957D01*
X147258225Y-87226011D01*
X147205000Y-87493589D01*
X142900000Y-87493589D01*
X142900000Y-86134900D01*
X143023996Y-86193571D01*
X143298184Y-86262300D01*
X143580512Y-86276217D01*
X143860130Y-86234787D01*
X144126292Y-86139603D01*
X144251514Y-86072671D01*
X144323097Y-85828702D01*
X143510000Y-85015605D01*
X143495858Y-85029748D01*
X143316253Y-84850143D01*
X143330395Y-84836000D01*
X143689605Y-84836000D01*
X144502702Y-85649097D01*
X144746671Y-85577514D01*
X144867571Y-85322004D01*
X144936300Y-85047816D01*
X144943265Y-84906512D01*
X152229783Y-84906512D01*
X152271213Y-85186130D01*
X152366397Y-85452292D01*
X152433329Y-85577514D01*
X152677298Y-85649097D01*
X153490395Y-84836000D01*
X152677298Y-84022903D01*
X152433329Y-84094486D01*
X152312429Y-84349996D01*
X152243700Y-84624184D01*
X152229783Y-84906512D01*
X144943265Y-84906512D01*
X144950217Y-84765488D01*
X144908787Y-84485870D01*
X144813603Y-84219708D01*
X144746671Y-84094486D01*
X144502702Y-84022903D01*
X143689605Y-84836000D01*
X143330395Y-84836000D01*
X143316253Y-84821858D01*
X143495858Y-84642253D01*
X143510000Y-84656395D01*
X144323097Y-83843298D01*
X144251514Y-83599329D01*
X143996004Y-83478429D01*
X143981772Y-83474861D01*
X144000256Y-83467205D01*
X144169774Y-83353937D01*
X144313937Y-83209774D01*
X144427205Y-83040256D01*
X144505226Y-82851898D01*
X144545000Y-82651939D01*
X144545000Y-82589801D01*
X145227388Y-81907413D01*
X146444192Y-81907413D01*
X146539956Y-82171814D01*
X146829571Y-82312704D01*
X147141108Y-82394384D01*
X147462595Y-82413718D01*
X147781675Y-82369961D01*
X148086088Y-82264795D01*
X148260044Y-82171814D01*
X148355808Y-81907413D01*
X147400000Y-80951605D01*
X146444192Y-81907413D01*
X145227388Y-81907413D01*
X145291003Y-81843799D01*
X145320001Y-81820001D01*
X145414974Y-81704276D01*
X145485546Y-81572247D01*
X145529003Y-81428986D01*
X145540000Y-81317333D01*
X145540000Y-81317324D01*
X145543676Y-81280001D01*
X145540000Y-81242678D01*
X145540000Y-80834595D01*
X145758282Y-80834595D01*
X145802039Y-81153675D01*
X145907205Y-81458088D01*
X146000186Y-81632044D01*
X146264587Y-81727808D01*
X147220395Y-80772000D01*
X147579605Y-80772000D01*
X148535413Y-81727808D01*
X148799814Y-81632044D01*
X148940704Y-81342429D01*
X149022384Y-81030892D01*
X149041718Y-80709405D01*
X148997961Y-80390325D01*
X148892795Y-80085912D01*
X148799814Y-79911956D01*
X148535413Y-79816192D01*
X147579605Y-80772000D01*
X147220395Y-80772000D01*
X146264587Y-79816192D01*
X146000186Y-79911956D01*
X145859296Y-80201571D01*
X145777616Y-80513108D01*
X145758282Y-80834595D01*
X145540000Y-80834595D01*
X145540000Y-79636587D01*
X146444192Y-79636587D01*
X147400000Y-80592395D01*
X148355808Y-79636587D01*
X148260044Y-79372186D01*
X147970429Y-79231296D01*
X147658892Y-79149616D01*
X147337405Y-79130282D01*
X147018325Y-79174039D01*
X146713912Y-79279205D01*
X146539956Y-79372186D01*
X146444192Y-79636587D01*
X145540000Y-79636587D01*
X145540000Y-79443711D01*
X145583937Y-79399774D01*
X145697205Y-79230256D01*
X145775226Y-79041898D01*
X145815000Y-78841939D01*
X145815000Y-78638061D01*
X145775226Y-78438102D01*
X145697205Y-78249744D01*
X145583937Y-78080226D01*
X145439774Y-77936063D01*
X145270256Y-77822795D01*
X145081898Y-77744774D01*
X144881939Y-77705000D01*
X144678061Y-77705000D01*
X144478102Y-77744774D01*
X144289744Y-77822795D01*
X144120226Y-77936063D01*
X143976063Y-78080226D01*
X143862795Y-78249744D01*
X143784774Y-78438102D01*
X143745000Y-78638061D01*
X143745000Y-78841939D01*
X143784774Y-79041898D01*
X143862795Y-79230256D01*
X143976063Y-79399774D01*
X144020000Y-79443711D01*
X144020001Y-80965197D01*
X143470199Y-81515000D01*
X143408061Y-81515000D01*
X143208102Y-81554774D01*
X143019744Y-81632795D01*
X142900000Y-81712805D01*
X142900000Y-76549039D01*
X144658096Y-76549039D01*
X144698754Y-76683087D01*
X144818963Y-76937420D01*
X144986481Y-77163414D01*
X145194869Y-77352385D01*
X145436119Y-77497070D01*
X145700960Y-77591909D01*
X145923000Y-77470624D01*
X145923000Y-76327000D01*
X146177000Y-76327000D01*
X146177000Y-77470624D01*
X146399040Y-77591909D01*
X146663881Y-77497070D01*
X146905131Y-77352385D01*
X147113519Y-77163414D01*
X147281037Y-76937420D01*
X147401246Y-76683087D01*
X147441904Y-76549039D01*
X147319915Y-76327000D01*
X146177000Y-76327000D01*
X145923000Y-76327000D01*
X144780085Y-76327000D01*
X144658096Y-76549039D01*
X142900000Y-76549039D01*
X142900000Y-57620000D01*
X144611928Y-57620000D01*
X144611928Y-59220000D01*
X144624188Y-59344482D01*
X144660498Y-59464180D01*
X144719463Y-59574494D01*
X144798815Y-59671185D01*
X144895506Y-59750537D01*
X145005820Y-59809502D01*
X145125518Y-59845812D01*
X145133961Y-59846643D01*
X144935363Y-60045241D01*
X144778320Y-60280273D01*
X144670147Y-60541426D01*
X144615000Y-60818665D01*
X144615000Y-61101335D01*
X144670147Y-61378574D01*
X144778320Y-61639727D01*
X144935363Y-61874759D01*
X145135241Y-62074637D01*
X145367759Y-62230000D01*
X145135241Y-62385363D01*
X144935363Y-62585241D01*
X144778320Y-62820273D01*
X144670147Y-63081426D01*
X144615000Y-63358665D01*
X144615000Y-63641335D01*
X144670147Y-63918574D01*
X144778320Y-64179727D01*
X144935363Y-64414759D01*
X145135241Y-64614637D01*
X145367759Y-64770000D01*
X145135241Y-64925363D01*
X144935363Y-65125241D01*
X144778320Y-65360273D01*
X144670147Y-65621426D01*
X144615000Y-65898665D01*
X144615000Y-66181335D01*
X144670147Y-66458574D01*
X144778320Y-66719727D01*
X144935363Y-66954759D01*
X145135241Y-67154637D01*
X145367759Y-67310000D01*
X145135241Y-67465363D01*
X144935363Y-67665241D01*
X144778320Y-67900273D01*
X144670147Y-68161426D01*
X144615000Y-68438665D01*
X144615000Y-68721335D01*
X144670147Y-68998574D01*
X144778320Y-69259727D01*
X144935363Y-69494759D01*
X145135241Y-69694637D01*
X145367759Y-69850000D01*
X145135241Y-70005363D01*
X144935363Y-70205241D01*
X144778320Y-70440273D01*
X144670147Y-70701426D01*
X144615000Y-70978665D01*
X144615000Y-71261335D01*
X144670147Y-71538574D01*
X144778320Y-71799727D01*
X144935363Y-72034759D01*
X145135241Y-72234637D01*
X145367759Y-72390000D01*
X145135241Y-72545363D01*
X144935363Y-72745241D01*
X144778320Y-72980273D01*
X144670147Y-73241426D01*
X144615000Y-73518665D01*
X144615000Y-73801335D01*
X144670147Y-74078574D01*
X144778320Y-74339727D01*
X144935363Y-74574759D01*
X145135241Y-74774637D01*
X145370273Y-74931680D01*
X145380865Y-74936067D01*
X145194869Y-75047615D01*
X144986481Y-75236586D01*
X144818963Y-75462580D01*
X144698754Y-75716913D01*
X144658096Y-75850961D01*
X144780085Y-76073000D01*
X145923000Y-76073000D01*
X145923000Y-76053000D01*
X146177000Y-76053000D01*
X146177000Y-76073000D01*
X147319915Y-76073000D01*
X147441904Y-75850961D01*
X147401246Y-75716913D01*
X147281037Y-75462580D01*
X147113519Y-75236586D01*
X146905131Y-75047615D01*
X146719135Y-74936067D01*
X146729727Y-74931680D01*
X146964759Y-74774637D01*
X147164637Y-74574759D01*
X147321680Y-74339727D01*
X147429853Y-74078574D01*
X147485000Y-73801335D01*
X147485000Y-73518665D01*
X147429853Y-73241426D01*
X147321680Y-72980273D01*
X147164637Y-72745241D01*
X146964759Y-72545363D01*
X146732241Y-72390000D01*
X146964759Y-72234637D01*
X147164637Y-72034759D01*
X147321680Y-71799727D01*
X147429853Y-71538574D01*
X147485000Y-71261335D01*
X147485000Y-70978665D01*
X147429853Y-70701426D01*
X147321680Y-70440273D01*
X147164637Y-70205241D01*
X146964759Y-70005363D01*
X146732241Y-69850000D01*
X146964759Y-69694637D01*
X147164637Y-69494759D01*
X147321680Y-69259727D01*
X147429853Y-68998574D01*
X147485000Y-68721335D01*
X147485000Y-68438665D01*
X147429853Y-68161426D01*
X147321680Y-67900273D01*
X147164637Y-67665241D01*
X146964759Y-67465363D01*
X146732241Y-67310000D01*
X146964759Y-67154637D01*
X147164637Y-66954759D01*
X147321680Y-66719727D01*
X147429853Y-66458574D01*
X147485000Y-66181335D01*
X147485000Y-65898665D01*
X147429853Y-65621426D01*
X147321680Y-65360273D01*
X147164637Y-65125241D01*
X146964759Y-64925363D01*
X146732241Y-64770000D01*
X146964759Y-64614637D01*
X147164637Y-64414759D01*
X147321680Y-64179727D01*
X147429853Y-63918574D01*
X147485000Y-63641335D01*
X147485000Y-63358665D01*
X147429853Y-63081426D01*
X147321680Y-62820273D01*
X147164637Y-62585241D01*
X146964759Y-62385363D01*
X146732241Y-62230000D01*
X146964759Y-62074637D01*
X147164637Y-61874759D01*
X147321680Y-61639727D01*
X147429853Y-61378574D01*
X147485000Y-61101335D01*
X147485000Y-60818665D01*
X147429853Y-60541426D01*
X147321680Y-60280273D01*
X147164637Y-60045241D01*
X146966039Y-59846643D01*
X146974482Y-59845812D01*
X147094180Y-59809502D01*
X147204494Y-59750537D01*
X147301185Y-59671185D01*
X147380537Y-59574494D01*
X147439502Y-59464180D01*
X147475812Y-59344482D01*
X147488072Y-59220000D01*
X147488072Y-57620000D01*
X147475812Y-57495518D01*
X147439502Y-57375820D01*
X147380537Y-57265506D01*
X147301185Y-57168815D01*
X147204494Y-57089463D01*
X147094180Y-57030498D01*
X146974482Y-56994188D01*
X146850000Y-56981928D01*
X145250000Y-56981928D01*
X145125518Y-56994188D01*
X145005820Y-57030498D01*
X144895506Y-57089463D01*
X144798815Y-57168815D01*
X144719463Y-57265506D01*
X144660498Y-57375820D01*
X144624188Y-57495518D01*
X144611928Y-57620000D01*
X142900000Y-57620000D01*
X142900000Y-54983413D01*
X146444192Y-54983413D01*
X146539956Y-55247814D01*
X146829571Y-55388704D01*
X147141108Y-55470384D01*
X147462595Y-55489718D01*
X147781675Y-55445961D01*
X148086088Y-55340795D01*
X148260044Y-55247814D01*
X148355808Y-54983413D01*
X147400000Y-54027605D01*
X146444192Y-54983413D01*
X142900000Y-54983413D01*
X142900000Y-53910595D01*
X145758282Y-53910595D01*
X145802039Y-54229675D01*
X145907205Y-54534088D01*
X146000186Y-54708044D01*
X146264587Y-54803808D01*
X147220395Y-53848000D01*
X147579605Y-53848000D01*
X148535413Y-54803808D01*
X148799814Y-54708044D01*
X148940704Y-54418429D01*
X149022384Y-54106892D01*
X149041718Y-53785405D01*
X148997961Y-53466325D01*
X148892795Y-53161912D01*
X148799814Y-52987956D01*
X148535413Y-52892192D01*
X147579605Y-53848000D01*
X147220395Y-53848000D01*
X146264587Y-52892192D01*
X146000186Y-52987956D01*
X145859296Y-53277571D01*
X145777616Y-53589108D01*
X145758282Y-53910595D01*
X142900000Y-53910595D01*
X142900000Y-52712587D01*
X146444192Y-52712587D01*
X147400000Y-53668395D01*
X148355808Y-52712587D01*
X148260044Y-52448186D01*
X147970429Y-52307296D01*
X147658892Y-52225616D01*
X147337405Y-52206282D01*
X147018325Y-52250039D01*
X146713912Y-52355205D01*
X146539956Y-52448186D01*
X146444192Y-52712587D01*
X142900000Y-52712587D01*
X142900000Y-51460000D01*
X154280001Y-51460000D01*
X154280001Y-56505741D01*
G37*
%TD.AperFunction*%
D20*
X143637000Y-97663000D02*
X145923000Y-97663000D01*
X145923000Y-97643000D01*
X146177000Y-97643000D01*
X146177000Y-97663000D01*
X146197000Y-97663000D01*
X146197000Y-97917000D01*
X146177000Y-97917000D01*
X146177000Y-97937000D01*
X145923000Y-97937000D01*
X145923000Y-97917000D01*
X143637000Y-97917000D01*
X143637000Y-97937000D01*
X143383000Y-97937000D01*
X143383000Y-97917000D01*
X143363000Y-97917000D01*
X143363000Y-97663000D01*
X143383000Y-97663000D01*
X143383000Y-97643000D01*
X143637000Y-97643000D01*
X143637000Y-97663000D01*
%TA.AperFunction,Conductor*%
D21*
G36*
X143637000Y-97663000D02*
G01*
X145923000Y-97663000D01*
X145923000Y-97643000D01*
X146177000Y-97643000D01*
X146177000Y-97663000D01*
X146197000Y-97663000D01*
X146197000Y-97917000D01*
X146177000Y-97917000D01*
X146177000Y-97937000D01*
X145923000Y-97937000D01*
X145923000Y-97917000D01*
X143637000Y-97917000D01*
X143637000Y-97937000D01*
X143383000Y-97937000D01*
X143383000Y-97917000D01*
X143363000Y-97917000D01*
X143363000Y-97663000D01*
X143383000Y-97663000D01*
X143383000Y-97643000D01*
X143637000Y-97643000D01*
X143637000Y-97663000D01*
G37*
%TD.AperFunction*%
D20*
X153797000Y-65913000D02*
X153817000Y-65913000D01*
X153817000Y-66167000D01*
X153797000Y-66167000D01*
X153797000Y-66187000D01*
X153543000Y-66187000D01*
X153543000Y-66167000D01*
X153523000Y-66167000D01*
X153523000Y-65913000D01*
X153543000Y-65913000D01*
X153543000Y-65893000D01*
X153797000Y-65893000D01*
X153797000Y-65913000D01*
%TA.AperFunction,Conductor*%
D21*
G36*
X153797000Y-65913000D02*
G01*
X153817000Y-65913000D01*
X153817000Y-66167000D01*
X153797000Y-66167000D01*
X153797000Y-66187000D01*
X153543000Y-66187000D01*
X153543000Y-66167000D01*
X153523000Y-66167000D01*
X153523000Y-65913000D01*
X153543000Y-65913000D01*
X153543000Y-65893000D01*
X153797000Y-65893000D01*
X153797000Y-65913000D01*
G37*
%TD.AperFunction*%
%TD*%
M02*
