%TF.GenerationSoftware,KiCad,Pcbnew,(5.1.9)-1*%
%TF.CreationDate,2021-05-07T21:51:07+08:00*%
%TF.ProjectId,DaveJonesTandy1000Turbo,44617665-4a6f-46e6-9573-54616e647931,rev?*%
%TF.SameCoordinates,Original*%
%TF.FileFunction,Legend,Top*%
%TF.FilePolarity,Positive*%
%FSLAX46Y46*%
G04 Gerber Fmt 4.6, Leading zero omitted, Abs format (unit mm)*
G04 Created by KiCad (PCBNEW (5.1.9)-1) date 2021-05-07 21:51:07*
%MOMM*%
%LPD*%
G01*
G04 APERTURE LIST*
%ADD10C,0.120000*%
%ADD11C,0.150000*%
G04 APERTURE END LIST*
D10*
%TO.C,R2*%
X153670000Y-93956000D02*
X153670000Y-93186000D01*
X153670000Y-85876000D02*
X153670000Y-86646000D01*
X155040000Y-93186000D02*
X155040000Y-86646000D01*
X152300000Y-93186000D02*
X155040000Y-93186000D01*
X152300000Y-86646000D02*
X152300000Y-93186000D01*
X155040000Y-86646000D02*
X152300000Y-86646000D01*
%TO.C,R1*%
X143510000Y-93956000D02*
X143510000Y-93186000D01*
X143510000Y-85876000D02*
X143510000Y-86646000D01*
X144880000Y-93186000D02*
X144880000Y-86646000D01*
X142140000Y-93186000D02*
X144880000Y-93186000D01*
X142140000Y-86646000D02*
X142140000Y-93186000D01*
X144880000Y-86646000D02*
X142140000Y-86646000D01*
%TO.C,Y1*%
X151115000Y-86945000D02*
X151115000Y-93195000D01*
X146065000Y-86945000D02*
X146065000Y-93195000D01*
X146065000Y-93195000D02*
G75*
G03*
X151115000Y-93195000I2525000J0D01*
G01*
X146065000Y-86945000D02*
G75*
G02*
X151115000Y-86945000I2525000J0D01*
G01*
%TO.C,U3*%
X148860000Y-96460000D02*
X147210000Y-96460000D01*
X147210000Y-96460000D02*
X147210000Y-119440000D01*
X147210000Y-119440000D02*
X152510000Y-119440000D01*
X152510000Y-119440000D02*
X152510000Y-96460000D01*
X152510000Y-96460000D02*
X150860000Y-96460000D01*
X144720000Y-96400000D02*
X144720000Y-119500000D01*
X144720000Y-119500000D02*
X155000000Y-119500000D01*
X155000000Y-119500000D02*
X155000000Y-96400000D01*
X155000000Y-96400000D02*
X144720000Y-96400000D01*
X150860000Y-96460000D02*
G75*
G02*
X148860000Y-96460000I-1000000J0D01*
G01*
%TO.C,U2*%
X148860000Y-126940000D02*
X147210000Y-126940000D01*
X147210000Y-126940000D02*
X147210000Y-144840000D01*
X147210000Y-144840000D02*
X152510000Y-144840000D01*
X152510000Y-144840000D02*
X152510000Y-126940000D01*
X152510000Y-126940000D02*
X150860000Y-126940000D01*
X144720000Y-126880000D02*
X144720000Y-144900000D01*
X144720000Y-144900000D02*
X155000000Y-144900000D01*
X155000000Y-144900000D02*
X155000000Y-126880000D01*
X155000000Y-126880000D02*
X144720000Y-126880000D01*
X150860000Y-126940000D02*
G75*
G02*
X148860000Y-126940000I-1000000J0D01*
G01*
%TO.C,U1*%
X148860000Y-57090000D02*
X147210000Y-57090000D01*
X147210000Y-57090000D02*
X147210000Y-77530000D01*
X147210000Y-77530000D02*
X152510000Y-77530000D01*
X152510000Y-77530000D02*
X152510000Y-57090000D01*
X152510000Y-57090000D02*
X150860000Y-57090000D01*
X144720000Y-57030000D02*
X144720000Y-77590000D01*
X144720000Y-77590000D02*
X155000000Y-77590000D01*
X155000000Y-77590000D02*
X155000000Y-57030000D01*
X155000000Y-57030000D02*
X144720000Y-57030000D01*
X150860000Y-57090000D02*
G75*
G02*
X148860000Y-57090000I-1000000J0D01*
G01*
%TO.C,SW1*%
X154662000Y-150090000D02*
X154662000Y-147090000D01*
X146562000Y-147090000D02*
X146562000Y-150090000D01*
X154662000Y-150090000D02*
X146562000Y-150090000D01*
X146562000Y-147090000D02*
X154662000Y-147090000D01*
%TO.C,J1*%
X145472000Y-148590000D02*
G75*
G03*
X145472000Y-148590000I-1200000J0D01*
G01*
%TO.C,C3*%
X154020000Y-83392000D02*
X145780000Y-83392000D01*
X154020000Y-78152000D02*
X145780000Y-78152000D01*
X154020000Y-83392000D02*
X154020000Y-78152000D01*
X145780000Y-83392000D02*
X145780000Y-78152000D01*
%TO.C,C2*%
X154020000Y-125810000D02*
X145780000Y-125810000D01*
X154020000Y-120570000D02*
X145780000Y-120570000D01*
X154020000Y-125810000D02*
X154020000Y-120570000D01*
X145780000Y-125810000D02*
X145780000Y-120570000D01*
%TO.C,C1*%
X154020000Y-56468000D02*
X145780000Y-56468000D01*
X154020000Y-51228000D02*
X145780000Y-51228000D01*
X154020000Y-56468000D02*
X154020000Y-51228000D01*
X145780000Y-56468000D02*
X145780000Y-51228000D01*
%TO.C,R2*%
D11*
X152217380Y-94781666D02*
X151741190Y-95115000D01*
X152217380Y-95353095D02*
X151217380Y-95353095D01*
X151217380Y-94972142D01*
X151265000Y-94876904D01*
X151312619Y-94829285D01*
X151407857Y-94781666D01*
X151550714Y-94781666D01*
X151645952Y-94829285D01*
X151693571Y-94876904D01*
X151741190Y-94972142D01*
X151741190Y-95353095D01*
X151312619Y-94400714D02*
X151265000Y-94353095D01*
X151217380Y-94257857D01*
X151217380Y-94019761D01*
X151265000Y-93924523D01*
X151312619Y-93876904D01*
X151407857Y-93829285D01*
X151503095Y-93829285D01*
X151645952Y-93876904D01*
X152217380Y-94448333D01*
X152217380Y-93829285D01*
X151301504Y-90771504D02*
X151301504Y-90961980D01*
X151339600Y-91057219D01*
X151377695Y-91104838D01*
X151491980Y-91200076D01*
X151644361Y-91247695D01*
X151949123Y-91247695D01*
X152025314Y-91200076D01*
X152063409Y-91152457D01*
X152101504Y-91057219D01*
X152101504Y-90866742D01*
X152063409Y-90771504D01*
X152025314Y-90723885D01*
X151949123Y-90676266D01*
X151758647Y-90676266D01*
X151682457Y-90723885D01*
X151644361Y-90771504D01*
X151606266Y-90866742D01*
X151606266Y-91057219D01*
X151644361Y-91152457D01*
X151682457Y-91200076D01*
X151758647Y-91247695D01*
X151644361Y-90104838D02*
X151606266Y-90200076D01*
X151568171Y-90247695D01*
X151491980Y-90295314D01*
X151453885Y-90295314D01*
X151377695Y-90247695D01*
X151339600Y-90200076D01*
X151301504Y-90104838D01*
X151301504Y-89914361D01*
X151339600Y-89819123D01*
X151377695Y-89771504D01*
X151453885Y-89723885D01*
X151491980Y-89723885D01*
X151568171Y-89771504D01*
X151606266Y-89819123D01*
X151644361Y-89914361D01*
X151644361Y-90104838D01*
X151682457Y-90200076D01*
X151720552Y-90247695D01*
X151796742Y-90295314D01*
X151949123Y-90295314D01*
X152025314Y-90247695D01*
X152063409Y-90200076D01*
X152101504Y-90104838D01*
X152101504Y-89914361D01*
X152063409Y-89819123D01*
X152025314Y-89771504D01*
X151949123Y-89723885D01*
X151796742Y-89723885D01*
X151720552Y-89771504D01*
X151682457Y-89819123D01*
X151644361Y-89914361D01*
X151301504Y-89104838D02*
X151301504Y-89009600D01*
X151339600Y-88914361D01*
X151377695Y-88866742D01*
X151453885Y-88819123D01*
X151606266Y-88771504D01*
X151796742Y-88771504D01*
X151949123Y-88819123D01*
X152025314Y-88866742D01*
X152063409Y-88914361D01*
X152101504Y-89009600D01*
X152101504Y-89104838D01*
X152063409Y-89200076D01*
X152025314Y-89247695D01*
X151949123Y-89295314D01*
X151796742Y-89342933D01*
X151606266Y-89342933D01*
X151453885Y-89295314D01*
X151377695Y-89247695D01*
X151339600Y-89200076D01*
X151301504Y-89104838D01*
X152101504Y-87771504D02*
X151720552Y-88104838D01*
X152101504Y-88342933D02*
X151301504Y-88342933D01*
X151301504Y-87961980D01*
X151339600Y-87866742D01*
X151377695Y-87819123D01*
X151453885Y-87771504D01*
X151568171Y-87771504D01*
X151644361Y-87819123D01*
X151682457Y-87866742D01*
X151720552Y-87961980D01*
X151720552Y-88342933D01*
%TO.C,R1*%
X145867380Y-94781666D02*
X145391190Y-95115000D01*
X145867380Y-95353095D02*
X144867380Y-95353095D01*
X144867380Y-94972142D01*
X144915000Y-94876904D01*
X144962619Y-94829285D01*
X145057857Y-94781666D01*
X145200714Y-94781666D01*
X145295952Y-94829285D01*
X145343571Y-94876904D01*
X145391190Y-94972142D01*
X145391190Y-95353095D01*
X145867380Y-93829285D02*
X145867380Y-94400714D01*
X145867380Y-94115000D02*
X144867380Y-94115000D01*
X145010238Y-94210238D01*
X145105476Y-94305476D01*
X145153095Y-94400714D01*
X145103904Y-90898504D02*
X145103904Y-91088980D01*
X145142000Y-91184219D01*
X145180095Y-91231838D01*
X145294380Y-91327076D01*
X145446761Y-91374695D01*
X145751523Y-91374695D01*
X145827714Y-91327076D01*
X145865809Y-91279457D01*
X145903904Y-91184219D01*
X145903904Y-90993742D01*
X145865809Y-90898504D01*
X145827714Y-90850885D01*
X145751523Y-90803266D01*
X145561047Y-90803266D01*
X145484857Y-90850885D01*
X145446761Y-90898504D01*
X145408666Y-90993742D01*
X145408666Y-91184219D01*
X145446761Y-91279457D01*
X145484857Y-91327076D01*
X145561047Y-91374695D01*
X145446761Y-90231838D02*
X145408666Y-90327076D01*
X145370571Y-90374695D01*
X145294380Y-90422314D01*
X145256285Y-90422314D01*
X145180095Y-90374695D01*
X145142000Y-90327076D01*
X145103904Y-90231838D01*
X145103904Y-90041361D01*
X145142000Y-89946123D01*
X145180095Y-89898504D01*
X145256285Y-89850885D01*
X145294380Y-89850885D01*
X145370571Y-89898504D01*
X145408666Y-89946123D01*
X145446761Y-90041361D01*
X145446761Y-90231838D01*
X145484857Y-90327076D01*
X145522952Y-90374695D01*
X145599142Y-90422314D01*
X145751523Y-90422314D01*
X145827714Y-90374695D01*
X145865809Y-90327076D01*
X145903904Y-90231838D01*
X145903904Y-90041361D01*
X145865809Y-89946123D01*
X145827714Y-89898504D01*
X145751523Y-89850885D01*
X145599142Y-89850885D01*
X145522952Y-89898504D01*
X145484857Y-89946123D01*
X145446761Y-90041361D01*
X145103904Y-89231838D02*
X145103904Y-89136600D01*
X145142000Y-89041361D01*
X145180095Y-88993742D01*
X145256285Y-88946123D01*
X145408666Y-88898504D01*
X145599142Y-88898504D01*
X145751523Y-88946123D01*
X145827714Y-88993742D01*
X145865809Y-89041361D01*
X145903904Y-89136600D01*
X145903904Y-89231838D01*
X145865809Y-89327076D01*
X145827714Y-89374695D01*
X145751523Y-89422314D01*
X145599142Y-89469933D01*
X145408666Y-89469933D01*
X145256285Y-89422314D01*
X145180095Y-89374695D01*
X145142000Y-89327076D01*
X145103904Y-89231838D01*
X145903904Y-87898504D02*
X145522952Y-88231838D01*
X145903904Y-88469933D02*
X145103904Y-88469933D01*
X145103904Y-88088980D01*
X145142000Y-87993742D01*
X145180095Y-87946123D01*
X145256285Y-87898504D01*
X145370571Y-87898504D01*
X145446761Y-87946123D01*
X145484857Y-87993742D01*
X145522952Y-88088980D01*
X145522952Y-88469933D01*
%TO.C,Y1*%
X146026190Y-84931190D02*
X146502380Y-84931190D01*
X145502380Y-85264523D02*
X146026190Y-84931190D01*
X145502380Y-84597857D01*
X146502380Y-83740714D02*
X146502380Y-84312142D01*
X146502380Y-84026428D02*
X145502380Y-84026428D01*
X145645238Y-84121666D01*
X145740476Y-84216904D01*
X145788095Y-84312142D01*
%TO.C,U3*%
X142962380Y-125856904D02*
X143771904Y-125856904D01*
X143867142Y-125809285D01*
X143914761Y-125761666D01*
X143962380Y-125666428D01*
X143962380Y-125475952D01*
X143914761Y-125380714D01*
X143867142Y-125333095D01*
X143771904Y-125285476D01*
X142962380Y-125285476D01*
X142962380Y-124904523D02*
X142962380Y-124285476D01*
X143343333Y-124618809D01*
X143343333Y-124475952D01*
X143390952Y-124380714D01*
X143438571Y-124333095D01*
X143533809Y-124285476D01*
X143771904Y-124285476D01*
X143867142Y-124333095D01*
X143914761Y-124380714D01*
X143962380Y-124475952D01*
X143962380Y-124761666D01*
X143914761Y-124856904D01*
X143867142Y-124904523D01*
X143390952Y-122808809D02*
X143343333Y-122904047D01*
X143295714Y-122951666D01*
X143200476Y-122999285D01*
X143152857Y-122999285D01*
X143057619Y-122951666D01*
X143010000Y-122904047D01*
X142962380Y-122808809D01*
X142962380Y-122618333D01*
X143010000Y-122523095D01*
X143057619Y-122475476D01*
X143152857Y-122427857D01*
X143200476Y-122427857D01*
X143295714Y-122475476D01*
X143343333Y-122523095D01*
X143390952Y-122618333D01*
X143390952Y-122808809D01*
X143438571Y-122904047D01*
X143486190Y-122951666D01*
X143581428Y-122999285D01*
X143771904Y-122999285D01*
X143867142Y-122951666D01*
X143914761Y-122904047D01*
X143962380Y-122808809D01*
X143962380Y-122618333D01*
X143914761Y-122523095D01*
X143867142Y-122475476D01*
X143771904Y-122427857D01*
X143581428Y-122427857D01*
X143486190Y-122475476D01*
X143438571Y-122523095D01*
X143390952Y-122618333D01*
X143057619Y-122046904D02*
X143010000Y-121999285D01*
X142962380Y-121904047D01*
X142962380Y-121665952D01*
X143010000Y-121570714D01*
X143057619Y-121523095D01*
X143152857Y-121475476D01*
X143248095Y-121475476D01*
X143390952Y-121523095D01*
X143962380Y-122094523D01*
X143962380Y-121475476D01*
X143390952Y-120904047D02*
X143343333Y-120999285D01*
X143295714Y-121046904D01*
X143200476Y-121094523D01*
X143152857Y-121094523D01*
X143057619Y-121046904D01*
X143010000Y-120999285D01*
X142962380Y-120904047D01*
X142962380Y-120713571D01*
X143010000Y-120618333D01*
X143057619Y-120570714D01*
X143152857Y-120523095D01*
X143200476Y-120523095D01*
X143295714Y-120570714D01*
X143343333Y-120618333D01*
X143390952Y-120713571D01*
X143390952Y-120904047D01*
X143438571Y-120999285D01*
X143486190Y-121046904D01*
X143581428Y-121094523D01*
X143771904Y-121094523D01*
X143867142Y-121046904D01*
X143914761Y-120999285D01*
X143962380Y-120904047D01*
X143962380Y-120713571D01*
X143914761Y-120618333D01*
X143867142Y-120570714D01*
X143771904Y-120523095D01*
X143581428Y-120523095D01*
X143486190Y-120570714D01*
X143438571Y-120618333D01*
X143390952Y-120713571D01*
X143295714Y-119665952D02*
X143962380Y-119665952D01*
X142914761Y-119904047D02*
X143629047Y-120142142D01*
X143629047Y-119523095D01*
%TO.C,U2*%
X142962380Y-134873904D02*
X143771904Y-134873904D01*
X143867142Y-134826285D01*
X143914761Y-134778666D01*
X143962380Y-134683428D01*
X143962380Y-134492952D01*
X143914761Y-134397714D01*
X143867142Y-134350095D01*
X143771904Y-134302476D01*
X142962380Y-134302476D01*
X143057619Y-133873904D02*
X143010000Y-133826285D01*
X142962380Y-133731047D01*
X142962380Y-133492952D01*
X143010000Y-133397714D01*
X143057619Y-133350095D01*
X143152857Y-133302476D01*
X143248095Y-133302476D01*
X143390952Y-133350095D01*
X143962380Y-133921523D01*
X143962380Y-133302476D01*
X142962380Y-132182857D02*
X142962380Y-131516190D01*
X143962380Y-131944761D01*
X143295714Y-130706666D02*
X143962380Y-130706666D01*
X142914761Y-130944761D02*
X143629047Y-131182857D01*
X143629047Y-130563809D01*
X143962380Y-129706666D02*
X143962380Y-130182857D01*
X142962380Y-130182857D01*
X143914761Y-129420952D02*
X143962380Y-129278095D01*
X143962380Y-129040000D01*
X143914761Y-128944761D01*
X143867142Y-128897142D01*
X143771904Y-128849523D01*
X143676666Y-128849523D01*
X143581428Y-128897142D01*
X143533809Y-128944761D01*
X143486190Y-129040000D01*
X143438571Y-129230476D01*
X143390952Y-129325714D01*
X143343333Y-129373333D01*
X143248095Y-129420952D01*
X143152857Y-129420952D01*
X143057619Y-129373333D01*
X143010000Y-129325714D01*
X142962380Y-129230476D01*
X142962380Y-128992380D01*
X143010000Y-128849523D01*
X143390952Y-128278095D02*
X143343333Y-128373333D01*
X143295714Y-128420952D01*
X143200476Y-128468571D01*
X143152857Y-128468571D01*
X143057619Y-128420952D01*
X143010000Y-128373333D01*
X142962380Y-128278095D01*
X142962380Y-128087619D01*
X143010000Y-127992380D01*
X143057619Y-127944761D01*
X143152857Y-127897142D01*
X143200476Y-127897142D01*
X143295714Y-127944761D01*
X143343333Y-127992380D01*
X143390952Y-128087619D01*
X143390952Y-128278095D01*
X143438571Y-128373333D01*
X143486190Y-128420952D01*
X143581428Y-128468571D01*
X143771904Y-128468571D01*
X143867142Y-128420952D01*
X143914761Y-128373333D01*
X143962380Y-128278095D01*
X143962380Y-128087619D01*
X143914761Y-127992380D01*
X143867142Y-127944761D01*
X143771904Y-127897142D01*
X143581428Y-127897142D01*
X143486190Y-127944761D01*
X143438571Y-127992380D01*
X143390952Y-128087619D01*
X142962380Y-127040000D02*
X142962380Y-127230476D01*
X143010000Y-127325714D01*
X143057619Y-127373333D01*
X143200476Y-127468571D01*
X143390952Y-127516190D01*
X143771904Y-127516190D01*
X143867142Y-127468571D01*
X143914761Y-127420952D01*
X143962380Y-127325714D01*
X143962380Y-127135238D01*
X143914761Y-127040000D01*
X143867142Y-126992380D01*
X143771904Y-126944761D01*
X143533809Y-126944761D01*
X143438571Y-126992380D01*
X143390952Y-127040000D01*
X143343333Y-127135238D01*
X143343333Y-127325714D01*
X143390952Y-127420952D01*
X143438571Y-127468571D01*
X143533809Y-127516190D01*
%TO.C,U1*%
X142962380Y-66166904D02*
X143771904Y-66166904D01*
X143867142Y-66119285D01*
X143914761Y-66071666D01*
X143962380Y-65976428D01*
X143962380Y-65785952D01*
X143914761Y-65690714D01*
X143867142Y-65643095D01*
X143771904Y-65595476D01*
X142962380Y-65595476D01*
X143962380Y-64595476D02*
X143962380Y-65166904D01*
X143962380Y-64881190D02*
X142962380Y-64881190D01*
X143105238Y-64976428D01*
X143200476Y-65071666D01*
X143248095Y-65166904D01*
X142962380Y-63444047D02*
X142962380Y-62777380D01*
X143962380Y-63205952D01*
X143295714Y-61967857D02*
X143962380Y-61967857D01*
X142914761Y-62205952D02*
X143629047Y-62444047D01*
X143629047Y-61825000D01*
X143962380Y-60967857D02*
X143962380Y-61444047D01*
X142962380Y-61444047D01*
X143914761Y-60682142D02*
X143962380Y-60539285D01*
X143962380Y-60301190D01*
X143914761Y-60205952D01*
X143867142Y-60158333D01*
X143771904Y-60110714D01*
X143676666Y-60110714D01*
X143581428Y-60158333D01*
X143533809Y-60205952D01*
X143486190Y-60301190D01*
X143438571Y-60491666D01*
X143390952Y-60586904D01*
X143343333Y-60634523D01*
X143248095Y-60682142D01*
X143152857Y-60682142D01*
X143057619Y-60634523D01*
X143010000Y-60586904D01*
X142962380Y-60491666D01*
X142962380Y-60253571D01*
X143010000Y-60110714D01*
X143962380Y-59158333D02*
X143962380Y-59729761D01*
X143962380Y-59444047D02*
X142962380Y-59444047D01*
X143105238Y-59539285D01*
X143200476Y-59634523D01*
X143248095Y-59729761D01*
X142962380Y-58825000D02*
X142962380Y-58158333D01*
X143962380Y-58586904D01*
X142962380Y-57301190D02*
X142962380Y-57777380D01*
X143438571Y-57825000D01*
X143390952Y-57777380D01*
X143343333Y-57682142D01*
X143343333Y-57444047D01*
X143390952Y-57348809D01*
X143438571Y-57301190D01*
X143533809Y-57253571D01*
X143771904Y-57253571D01*
X143867142Y-57301190D01*
X143914761Y-57348809D01*
X143962380Y-57444047D01*
X143962380Y-57682142D01*
X143914761Y-57777380D01*
X143867142Y-57825000D01*
%TO.C,SW1*%
X145558428Y-145502380D02*
X145748904Y-145502380D01*
X145844142Y-145550000D01*
X145939380Y-145645238D01*
X145987000Y-145835714D01*
X145987000Y-146169047D01*
X145939380Y-146359523D01*
X145844142Y-146454761D01*
X145748904Y-146502380D01*
X145558428Y-146502380D01*
X145463190Y-146454761D01*
X145367952Y-146359523D01*
X145320333Y-146169047D01*
X145320333Y-145835714D01*
X145367952Y-145645238D01*
X145463190Y-145550000D01*
X145558428Y-145502380D01*
X146415571Y-146502380D02*
X146415571Y-145502380D01*
X146987000Y-146502380D01*
X146987000Y-145502380D01*
X148225095Y-145978571D02*
X148987000Y-145978571D01*
X148987000Y-146264285D02*
X148225095Y-146264285D01*
X150082238Y-145502380D02*
X150653666Y-145502380D01*
X150367952Y-146502380D02*
X150367952Y-145502380D01*
X150987000Y-145502380D02*
X150987000Y-146311904D01*
X151034619Y-146407142D01*
X151082238Y-146454761D01*
X151177476Y-146502380D01*
X151367952Y-146502380D01*
X151463190Y-146454761D01*
X151510809Y-146407142D01*
X151558428Y-146311904D01*
X151558428Y-145502380D01*
X152606047Y-146502380D02*
X152272714Y-146026190D01*
X152034619Y-146502380D02*
X152034619Y-145502380D01*
X152415571Y-145502380D01*
X152510809Y-145550000D01*
X152558428Y-145597619D01*
X152606047Y-145692857D01*
X152606047Y-145835714D01*
X152558428Y-145930952D01*
X152510809Y-145978571D01*
X152415571Y-146026190D01*
X152034619Y-146026190D01*
X153367952Y-145978571D02*
X153510809Y-146026190D01*
X153558428Y-146073809D01*
X153606047Y-146169047D01*
X153606047Y-146311904D01*
X153558428Y-146407142D01*
X153510809Y-146454761D01*
X153415571Y-146502380D01*
X153034619Y-146502380D01*
X153034619Y-145502380D01*
X153367952Y-145502380D01*
X153463190Y-145550000D01*
X153510809Y-145597619D01*
X153558428Y-145692857D01*
X153558428Y-145788095D01*
X153510809Y-145883333D01*
X153463190Y-145930952D01*
X153367952Y-145978571D01*
X153034619Y-145978571D01*
X154225095Y-145502380D02*
X154415571Y-145502380D01*
X154510809Y-145550000D01*
X154606047Y-145645238D01*
X154653666Y-145835714D01*
X154653666Y-146169047D01*
X154606047Y-146359523D01*
X154510809Y-146454761D01*
X154415571Y-146502380D01*
X154225095Y-146502380D01*
X154129857Y-146454761D01*
X154034619Y-146359523D01*
X153987000Y-146169047D01*
X153987000Y-145835714D01*
X154034619Y-145645238D01*
X154129857Y-145550000D01*
X154225095Y-145502380D01*
%TO.C,J1*%
X142962380Y-147486000D02*
X142962380Y-146914571D01*
X143962380Y-147200285D02*
X142962380Y-147200285D01*
X142962380Y-146390761D02*
X142962380Y-146200285D01*
X143010000Y-146105047D01*
X143105238Y-146009809D01*
X143295714Y-145962190D01*
X143629047Y-145962190D01*
X143819523Y-146009809D01*
X143914761Y-146105047D01*
X143962380Y-146200285D01*
X143962380Y-146390761D01*
X143914761Y-146486000D01*
X143819523Y-146581238D01*
X143629047Y-146628857D01*
X143295714Y-146628857D01*
X143105238Y-146581238D01*
X143010000Y-146486000D01*
X142962380Y-146390761D01*
X143438571Y-144438380D02*
X143486190Y-144295523D01*
X143533809Y-144247904D01*
X143629047Y-144200285D01*
X143771904Y-144200285D01*
X143867142Y-144247904D01*
X143914761Y-144295523D01*
X143962380Y-144390761D01*
X143962380Y-144771714D01*
X142962380Y-144771714D01*
X142962380Y-144438380D01*
X143010000Y-144343142D01*
X143057619Y-144295523D01*
X143152857Y-144247904D01*
X143248095Y-144247904D01*
X143343333Y-144295523D01*
X143390952Y-144343142D01*
X143438571Y-144438380D01*
X143438571Y-144771714D01*
X142962380Y-143771714D02*
X143771904Y-143771714D01*
X143867142Y-143724095D01*
X143914761Y-143676476D01*
X143962380Y-143581238D01*
X143962380Y-143390761D01*
X143914761Y-143295523D01*
X143867142Y-143247904D01*
X143771904Y-143200285D01*
X142962380Y-143200285D01*
X143914761Y-142771714D02*
X143962380Y-142628857D01*
X143962380Y-142390761D01*
X143914761Y-142295523D01*
X143867142Y-142247904D01*
X143771904Y-142200285D01*
X143676666Y-142200285D01*
X143581428Y-142247904D01*
X143533809Y-142295523D01*
X143486190Y-142390761D01*
X143438571Y-142581238D01*
X143390952Y-142676476D01*
X143343333Y-142724095D01*
X143248095Y-142771714D01*
X143152857Y-142771714D01*
X143057619Y-142724095D01*
X143010000Y-142676476D01*
X142962380Y-142581238D01*
X142962380Y-142343142D01*
X143010000Y-142200285D01*
X143867142Y-140438380D02*
X143914761Y-140486000D01*
X143962380Y-140628857D01*
X143962380Y-140724095D01*
X143914761Y-140866952D01*
X143819523Y-140962190D01*
X143724285Y-141009809D01*
X143533809Y-141057428D01*
X143390952Y-141057428D01*
X143200476Y-141009809D01*
X143105238Y-140962190D01*
X143010000Y-140866952D01*
X142962380Y-140724095D01*
X142962380Y-140628857D01*
X143010000Y-140486000D01*
X143057619Y-140438380D01*
X143962380Y-139533619D02*
X143962380Y-140009809D01*
X142962380Y-140009809D01*
X142962380Y-139009809D02*
X142962380Y-138819333D01*
X143010000Y-138724095D01*
X143105238Y-138628857D01*
X143295714Y-138581238D01*
X143629047Y-138581238D01*
X143819523Y-138628857D01*
X143914761Y-138724095D01*
X143962380Y-138819333D01*
X143962380Y-139009809D01*
X143914761Y-139105047D01*
X143819523Y-139200285D01*
X143629047Y-139247904D01*
X143295714Y-139247904D01*
X143105238Y-139200285D01*
X143010000Y-139105047D01*
X142962380Y-139009809D01*
X143867142Y-137581238D02*
X143914761Y-137628857D01*
X143962380Y-137771714D01*
X143962380Y-137866952D01*
X143914761Y-138009809D01*
X143819523Y-138105047D01*
X143724285Y-138152666D01*
X143533809Y-138200285D01*
X143390952Y-138200285D01*
X143200476Y-138152666D01*
X143105238Y-138105047D01*
X143010000Y-138009809D01*
X142962380Y-137866952D01*
X142962380Y-137771714D01*
X143010000Y-137628857D01*
X143057619Y-137581238D01*
X143962380Y-137152666D02*
X142962380Y-137152666D01*
X143962380Y-136581238D02*
X143390952Y-137009809D01*
X142962380Y-136581238D02*
X143533809Y-137152666D01*
%TO.C,C3*%
X143867142Y-80811666D02*
X143914761Y-80859285D01*
X143962380Y-81002142D01*
X143962380Y-81097380D01*
X143914761Y-81240238D01*
X143819523Y-81335476D01*
X143724285Y-81383095D01*
X143533809Y-81430714D01*
X143390952Y-81430714D01*
X143200476Y-81383095D01*
X143105238Y-81335476D01*
X143010000Y-81240238D01*
X142962380Y-81097380D01*
X142962380Y-81002142D01*
X143010000Y-80859285D01*
X143057619Y-80811666D01*
X142962380Y-80478333D02*
X142962380Y-79859285D01*
X143343333Y-80192619D01*
X143343333Y-80049761D01*
X143390952Y-79954523D01*
X143438571Y-79906904D01*
X143533809Y-79859285D01*
X143771904Y-79859285D01*
X143867142Y-79906904D01*
X143914761Y-79954523D01*
X143962380Y-80049761D01*
X143962380Y-80335476D01*
X143914761Y-80430714D01*
X143867142Y-80478333D01*
X144232380Y-82145000D02*
X144232380Y-82049761D01*
X144280000Y-81954523D01*
X144327619Y-81906904D01*
X144422857Y-81859285D01*
X144613333Y-81811666D01*
X144851428Y-81811666D01*
X145041904Y-81859285D01*
X145137142Y-81906904D01*
X145184761Y-81954523D01*
X145232380Y-82049761D01*
X145232380Y-82145000D01*
X145184761Y-82240238D01*
X145137142Y-82287857D01*
X145041904Y-82335476D01*
X144851428Y-82383095D01*
X144613333Y-82383095D01*
X144422857Y-82335476D01*
X144327619Y-82287857D01*
X144280000Y-82240238D01*
X144232380Y-82145000D01*
X145137142Y-81383095D02*
X145184761Y-81335476D01*
X145232380Y-81383095D01*
X145184761Y-81430714D01*
X145137142Y-81383095D01*
X145232380Y-81383095D01*
X145232380Y-80383095D02*
X145232380Y-80954523D01*
X145232380Y-80668809D02*
X144232380Y-80668809D01*
X144375238Y-80764047D01*
X144470476Y-80859285D01*
X144518095Y-80954523D01*
X144565714Y-79525952D02*
X145232380Y-79525952D01*
X144565714Y-79954523D02*
X145089523Y-79954523D01*
X145184761Y-79906904D01*
X145232380Y-79811666D01*
X145232380Y-79668809D01*
X145184761Y-79573571D01*
X145137142Y-79525952D01*
X144565714Y-79192619D02*
X144565714Y-78811666D01*
X145232380Y-79049761D02*
X144375238Y-79049761D01*
X144280000Y-79002142D01*
X144232380Y-78906904D01*
X144232380Y-78811666D01*
%TO.C,C2*%
X145137142Y-125896666D02*
X145184761Y-125944285D01*
X145232380Y-126087142D01*
X145232380Y-126182380D01*
X145184761Y-126325238D01*
X145089523Y-126420476D01*
X144994285Y-126468095D01*
X144803809Y-126515714D01*
X144660952Y-126515714D01*
X144470476Y-126468095D01*
X144375238Y-126420476D01*
X144280000Y-126325238D01*
X144232380Y-126182380D01*
X144232380Y-126087142D01*
X144280000Y-125944285D01*
X144327619Y-125896666D01*
X144327619Y-125515714D02*
X144280000Y-125468095D01*
X144232380Y-125372857D01*
X144232380Y-125134761D01*
X144280000Y-125039523D01*
X144327619Y-124991904D01*
X144422857Y-124944285D01*
X144518095Y-124944285D01*
X144660952Y-124991904D01*
X145232380Y-125563333D01*
X145232380Y-124944285D01*
X144232380Y-123420000D02*
X144232380Y-123324761D01*
X144280000Y-123229523D01*
X144327619Y-123181904D01*
X144422857Y-123134285D01*
X144613333Y-123086666D01*
X144851428Y-123086666D01*
X145041904Y-123134285D01*
X145137142Y-123181904D01*
X145184761Y-123229523D01*
X145232380Y-123324761D01*
X145232380Y-123420000D01*
X145184761Y-123515238D01*
X145137142Y-123562857D01*
X145041904Y-123610476D01*
X144851428Y-123658095D01*
X144613333Y-123658095D01*
X144422857Y-123610476D01*
X144327619Y-123562857D01*
X144280000Y-123515238D01*
X144232380Y-123420000D01*
X145137142Y-122658095D02*
X145184761Y-122610476D01*
X145232380Y-122658095D01*
X145184761Y-122705714D01*
X145137142Y-122658095D01*
X145232380Y-122658095D01*
X145232380Y-121658095D02*
X145232380Y-122229523D01*
X145232380Y-121943809D02*
X144232380Y-121943809D01*
X144375238Y-122039047D01*
X144470476Y-122134285D01*
X144518095Y-122229523D01*
X144565714Y-120800952D02*
X145232380Y-120800952D01*
X144565714Y-121229523D02*
X145089523Y-121229523D01*
X145184761Y-121181904D01*
X145232380Y-121086666D01*
X145232380Y-120943809D01*
X145184761Y-120848571D01*
X145137142Y-120800952D01*
X144565714Y-120467619D02*
X144565714Y-120086666D01*
X145232380Y-120324761D02*
X144375238Y-120324761D01*
X144280000Y-120277142D01*
X144232380Y-120181904D01*
X144232380Y-120086666D01*
%TO.C,C1*%
X143867142Y-54141666D02*
X143914761Y-54189285D01*
X143962380Y-54332142D01*
X143962380Y-54427380D01*
X143914761Y-54570238D01*
X143819523Y-54665476D01*
X143724285Y-54713095D01*
X143533809Y-54760714D01*
X143390952Y-54760714D01*
X143200476Y-54713095D01*
X143105238Y-54665476D01*
X143010000Y-54570238D01*
X142962380Y-54427380D01*
X142962380Y-54332142D01*
X143010000Y-54189285D01*
X143057619Y-54141666D01*
X143962380Y-53189285D02*
X143962380Y-53760714D01*
X143962380Y-53475000D02*
X142962380Y-53475000D01*
X143105238Y-53570238D01*
X143200476Y-53665476D01*
X143248095Y-53760714D01*
X144232380Y-55617857D02*
X144232380Y-55522619D01*
X144280000Y-55427380D01*
X144327619Y-55379761D01*
X144422857Y-55332142D01*
X144613333Y-55284523D01*
X144851428Y-55284523D01*
X145041904Y-55332142D01*
X145137142Y-55379761D01*
X145184761Y-55427380D01*
X145232380Y-55522619D01*
X145232380Y-55617857D01*
X145184761Y-55713095D01*
X145137142Y-55760714D01*
X145041904Y-55808333D01*
X144851428Y-55855952D01*
X144613333Y-55855952D01*
X144422857Y-55808333D01*
X144327619Y-55760714D01*
X144280000Y-55713095D01*
X144232380Y-55617857D01*
X145137142Y-54855952D02*
X145184761Y-54808333D01*
X145232380Y-54855952D01*
X145184761Y-54903571D01*
X145137142Y-54855952D01*
X145232380Y-54855952D01*
X145232380Y-53855952D02*
X145232380Y-54427380D01*
X145232380Y-54141666D02*
X144232380Y-54141666D01*
X144375238Y-54236904D01*
X144470476Y-54332142D01*
X144518095Y-54427380D01*
X144565714Y-52998809D02*
X145232380Y-52998809D01*
X144565714Y-53427380D02*
X145089523Y-53427380D01*
X145184761Y-53379761D01*
X145232380Y-53284523D01*
X145232380Y-53141666D01*
X145184761Y-53046428D01*
X145137142Y-52998809D01*
X144708571Y-52189285D02*
X144708571Y-52522619D01*
X145232380Y-52522619D02*
X144232380Y-52522619D01*
X144232380Y-52046428D01*
%TD*%
M02*
