%TF.GenerationSoftware,KiCad,Pcbnew,(5.1.9)-1*%
%TF.CreationDate,2021-02-21T18:50:27+08:00*%
%TF.ProjectId,CoCoProtoBoard,436f436f-5072-46f7-946f-426f6172642e,rev?*%
%TF.SameCoordinates,Original*%
%TF.FileFunction,Profile,NP*%
%FSLAX46Y46*%
G04 Gerber Fmt 4.6, Leading zero omitted, Abs format (unit mm)*
G04 Created by KiCad (PCBNEW (5.1.9)-1) date 2021-02-21 18:50:27*
%MOMM*%
%LPD*%
G01*
G04 APERTURE LIST*
%TA.AperFunction,Profile*%
%ADD10C,0.150000*%
%TD*%
G04 APERTURE END LIST*
D10*
X144840000Y-104140000D02*
G75*
G03*
X144840000Y-104140000I-3400000J0D01*
G01*
X189940000Y-56140000D02*
X187940000Y-56140000D01*
X191440000Y-150640000D02*
X191440000Y-57640000D01*
X187940000Y-152140000D02*
X189940000Y-152140000D01*
X103440000Y-57640000D02*
X103440000Y-65640000D01*
X187940000Y-56140000D02*
X104940000Y-56140000D01*
X104940000Y-152140000D02*
X187940000Y-152140000D01*
X103440000Y-142640000D02*
X103440000Y-150640000D01*
X95140000Y-141140000D02*
X101940000Y-141140000D01*
X94640000Y-135140000D02*
X94640000Y-140640000D01*
X95140000Y-134640000D02*
X100640000Y-134640000D01*
X95140000Y-67140000D02*
X101940000Y-67140000D01*
X94640000Y-67640000D02*
X94640000Y-73140000D01*
X95140000Y-73640000D02*
X100640000Y-73640000D01*
X94640000Y-140640000D02*
G75*
G03*
X95140000Y-141140000I500000J0D01*
G01*
X95140000Y-134640000D02*
G75*
G03*
X94640000Y-135140000I0J-500000D01*
G01*
X103440000Y-142640000D02*
G75*
G03*
X101940000Y-141140000I-1500000J0D01*
G01*
X103440000Y-150640000D02*
G75*
G03*
X104940000Y-152140000I1500000J0D01*
G01*
X189940000Y-152140000D02*
G75*
G03*
X191440000Y-150640000I0J1500000D01*
G01*
X191440000Y-57640000D02*
G75*
G03*
X189940000Y-56140000I-1500000J0D01*
G01*
X104940000Y-56140000D02*
G75*
G03*
X103440000Y-57640000I0J-1500000D01*
G01*
X101940000Y-67140000D02*
G75*
G03*
X103440000Y-65640000I0J1500000D01*
G01*
X95140000Y-67140000D02*
G75*
G03*
X94640000Y-67640000I0J-500000D01*
G01*
X94640000Y-73140000D02*
G75*
G03*
X95140000Y-73640000I500000J0D01*
G01*
X91440000Y-78890000D02*
X91440000Y-79140000D01*
X92690000Y-77640000D02*
X93440000Y-77640000D01*
X92690000Y-77640000D02*
G75*
G03*
X91440000Y-78890000I0J-1250000D01*
G01*
X91440000Y-129390000D02*
X91440000Y-129140000D01*
X92690000Y-130640000D02*
X93440000Y-130640000D01*
X91440000Y-129390000D02*
G75*
G03*
X92690000Y-130640000I1250000J0D01*
G01*
X100640000Y-130640000D02*
X100640000Y-134640000D01*
X93440000Y-130640000D02*
X100640000Y-130640000D01*
X100640000Y-77640000D02*
X100640000Y-73640000D01*
X93440000Y-77640000D02*
X100640000Y-77640000D01*
X91440000Y-79140000D02*
X91440000Y-129140000D01*
M02*
