M48
; DRILL file {KiCad (5.1.9)-1} date 02/21/21 18:50:39
; FORMAT={-:-/ absolute / metric / decimal}
; #@! TF.CreationDate,2021-02-21T18:50:39+08:00
; #@! TF.GenerationSoftware,Kicad,Pcbnew,(5.1.9)-1
FMAT,2
METRIC
T1C0.500
T2C0.600
T3C0.800
T4C3.200
%
G90
G05
T1
X101.6Y-81.28
X101.6Y-83.82
X101.6Y-86.36
X103.124Y-127.0
X103.632Y-124.206
X104.14Y-118.11
X104.775Y-90.17
X104.775Y-92.71
X104.775Y-95.25
X104.775Y-97.79
X104.775Y-101.6
X104.775Y-104.14
X104.775Y-106.68
X104.775Y-109.22
X104.775Y-111.76
X104.775Y-114.3
X105.41Y-118.11
X105.918Y-126.238
X106.68Y-118.11
X106.68Y-124.968
X107.315Y-128.27
X111.506Y-95.758
X112.014Y-98.806
X112.014Y-102.108
X112.014Y-104.902
T2
X102.235Y-120.65
X102.87Y-78.74
X103.505Y-121.92
X104.14Y-78.74
X104.394Y-137.795
X115.57Y-121.92
X120.65Y-76.2
X120.65Y-81.28
X121.285Y-121.92
X123.825Y-78.74
X125.73Y-78.74
T3
X115.57Y-58.42
X115.57Y-60.96
X115.57Y-63.5
X115.57Y-66.04
X115.57Y-68.58
X115.57Y-71.12
X115.57Y-73.66
X115.57Y-76.2
X115.57Y-81.28
X115.57Y-83.82
X115.57Y-86.36
X115.57Y-88.9
X115.57Y-91.44
X115.57Y-93.98
X115.57Y-96.52
X115.57Y-99.06
X115.57Y-101.6
X115.57Y-104.14
X115.57Y-106.68
X115.57Y-109.22
X115.57Y-111.76
X115.57Y-114.3
X115.57Y-116.84
X115.57Y-119.38
X115.57Y-124.46
X115.57Y-127.0
X115.57Y-129.54
X115.57Y-132.08
X115.57Y-134.62
X115.57Y-137.16
X115.57Y-139.7
X115.57Y-142.24
X115.57Y-144.78
X115.57Y-147.32
X115.57Y-149.86
X118.11Y-58.42
X118.11Y-60.96
X118.11Y-63.5
X118.11Y-66.04
X118.11Y-68.58
X118.11Y-71.12
X118.11Y-73.66
X118.11Y-76.2
X118.11Y-81.28
X118.11Y-83.82
X118.11Y-86.36
X118.11Y-88.9
X118.11Y-91.44
X118.11Y-93.98
X118.11Y-96.52
X118.11Y-99.06
X118.11Y-101.6
X118.11Y-104.14
X118.11Y-106.68
X118.11Y-109.22
X118.11Y-111.76
X118.11Y-114.3
X118.11Y-116.84
X118.11Y-119.38
X118.11Y-124.46
X118.11Y-127.0
X118.11Y-129.54
X118.11Y-132.08
X118.11Y-134.62
X118.11Y-137.16
X118.11Y-139.7
X118.11Y-142.24
X118.11Y-144.78
X118.11Y-147.32
X118.11Y-149.86
X122.555Y-68.58
X122.555Y-71.12
X122.555Y-73.66
X122.555Y-76.2
X122.555Y-81.28
X122.555Y-83.82
X122.555Y-86.36
X122.555Y-88.9
X122.555Y-91.44
X122.555Y-93.98
X122.555Y-96.52
X122.555Y-99.06
X122.555Y-101.6
X122.555Y-104.14
X122.555Y-106.68
X122.555Y-109.22
X122.555Y-111.76
X122.555Y-114.3
X122.555Y-116.84
X122.555Y-119.38
X122.555Y-124.46
X122.555Y-127.0
X122.555Y-129.54
X122.555Y-132.08
X122.555Y-134.62
X122.555Y-137.16
X122.555Y-139.7
X122.555Y-142.24
X122.555Y-144.78
X122.555Y-147.32
X122.555Y-149.86
X123.865Y-62.23
X125.73Y-68.58
X125.73Y-71.12
X125.73Y-73.66
X125.73Y-76.2
X125.73Y-81.28
X125.73Y-83.82
X125.73Y-86.36
X125.73Y-88.9
X125.73Y-91.44
X125.73Y-93.98
X125.73Y-96.52
X125.73Y-99.06
X125.73Y-101.6
X125.73Y-104.14
X125.73Y-106.68
X125.73Y-109.22
X125.73Y-111.76
X125.73Y-114.3
X125.73Y-116.84
X125.73Y-119.38
X125.73Y-124.46
X125.73Y-127.0
X125.73Y-129.54
X125.73Y-132.08
X125.73Y-134.62
X125.73Y-137.16
X125.73Y-139.7
X125.73Y-142.24
X125.73Y-144.78
X125.73Y-147.32
X126.365Y-62.23
X128.905Y-66.04
X128.905Y-68.58
X128.905Y-71.12
X128.905Y-73.66
X128.905Y-76.2
X128.905Y-78.74
X128.905Y-81.28
X128.905Y-83.82
X128.905Y-86.36
X128.905Y-88.9
X128.905Y-91.44
X128.905Y-93.98
X128.905Y-96.52
X128.905Y-99.06
X128.905Y-101.6
X128.905Y-104.14
X128.905Y-106.68
X128.905Y-109.22
X128.905Y-111.76
X128.905Y-114.3
X128.905Y-116.84
X128.905Y-119.38
X128.905Y-121.92
X128.905Y-124.46
X128.905Y-127.0
X128.905Y-129.54
X128.905Y-132.08
X128.905Y-134.62
X128.905Y-137.16
X128.905Y-139.7
X128.905Y-142.24
X128.905Y-144.78
X128.905Y-147.32
X130.81Y-60.96
X130.81Y-63.5
X131.445Y-66.04
X131.445Y-68.58
X131.445Y-71.12
X131.445Y-73.66
X131.445Y-76.2
X131.445Y-78.74
X131.445Y-81.28
X131.445Y-83.82
X131.445Y-86.36
X131.445Y-88.9
X131.445Y-91.44
X131.445Y-93.98
X131.445Y-96.52
X131.445Y-99.06
X131.445Y-101.6
X131.445Y-104.14
X131.445Y-106.68
X131.445Y-109.22
X131.445Y-111.76
X131.445Y-114.3
X131.445Y-116.84
X131.445Y-119.38
X131.445Y-121.92
X131.445Y-124.46
X131.445Y-127.0
X131.445Y-129.54
X131.445Y-132.08
X131.445Y-134.62
X131.445Y-137.16
X131.445Y-139.7
X131.445Y-142.24
X131.445Y-144.78
X131.445Y-147.32
X133.35Y-60.96
X133.35Y-63.5
X133.985Y-66.04
X133.985Y-68.58
X133.985Y-71.12
X133.985Y-73.66
X133.985Y-76.2
X133.985Y-78.74
X133.985Y-81.28
X133.985Y-83.82
X133.985Y-86.36
X133.985Y-88.9
X133.985Y-91.44
X133.985Y-93.98
X133.985Y-96.52
X133.985Y-99.06
X133.985Y-101.6
X133.985Y-104.14
X133.985Y-106.68
X133.985Y-109.22
X133.985Y-111.76
X133.985Y-114.3
X133.985Y-116.84
X133.985Y-119.38
X133.985Y-121.92
X133.985Y-124.46
X133.985Y-127.0
X133.985Y-129.54
X133.985Y-132.08
X133.985Y-134.62
X133.985Y-137.16
X133.985Y-139.7
X133.985Y-142.24
X133.985Y-144.78
X133.985Y-147.32
X135.89Y-63.5
X136.525Y-66.04
X136.525Y-68.58
X136.525Y-71.12
X136.525Y-73.66
X136.525Y-76.2
X136.525Y-78.74
X136.525Y-81.28
X136.525Y-83.82
X136.525Y-86.36
X136.525Y-88.9
X136.525Y-91.44
X136.525Y-93.98
X136.525Y-96.52
X136.525Y-99.06
X136.525Y-101.6
X136.525Y-104.14
X136.525Y-106.68
X136.525Y-109.22
X136.525Y-111.76
X136.525Y-114.3
X136.525Y-116.84
X136.525Y-119.38
X136.525Y-121.92
X136.525Y-124.46
X136.525Y-127.0
X136.525Y-129.54
X136.525Y-132.08
X136.525Y-134.62
X136.525Y-137.16
X136.525Y-139.7
X136.525Y-142.24
X136.525Y-144.78
X139.065Y-66.04
X139.065Y-68.58
X139.065Y-71.12
X139.065Y-73.66
X139.065Y-76.2
X139.065Y-78.74
X139.065Y-81.28
X139.065Y-83.82
X139.065Y-86.36
X139.065Y-88.9
X139.065Y-91.44
X139.065Y-93.98
X139.065Y-96.52
X139.065Y-99.06
X139.065Y-109.22
X139.065Y-111.76
X139.065Y-114.3
X139.065Y-116.84
X139.065Y-119.38
X139.065Y-121.92
X139.065Y-124.46
X139.065Y-127.0
X139.065Y-129.54
X139.065Y-132.08
X139.065Y-134.62
X139.065Y-137.16
X139.065Y-139.7
X139.065Y-142.24
X141.605Y-66.04
X141.605Y-68.58
X141.605Y-71.12
X141.605Y-73.66
X141.605Y-76.2
X141.605Y-78.74
X141.605Y-81.28
X141.605Y-83.82
X141.605Y-86.36
X141.605Y-88.9
X141.605Y-91.44
X141.605Y-93.98
X141.605Y-96.52
X141.605Y-99.06
X141.605Y-109.22
X141.605Y-111.76
X141.605Y-114.3
X141.605Y-116.84
X141.605Y-119.38
X141.605Y-121.92
X141.605Y-124.46
X141.605Y-127.0
X141.605Y-129.54
X141.605Y-132.08
X141.605Y-134.62
X141.605Y-137.16
X141.605Y-139.7
X141.605Y-142.24
X144.145Y-66.04
X144.145Y-68.58
X144.145Y-71.12
X144.145Y-73.66
X144.145Y-76.2
X144.145Y-78.74
X144.145Y-81.28
X144.145Y-83.82
X144.145Y-86.36
X144.145Y-88.9
X144.145Y-91.44
X144.145Y-93.98
X144.145Y-96.52
X144.145Y-99.06
X144.145Y-109.22
X144.145Y-111.76
X144.145Y-114.3
X144.145Y-116.84
X144.145Y-119.38
X144.145Y-121.92
X144.145Y-124.46
X144.145Y-127.0
X144.145Y-129.54
X144.145Y-132.08
X144.145Y-134.62
X144.145Y-137.16
X144.145Y-139.7
X144.145Y-142.24
X146.685Y-66.04
X146.685Y-68.58
X146.685Y-71.12
X146.685Y-73.66
X146.685Y-76.2
X146.685Y-78.74
X146.685Y-81.28
X146.685Y-83.82
X146.685Y-86.36
X146.685Y-88.9
X146.685Y-91.44
X146.685Y-93.98
X146.685Y-96.52
X146.685Y-99.06
X146.685Y-101.6
X146.685Y-104.14
X146.685Y-106.68
X146.685Y-109.22
X146.685Y-111.76
X146.685Y-114.3
X146.685Y-116.84
X146.685Y-119.38
X146.685Y-121.92
X146.685Y-124.46
X146.685Y-127.0
X146.685Y-129.54
X146.685Y-132.08
X146.685Y-134.62
X146.685Y-137.16
X146.685Y-139.7
X146.685Y-142.24
X149.225Y-57.785
X149.225Y-60.96
X149.225Y-63.5
X149.225Y-66.04
X149.225Y-68.58
X149.225Y-71.12
X149.225Y-73.66
X149.225Y-76.2
X149.225Y-78.74
X149.225Y-81.28
X149.225Y-83.82
X149.225Y-86.36
X149.225Y-88.9
X149.225Y-91.44
X149.225Y-93.98
X149.225Y-96.52
X149.225Y-99.06
X149.225Y-101.6
X149.225Y-104.14
X149.225Y-106.68
X149.225Y-109.22
X149.225Y-111.76
X149.225Y-114.3
X149.225Y-116.84
X149.225Y-119.38
X149.225Y-121.92
X149.225Y-124.46
X149.225Y-127.0
X149.225Y-129.54
X149.225Y-132.08
X149.225Y-134.62
X149.225Y-137.16
X149.225Y-139.7
X149.225Y-142.24
X149.225Y-144.78
X149.225Y-147.32
X149.225Y-150.495
X151.765Y-57.785
X151.765Y-60.96
X151.765Y-63.5
X151.765Y-66.04
X151.765Y-68.58
X151.765Y-71.12
X151.765Y-73.66
X151.765Y-76.2
X151.765Y-78.74
X151.765Y-81.28
X151.765Y-83.82
X151.765Y-86.36
X151.765Y-88.9
X151.765Y-91.44
X151.765Y-93.98
X151.765Y-96.52
X151.765Y-99.06
X151.765Y-101.6
X151.765Y-104.14
X151.765Y-106.68
X151.765Y-109.22
X151.765Y-111.76
X151.765Y-114.3
X151.765Y-116.84
X151.765Y-119.38
X151.765Y-121.92
X151.765Y-124.46
X151.765Y-127.0
X151.765Y-129.54
X151.765Y-132.08
X151.765Y-134.62
X151.765Y-137.16
X151.765Y-139.7
X151.765Y-142.24
X151.765Y-144.78
X151.765Y-147.32
X151.765Y-150.495
X154.305Y-57.785
X154.305Y-60.96
X154.305Y-63.5
X154.305Y-66.04
X154.305Y-68.58
X154.305Y-71.12
X154.305Y-73.66
X154.305Y-76.2
X154.305Y-78.74
X154.305Y-81.28
X154.305Y-83.82
X154.305Y-86.36
X154.305Y-88.9
X154.305Y-91.44
X154.305Y-93.98
X154.305Y-96.52
X154.305Y-99.06
X154.305Y-101.6
X154.305Y-104.14
X154.305Y-106.68
X154.305Y-109.22
X154.305Y-111.76
X154.305Y-114.3
X154.305Y-116.84
X154.305Y-119.38
X154.305Y-121.92
X154.305Y-124.46
X154.305Y-127.0
X154.305Y-129.54
X154.305Y-132.08
X154.305Y-134.62
X154.305Y-137.16
X154.305Y-139.7
X154.305Y-142.24
X154.305Y-144.78
X154.305Y-147.32
X154.305Y-150.495
X156.845Y-57.785
X156.845Y-57.785
X156.845Y-60.96
X156.845Y-63.5
X156.845Y-66.04
X156.845Y-68.58
X156.845Y-71.12
X156.845Y-73.66
X156.845Y-76.2
X156.845Y-78.74
X156.845Y-81.28
X156.845Y-83.82
X156.845Y-86.36
X156.845Y-88.9
X156.845Y-91.44
X156.845Y-93.98
X156.845Y-96.52
X156.845Y-99.06
X156.845Y-101.6
X156.845Y-104.14
X156.845Y-106.68
X156.845Y-109.22
X156.845Y-111.76
X156.845Y-114.3
X156.845Y-116.84
X156.845Y-119.38
X156.845Y-121.92
X156.845Y-124.46
X156.845Y-127.0
X156.845Y-129.54
X156.845Y-132.08
X156.845Y-134.62
X156.845Y-137.16
X156.845Y-139.7
X156.845Y-142.24
X156.845Y-144.78
X156.845Y-147.32
X156.845Y-150.495
X159.385Y-57.785
X159.385Y-60.96
X159.385Y-63.5
X159.385Y-66.04
X159.385Y-68.58
X159.385Y-71.12
X159.385Y-73.66
X159.385Y-76.2
X159.385Y-78.74
X159.385Y-81.28
X159.385Y-83.82
X159.385Y-86.36
X159.385Y-88.9
X159.385Y-91.44
X159.385Y-93.98
X159.385Y-96.52
X159.385Y-99.06
X159.385Y-101.6
X159.385Y-104.14
X159.385Y-106.68
X159.385Y-109.22
X159.385Y-111.76
X159.385Y-114.3
X159.385Y-116.84
X159.385Y-119.38
X159.385Y-121.92
X159.385Y-124.46
X159.385Y-127.0
X159.385Y-129.54
X159.385Y-132.08
X159.385Y-134.62
X159.385Y-137.16
X159.385Y-139.7
X159.385Y-142.24
X159.385Y-144.78
X159.385Y-147.32
X159.385Y-150.495
X161.925Y-57.785
X161.925Y-60.96
X161.925Y-63.5
X161.925Y-66.04
X161.925Y-68.58
X161.925Y-71.12
X161.925Y-73.66
X161.925Y-76.2
X161.925Y-78.74
X161.925Y-81.28
X161.925Y-83.82
X161.925Y-86.36
X161.925Y-88.9
X161.925Y-91.44
X161.925Y-93.98
X161.925Y-96.52
X161.925Y-99.06
X161.925Y-101.6
X161.925Y-104.14
X161.925Y-106.68
X161.925Y-109.22
X161.925Y-111.76
X161.925Y-114.3
X161.925Y-116.84
X161.925Y-119.38
X161.925Y-121.92
X161.925Y-124.46
X161.925Y-127.0
X161.925Y-129.54
X161.925Y-132.08
X161.925Y-134.62
X161.925Y-137.16
X161.925Y-139.7
X161.925Y-142.24
X161.925Y-144.78
X161.925Y-147.32
X161.925Y-150.495
X164.465Y-57.785
X164.465Y-60.96
X164.465Y-63.5
X164.465Y-66.04
X164.465Y-68.58
X164.465Y-71.12
X164.465Y-73.66
X164.465Y-76.2
X164.465Y-78.74
X164.465Y-81.28
X164.465Y-83.82
X164.465Y-86.36
X164.465Y-88.9
X164.465Y-91.44
X164.465Y-93.98
X164.465Y-96.52
X164.465Y-99.06
X164.465Y-101.6
X164.465Y-104.14
X164.465Y-106.68
X164.465Y-109.22
X164.465Y-111.76
X164.465Y-114.3
X164.465Y-116.84
X164.465Y-119.38
X164.465Y-121.92
X164.465Y-124.46
X164.465Y-127.0
X164.465Y-129.54
X164.465Y-132.08
X164.465Y-134.62
X164.465Y-137.16
X164.465Y-139.7
X164.465Y-142.24
X164.465Y-144.78
X164.465Y-147.32
X164.465Y-150.495
X167.005Y-57.785
X167.005Y-60.96
X167.005Y-63.5
X167.005Y-66.04
X167.005Y-68.58
X167.005Y-71.12
X167.005Y-73.66
X167.005Y-76.2
X167.005Y-78.74
X167.005Y-81.28
X167.005Y-83.82
X167.005Y-86.36
X167.005Y-88.9
X167.005Y-91.44
X167.005Y-93.98
X167.005Y-96.52
X167.005Y-99.06
X167.005Y-101.6
X167.005Y-104.14
X167.005Y-106.68
X167.005Y-109.22
X167.005Y-111.76
X167.005Y-114.3
X167.005Y-116.84
X167.005Y-119.38
X167.005Y-121.92
X167.005Y-124.46
X167.005Y-127.0
X167.005Y-129.54
X167.005Y-132.08
X167.005Y-134.62
X167.005Y-137.16
X167.005Y-139.7
X167.005Y-142.24
X167.005Y-144.78
X167.005Y-147.32
X167.005Y-150.495
X169.545Y-57.785
X169.545Y-60.96
X169.545Y-63.5
X169.545Y-66.04
X169.545Y-68.58
X169.545Y-71.12
X169.545Y-73.66
X169.545Y-76.2
X169.545Y-78.74
X169.545Y-81.28
X169.545Y-83.82
X169.545Y-86.36
X169.545Y-88.9
X169.545Y-91.44
X169.545Y-93.98
X169.545Y-96.52
X169.545Y-99.06
X169.545Y-101.6
X169.545Y-104.14
X169.545Y-106.68
X169.545Y-109.22
X169.545Y-111.76
X169.545Y-114.3
X169.545Y-116.84
X169.545Y-119.38
X169.545Y-121.92
X169.545Y-124.46
X169.545Y-127.0
X169.545Y-129.54
X169.545Y-132.08
X169.545Y-134.62
X169.545Y-137.16
X169.545Y-139.7
X169.545Y-142.24
X169.545Y-144.78
X169.545Y-147.32
X169.545Y-150.495
X172.085Y-57.785
X172.085Y-60.96
X172.085Y-63.5
X172.085Y-66.04
X172.085Y-68.58
X172.085Y-71.12
X172.085Y-73.66
X172.085Y-76.2
X172.085Y-78.74
X172.085Y-81.28
X172.085Y-83.82
X172.085Y-86.36
X172.085Y-88.9
X172.085Y-91.44
X172.085Y-93.98
X172.085Y-96.52
X172.085Y-99.06
X172.085Y-101.6
X172.085Y-104.14
X172.085Y-106.68
X172.085Y-109.22
X172.085Y-111.76
X172.085Y-114.3
X172.085Y-116.84
X172.085Y-119.38
X172.085Y-121.92
X172.085Y-124.46
X172.085Y-127.0
X172.085Y-129.54
X172.085Y-132.08
X172.085Y-134.62
X172.085Y-137.16
X172.085Y-139.7
X172.085Y-142.24
X172.085Y-144.78
X172.085Y-147.32
X172.085Y-150.495
X174.625Y-66.04
X174.625Y-68.58
X174.625Y-71.12
X174.625Y-73.66
X174.625Y-76.2
X174.625Y-78.74
X174.625Y-81.28
X174.625Y-83.82
X174.625Y-86.36
X174.625Y-88.9
X174.625Y-91.44
X174.625Y-93.98
X174.625Y-96.52
X174.625Y-99.06
X174.625Y-101.6
X174.625Y-104.14
X174.625Y-106.68
X174.625Y-109.22
X174.625Y-111.76
X174.625Y-114.3
X174.625Y-116.84
X174.625Y-119.38
X174.625Y-121.92
X174.625Y-124.46
X174.625Y-127.0
X174.625Y-129.54
X174.625Y-132.08
X174.625Y-134.62
X174.625Y-137.16
X174.625Y-139.7
X174.625Y-142.24
X177.165Y-66.04
X177.165Y-68.58
X177.165Y-71.12
X177.165Y-73.66
X177.165Y-76.2
X177.165Y-78.74
X177.165Y-81.28
X177.165Y-83.82
X177.165Y-86.36
X177.165Y-88.9
X177.165Y-91.44
X177.165Y-93.98
X177.165Y-96.52
X177.165Y-99.06
X177.165Y-101.6
X177.165Y-104.14
X177.165Y-106.68
X177.165Y-109.22
X177.165Y-111.76
X177.165Y-114.3
X177.165Y-116.84
X177.165Y-119.38
X177.165Y-121.92
X177.165Y-124.46
X177.165Y-127.0
X177.165Y-129.54
X177.165Y-132.08
X177.165Y-134.62
X177.165Y-137.16
X177.165Y-139.7
X177.165Y-142.24
X179.705Y-66.04
X179.705Y-68.58
X179.705Y-71.12
X179.705Y-73.66
X179.705Y-76.2
X179.705Y-78.74
X179.705Y-81.28
X179.705Y-83.82
X179.705Y-86.36
X179.705Y-88.9
X179.705Y-91.44
X179.705Y-93.98
X179.705Y-96.52
X179.705Y-99.06
X179.705Y-101.6
X179.705Y-104.14
X179.705Y-106.68
X179.705Y-109.22
X179.705Y-111.76
X179.705Y-114.3
X179.705Y-116.84
X179.705Y-119.38
X179.705Y-121.92
X179.705Y-124.46
X179.705Y-127.0
X179.705Y-129.54
X179.705Y-132.08
X179.705Y-134.62
X179.705Y-137.16
X179.705Y-139.7
X179.705Y-142.24
X182.245Y-66.04
X182.245Y-68.58
X182.245Y-71.12
X182.245Y-73.66
X182.245Y-76.2
X182.245Y-78.74
X182.245Y-81.28
X182.245Y-83.82
X182.245Y-86.36
X182.245Y-88.9
X182.245Y-91.44
X182.245Y-93.98
X182.245Y-96.52
X182.245Y-99.06
X182.245Y-101.6
X182.245Y-104.14
X182.245Y-106.68
X182.245Y-109.22
X182.245Y-111.76
X182.245Y-114.3
X182.245Y-116.84
X182.245Y-119.38
X182.245Y-121.92
X182.245Y-124.46
X182.245Y-127.0
X182.245Y-129.54
X182.245Y-132.08
X182.245Y-134.62
X182.245Y-137.16
X182.245Y-139.7
X182.245Y-142.24
X184.785Y-63.5
X184.785Y-66.04
X184.785Y-68.58
X184.785Y-71.12
X184.785Y-73.66
X184.785Y-76.2
X184.785Y-78.74
X184.785Y-81.28
X184.785Y-83.82
X184.785Y-86.36
X184.785Y-88.9
X184.785Y-91.44
X184.785Y-93.98
X184.785Y-96.52
X184.785Y-99.06
X184.785Y-101.6
X184.785Y-104.14
X184.785Y-106.68
X184.785Y-109.22
X184.785Y-111.76
X184.785Y-114.3
X184.785Y-116.84
X184.785Y-119.38
X184.785Y-121.92
X184.785Y-124.46
X184.785Y-127.0
X184.785Y-129.54
X184.785Y-132.08
X184.785Y-134.62
X184.785Y-137.16
X184.785Y-139.7
X184.785Y-142.24
X184.785Y-144.78
X187.325Y-58.42
X187.325Y-60.96
X187.325Y-63.5
X187.325Y-66.04
X187.325Y-68.58
X187.325Y-71.12
X187.325Y-73.66
X187.325Y-76.2
X187.325Y-78.74
X187.325Y-81.28
X187.325Y-83.82
X187.325Y-86.36
X187.325Y-88.9
X187.325Y-91.44
X187.325Y-93.98
X187.325Y-96.52
X187.325Y-99.06
X187.325Y-101.6
X187.325Y-104.14
X187.325Y-106.68
X187.325Y-109.22
X187.325Y-111.76
X187.325Y-114.3
X187.325Y-116.84
X187.325Y-119.38
X187.325Y-121.92
X187.325Y-124.46
X187.325Y-127.0
X187.325Y-129.54
X187.325Y-132.08
X187.325Y-134.62
X187.325Y-137.16
X187.325Y-139.7
X187.325Y-142.24
X187.325Y-144.78
X187.325Y-147.32
X187.325Y-149.86
X189.865Y-58.42
X189.865Y-60.96
X189.865Y-63.5
X189.865Y-66.04
X189.865Y-68.58
X189.865Y-71.12
X189.865Y-73.66
X189.865Y-76.2
X189.865Y-78.74
X189.865Y-81.28
X189.865Y-83.82
X189.865Y-86.36
X189.865Y-88.9
X189.865Y-91.44
X189.865Y-93.98
X189.865Y-96.52
X189.865Y-99.06
X189.865Y-101.6
X189.865Y-104.14
X189.865Y-106.68
X189.865Y-109.22
X189.865Y-111.76
X189.865Y-114.3
X189.865Y-116.84
X189.865Y-119.38
X189.865Y-121.92
X189.865Y-124.46
X189.865Y-127.0
X189.865Y-129.54
X189.865Y-132.08
X189.865Y-134.62
X189.865Y-137.16
X189.865Y-139.7
X189.865Y-142.24
X189.865Y-144.78
X189.865Y-147.32
X189.865Y-149.86
T4
X107.04Y-59.74
X107.04Y-148.54
X141.44Y-59.74
X141.44Y-148.54
X178.69Y-59.74
X178.69Y-148.54
T0
M30
