%TF.GenerationSoftware,KiCad,Pcbnew,(5.1.9)-1*%
%TF.CreationDate,2021-02-22T17:40:15+08:00*%
%TF.ProjectId,SmartWatchRedux,536d6172-7457-4617-9463-685265647578,rev?*%
%TF.SameCoordinates,Original*%
%TF.FileFunction,Soldermask,Top*%
%TF.FilePolarity,Negative*%
%FSLAX46Y46*%
G04 Gerber Fmt 4.6, Leading zero omitted, Abs format (unit mm)*
G04 Created by KiCad (PCBNEW (5.1.9)-1) date 2021-02-22 17:40:15*
%MOMM*%
%LPD*%
G01*
G04 APERTURE LIST*
%ADD10O,1.600000X1.600000*%
%ADD11R,1.600000X1.600000*%
%ADD12C,1.000000*%
%ADD13R,3.000000X3.000000*%
%ADD14C,3.000000*%
G04 APERTURE END LIST*
D10*
%TO.C,CN1*%
X123190000Y-63500000D03*
X107950000Y-96520000D03*
X123190000Y-66040000D03*
X107950000Y-93980000D03*
X123190000Y-68580000D03*
X107950000Y-91440000D03*
X123190000Y-71120000D03*
X107950000Y-88900000D03*
X123190000Y-73660000D03*
X107950000Y-86360000D03*
X123190000Y-76200000D03*
X107950000Y-83820000D03*
X123190000Y-78740000D03*
X107950000Y-81280000D03*
X123190000Y-81280000D03*
X107950000Y-78740000D03*
X123190000Y-83820000D03*
X107950000Y-76200000D03*
X123190000Y-86360000D03*
X107950000Y-73660000D03*
X123190000Y-88900000D03*
X107950000Y-71120000D03*
X123190000Y-91440000D03*
X107950000Y-68580000D03*
X123190000Y-93980000D03*
X107950000Y-66040000D03*
X123190000Y-96520000D03*
D11*
X107950000Y-63500000D03*
%TD*%
%TO.C,C1*%
G36*
G01*
X117257500Y-66835000D02*
X117257500Y-67785000D01*
G75*
G02*
X117007500Y-68035000I-250000J0D01*
G01*
X116332500Y-68035000D01*
G75*
G02*
X116082500Y-67785000I0J250000D01*
G01*
X116082500Y-66835000D01*
G75*
G02*
X116332500Y-66585000I250000J0D01*
G01*
X117007500Y-66585000D01*
G75*
G02*
X117257500Y-66835000I0J-250000D01*
G01*
G37*
G36*
G01*
X119332500Y-66835000D02*
X119332500Y-67785000D01*
G75*
G02*
X119082500Y-68035000I-250000J0D01*
G01*
X118407500Y-68035000D01*
G75*
G02*
X118157500Y-67785000I0J250000D01*
G01*
X118157500Y-66835000D01*
G75*
G02*
X118407500Y-66585000I250000J0D01*
G01*
X119082500Y-66585000D01*
G75*
G02*
X119332500Y-66835000I0J-250000D01*
G01*
G37*
%TD*%
D12*
%TO.C,Y1*%
X113030000Y-71755000D03*
X113030000Y-69855000D03*
%TD*%
D10*
%TO.C,U1*%
X125730000Y-63500000D03*
X110490000Y-96520000D03*
X125730000Y-66040000D03*
X110490000Y-93980000D03*
X125730000Y-68580000D03*
X110490000Y-91440000D03*
X125730000Y-71120000D03*
X110490000Y-88900000D03*
X125730000Y-73660000D03*
X110490000Y-86360000D03*
X125730000Y-76200000D03*
X110490000Y-83820000D03*
X125730000Y-78740000D03*
X110490000Y-81280000D03*
X125730000Y-81280000D03*
X110490000Y-78740000D03*
X125730000Y-83820000D03*
X110490000Y-76200000D03*
X125730000Y-86360000D03*
X110490000Y-73660000D03*
X125730000Y-88900000D03*
X110490000Y-71120000D03*
X125730000Y-91440000D03*
X110490000Y-68580000D03*
X125730000Y-93980000D03*
X110490000Y-66040000D03*
X125730000Y-96520000D03*
D11*
X110490000Y-63500000D03*
%TD*%
D10*
%TO.C,U2*%
X120650000Y-74930000D03*
X113030000Y-92710000D03*
X120650000Y-77470000D03*
X113030000Y-90170000D03*
X120650000Y-80010000D03*
X113030000Y-87630000D03*
X120650000Y-82550000D03*
X113030000Y-85090000D03*
X120650000Y-85090000D03*
X113030000Y-82550000D03*
X120650000Y-87630000D03*
X113030000Y-80010000D03*
X120650000Y-90170000D03*
X113030000Y-77470000D03*
X120650000Y-92710000D03*
D11*
X113030000Y-74930000D03*
%TD*%
D13*
%TO.C,BAT1*%
X116840000Y-59055000D03*
D14*
X116840000Y-38565000D03*
%TD*%
M02*
