M48
; DRILL file {KiCad (5.1.9)-1} date 02/22/21 17:40:19
; FORMAT={-:-/ absolute / metric / decimal}
; #@! TF.CreationDate,2021-02-22T17:40:19+08:00
; #@! TF.GenerationSoftware,Kicad,Pcbnew,(5.1.9)-1
FMAT,2
METRIC
T1C0.400
T2C0.500
T3C0.800
T4C1.500
%
G90
G05
T1
X112.395Y-96.52
X113.03Y-67.31
X114.3Y-96.52
X114.935Y-64.77
X114.935Y-67.31
X116.84Y-42.926
X116.84Y-54.356
X116.84Y-64.77
X116.84Y-73.66
X118.745Y-64.77
X118.745Y-73.66
X121.285Y-73.025
T2
X113.03Y-69.855
X113.03Y-71.755
T3
X107.95Y-63.5
X107.95Y-66.04
X107.95Y-68.58
X107.95Y-71.12
X107.95Y-73.66
X107.95Y-76.2
X107.95Y-78.74
X107.95Y-81.28
X107.95Y-83.82
X107.95Y-86.36
X107.95Y-88.9
X107.95Y-91.44
X107.95Y-93.98
X107.95Y-96.52
X110.49Y-63.5
X110.49Y-66.04
X110.49Y-68.58
X110.49Y-71.12
X110.49Y-73.66
X110.49Y-76.2
X110.49Y-78.74
X110.49Y-81.28
X110.49Y-83.82
X110.49Y-86.36
X110.49Y-88.9
X110.49Y-91.44
X110.49Y-93.98
X110.49Y-96.52
X113.03Y-74.93
X113.03Y-77.47
X113.03Y-80.01
X113.03Y-82.55
X113.03Y-85.09
X113.03Y-87.63
X113.03Y-90.17
X113.03Y-92.71
X120.65Y-74.93
X120.65Y-77.47
X120.65Y-80.01
X120.65Y-82.55
X120.65Y-85.09
X120.65Y-87.63
X120.65Y-90.17
X120.65Y-92.71
X123.19Y-63.5
X123.19Y-66.04
X123.19Y-68.58
X123.19Y-71.12
X123.19Y-73.66
X123.19Y-76.2
X123.19Y-78.74
X123.19Y-81.28
X123.19Y-83.82
X123.19Y-86.36
X123.19Y-88.9
X123.19Y-91.44
X123.19Y-93.98
X123.19Y-96.52
X125.73Y-63.5
X125.73Y-66.04
X125.73Y-68.58
X125.73Y-71.12
X125.73Y-73.66
X125.73Y-76.2
X125.73Y-78.74
X125.73Y-81.28
X125.73Y-83.82
X125.73Y-86.36
X125.73Y-88.9
X125.73Y-91.44
X125.73Y-93.98
X125.73Y-96.52
T4
X116.84Y-38.565
X116.84Y-59.055
T0
M30
