%TF.GenerationSoftware,KiCad,Pcbnew,(5.1.9)-1*%
%TF.CreationDate,2021-02-16T22:08:34+08:00*%
%TF.ProjectId,SmartWatchRedux,536d6172-7457-4617-9463-685265647578,rev?*%
%TF.SameCoordinates,Original*%
%TF.FileFunction,Copper,L1,Top*%
%TF.FilePolarity,Positive*%
%FSLAX46Y46*%
G04 Gerber Fmt 4.6, Leading zero omitted, Abs format (unit mm)*
G04 Created by KiCad (PCBNEW (5.1.9)-1) date 2021-02-16 22:08:34*
%MOMM*%
%LPD*%
G01*
G04 APERTURE LIST*
%TA.AperFunction,ComponentPad*%
%ADD10O,1.600000X1.600000*%
%TD*%
%TA.AperFunction,ComponentPad*%
%ADD11R,1.600000X1.600000*%
%TD*%
%TA.AperFunction,ComponentPad*%
%ADD12C,1.000000*%
%TD*%
%TA.AperFunction,ComponentPad*%
%ADD13R,3.000000X3.000000*%
%TD*%
%TA.AperFunction,ComponentPad*%
%ADD14C,3.000000*%
%TD*%
%TA.AperFunction,ViaPad*%
%ADD15C,0.800000*%
%TD*%
%TA.AperFunction,Conductor*%
%ADD16C,0.350000*%
%TD*%
%TA.AperFunction,Conductor*%
%ADD17C,0.500000*%
%TD*%
%TA.AperFunction,Conductor*%
%ADD18C,1.000000*%
%TD*%
%TA.AperFunction,Conductor*%
%ADD19C,0.250000*%
%TD*%
%TA.AperFunction,Conductor*%
%ADD20C,0.254000*%
%TD*%
%TA.AperFunction,Conductor*%
%ADD21C,0.100000*%
%TD*%
G04 APERTURE END LIST*
D10*
%TO.P,CN1,28*%
%TO.N,VCC*%
X123190000Y-63500000D03*
%TO.P,CN1,14*%
%TO.N,GND*%
X107950000Y-96520000D03*
%TO.P,CN1,27*%
%TO.N,Net-(CN1-Pad27)*%
X123190000Y-66040000D03*
%TO.P,CN1,13*%
%TO.N,Net-(CN1-Pad13)*%
X107950000Y-93980000D03*
%TO.P,CN1,26*%
%TO.N,Net-(CN1-Pad26)*%
X123190000Y-68580000D03*
%TO.P,CN1,12*%
%TO.N,Net-(CN1-Pad12)*%
X107950000Y-91440000D03*
%TO.P,CN1,25*%
%TO.N,Net-(CN1-Pad25)*%
X123190000Y-71120000D03*
%TO.P,CN1,11*%
%TO.N,Net-(CN1-Pad11)*%
X107950000Y-88900000D03*
%TO.P,CN1,24*%
%TO.N,Net-(CN1-Pad24)*%
X123190000Y-73660000D03*
%TO.P,CN1,10*%
%TO.N,Net-(CN1-Pad10)*%
X107950000Y-86360000D03*
%TO.P,CN1,23*%
%TO.N,Net-(CN1-Pad23)*%
X123190000Y-76200000D03*
%TO.P,CN1,9*%
%TO.N,Net-(CN1-Pad9)*%
X107950000Y-83820000D03*
%TO.P,CN1,22*%
%TO.N,Net-(CN1-Pad22)*%
X123190000Y-78740000D03*
%TO.P,CN1,8*%
%TO.N,Net-(CN1-Pad8)*%
X107950000Y-81280000D03*
%TO.P,CN1,21*%
%TO.N,Net-(CN1-Pad21)*%
X123190000Y-81280000D03*
%TO.P,CN1,7*%
%TO.N,Net-(CN1-Pad7)*%
X107950000Y-78740000D03*
%TO.P,CN1,20*%
%TO.N,Net-(CN1-Pad20)*%
X123190000Y-83820000D03*
%TO.P,CN1,6*%
%TO.N,Net-(CN1-Pad6)*%
X107950000Y-76200000D03*
%TO.P,CN1,19*%
%TO.N,Net-(CN1-Pad19)*%
X123190000Y-86360000D03*
%TO.P,CN1,5*%
%TO.N,Net-(CN1-Pad5)*%
X107950000Y-73660000D03*
%TO.P,CN1,18*%
%TO.N,Net-(CN1-Pad18)*%
X123190000Y-88900000D03*
%TO.P,CN1,4*%
%TO.N,Net-(CN1-Pad4)*%
X107950000Y-71120000D03*
%TO.P,CN1,17*%
%TO.N,Net-(CN1-Pad17)*%
X123190000Y-91440000D03*
%TO.P,CN1,3*%
%TO.N,Net-(CN1-Pad3)*%
X107950000Y-68580000D03*
%TO.P,CN1,16*%
%TO.N,Net-(CN1-Pad16)*%
X123190000Y-93980000D03*
%TO.P,CN1,2*%
%TO.N,Net-(CN1-Pad2)*%
X107950000Y-66040000D03*
%TO.P,CN1,15*%
%TO.N,Net-(CN1-Pad15)*%
X123190000Y-96520000D03*
D11*
%TO.P,CN1,1*%
%TO.N,Net-(CN1-Pad1)*%
X107950000Y-63500000D03*
%TD*%
%TO.P,C1,2*%
%TO.N,GND*%
%TA.AperFunction,SMDPad,CuDef*%
G36*
G01*
X117257500Y-66835000D02*
X117257500Y-67785000D01*
G75*
G02*
X117007500Y-68035000I-250000J0D01*
G01*
X116332500Y-68035000D01*
G75*
G02*
X116082500Y-67785000I0J250000D01*
G01*
X116082500Y-66835000D01*
G75*
G02*
X116332500Y-66585000I250000J0D01*
G01*
X117007500Y-66585000D01*
G75*
G02*
X117257500Y-66835000I0J-250000D01*
G01*
G37*
%TD.AperFunction*%
%TO.P,C1,1*%
%TO.N,VCC*%
%TA.AperFunction,SMDPad,CuDef*%
G36*
G01*
X119332500Y-66835000D02*
X119332500Y-67785000D01*
G75*
G02*
X119082500Y-68035000I-250000J0D01*
G01*
X118407500Y-68035000D01*
G75*
G02*
X118157500Y-67785000I0J250000D01*
G01*
X118157500Y-66835000D01*
G75*
G02*
X118407500Y-66585000I250000J0D01*
G01*
X119082500Y-66585000D01*
G75*
G02*
X119332500Y-66835000I0J-250000D01*
G01*
G37*
%TD.AperFunction*%
%TD*%
D12*
%TO.P,Y1,1*%
%TO.N,/XTAL1*%
X113030000Y-71755000D03*
%TO.P,Y1,2*%
%TO.N,/XTAL2*%
X113030000Y-69855000D03*
%TD*%
D10*
%TO.P,U1,28*%
%TO.N,VCC*%
X125730000Y-63500000D03*
%TO.P,U1,14*%
%TO.N,GND*%
X110490000Y-96520000D03*
%TO.P,U1,27*%
%TO.N,Net-(CN1-Pad27)*%
X125730000Y-66040000D03*
%TO.P,U1,13*%
%TO.N,Net-(CN1-Pad13)*%
X110490000Y-93980000D03*
%TO.P,U1,26*%
%TO.N,Net-(CN1-Pad26)*%
X125730000Y-68580000D03*
%TO.P,U1,12*%
%TO.N,Net-(CN1-Pad12)*%
X110490000Y-91440000D03*
%TO.P,U1,25*%
%TO.N,Net-(CN1-Pad25)*%
X125730000Y-71120000D03*
%TO.P,U1,11*%
%TO.N,Net-(CN1-Pad11)*%
X110490000Y-88900000D03*
%TO.P,U1,24*%
%TO.N,Net-(CN1-Pad24)*%
X125730000Y-73660000D03*
%TO.P,U1,10*%
%TO.N,Net-(CN1-Pad10)*%
X110490000Y-86360000D03*
%TO.P,U1,23*%
%TO.N,Net-(CN1-Pad23)*%
X125730000Y-76200000D03*
%TO.P,U1,9*%
%TO.N,Net-(CN1-Pad9)*%
X110490000Y-83820000D03*
%TO.P,U1,22*%
%TO.N,Net-(CN1-Pad22)*%
X125730000Y-78740000D03*
%TO.P,U1,8*%
%TO.N,Net-(CN1-Pad8)*%
X110490000Y-81280000D03*
%TO.P,U1,21*%
%TO.N,Net-(CN1-Pad21)*%
X125730000Y-81280000D03*
%TO.P,U1,7*%
%TO.N,Net-(CN1-Pad7)*%
X110490000Y-78740000D03*
%TO.P,U1,20*%
%TO.N,Net-(U1-Pad20)*%
X125730000Y-83820000D03*
%TO.P,U1,6*%
%TO.N,Net-(CN1-Pad6)*%
X110490000Y-76200000D03*
%TO.P,U1,19*%
%TO.N,Net-(CN1-Pad19)*%
X125730000Y-86360000D03*
%TO.P,U1,5*%
%TO.N,Net-(CN1-Pad5)*%
X110490000Y-73660000D03*
%TO.P,U1,18*%
%TO.N,Net-(CN1-Pad18)*%
X125730000Y-88900000D03*
%TO.P,U1,4*%
%TO.N,Net-(CN1-Pad4)*%
X110490000Y-71120000D03*
%TO.P,U1,17*%
%TO.N,Net-(CN1-Pad17)*%
X125730000Y-91440000D03*
%TO.P,U1,3*%
%TO.N,Net-(CN1-Pad3)*%
X110490000Y-68580000D03*
%TO.P,U1,16*%
%TO.N,Net-(CN1-Pad16)*%
X125730000Y-93980000D03*
%TO.P,U1,2*%
%TO.N,Net-(CN1-Pad2)*%
X110490000Y-66040000D03*
%TO.P,U1,15*%
%TO.N,Net-(CN1-Pad15)*%
X125730000Y-96520000D03*
D11*
%TO.P,U1,1*%
%TO.N,Net-(CN1-Pad1)*%
X110490000Y-63500000D03*
%TD*%
D10*
%TO.P,U2,16*%
%TO.N,VCC*%
X120650000Y-74930000D03*
%TO.P,U2,8*%
%TO.N,GND*%
X113030000Y-92710000D03*
%TO.P,U2,15*%
%TO.N,Net-(U2-Pad15)*%
X120650000Y-77470000D03*
%TO.P,U2,7*%
%TO.N,Net-(CN1-Pad11)*%
X113030000Y-90170000D03*
%TO.P,U2,14*%
%TO.N,GND*%
X120650000Y-80010000D03*
%TO.P,U2,6*%
%TO.N,Net-(CN1-Pad10)*%
X113030000Y-87630000D03*
%TO.P,U2,13*%
%TO.N,Net-(CN1-Pad1)*%
X120650000Y-82550000D03*
%TO.P,U2,5*%
%TO.N,GND*%
X113030000Y-85090000D03*
%TO.P,U2,12*%
%TO.N,Net-(CN1-Pad22)*%
X120650000Y-85090000D03*
%TO.P,U2,4*%
%TO.N,Net-(BAT1-Pad1)*%
X113030000Y-82550000D03*
%TO.P,U2,11*%
%TO.N,Net-(CN1-Pad20)*%
X120650000Y-87630000D03*
%TO.P,U2,3*%
%TO.N,Net-(CN1-Pad8)*%
X113030000Y-80010000D03*
%TO.P,U2,10*%
%TO.N,Net-(U1-Pad20)*%
X120650000Y-90170000D03*
%TO.P,U2,2*%
%TO.N,/XTAL2*%
X113030000Y-77470000D03*
%TO.P,U2,9*%
%TO.N,Net-(U2-Pad15)*%
X120650000Y-92710000D03*
D11*
%TO.P,U2,1*%
%TO.N,/XTAL1*%
X113030000Y-74930000D03*
%TD*%
D13*
%TO.P,BAT1,1*%
%TO.N,Net-(BAT1-Pad1)*%
X116840000Y-59055000D03*
D14*
%TO.P,BAT1,2*%
%TO.N,GND*%
X116840000Y-38565000D03*
%TD*%
D15*
%TO.N,Net-(BAT1-Pad1)*%
X113030000Y-67310000D03*
%TO.N,GND*%
X114935000Y-64770000D03*
X116840000Y-64770000D03*
X118745000Y-64770000D03*
X112395000Y-96520000D03*
X114300000Y-96520000D03*
X116840000Y-73660000D03*
X118745000Y-73660000D03*
X114935000Y-67310000D03*
%TO.N,VCC*%
X121285000Y-73025000D03*
%TD*%
D16*
%TO.N,Net-(BAT1-Pad1)*%
X113030000Y-62865000D02*
X116840000Y-59055000D01*
X113030000Y-67310000D02*
X113030000Y-62865000D01*
D17*
%TO.N,GND*%
X107950000Y-96520000D02*
X110490000Y-96520000D01*
X116670000Y-67310000D02*
X116670000Y-69680000D01*
X116670000Y-69680000D02*
X116840000Y-69850000D01*
X114935000Y-64770000D02*
X116840000Y-64770000D01*
X116840000Y-64770000D02*
X118745000Y-64770000D01*
X116670000Y-64940000D02*
X116840000Y-64770000D01*
X116670000Y-67310000D02*
X116670000Y-64940000D01*
X110490000Y-96520000D02*
X112395000Y-96520000D01*
X112395000Y-96520000D02*
X114300000Y-96520000D01*
X116840000Y-69850000D02*
X116840000Y-73660000D01*
X116840000Y-73660000D02*
X118745000Y-73660000D01*
X114935000Y-64770000D02*
X114935000Y-67310000D01*
%TO.N,VCC*%
X123190000Y-63500000D02*
X125730000Y-63500000D01*
X121285000Y-63500000D02*
X121285000Y-64135000D01*
X122555000Y-64135000D02*
X123190000Y-63500000D01*
X123190000Y-63500000D02*
X122555000Y-62865000D01*
X122555000Y-62865000D02*
X121920000Y-62865000D01*
X121920000Y-62865000D02*
X121285000Y-63500000D01*
X118745000Y-66421000D02*
X119126000Y-66040000D01*
X118745000Y-67310000D02*
X118745000Y-66421000D01*
X118745000Y-68199000D02*
X119126000Y-68580000D01*
X118745000Y-67310000D02*
X118745000Y-68199000D01*
X120650000Y-66040000D02*
X121285000Y-65405000D01*
D18*
X121285000Y-66040000D02*
X121285000Y-65405000D01*
D17*
X120650000Y-66040000D02*
X121285000Y-66040000D01*
X120650000Y-66040000D02*
X121285000Y-66675000D01*
D18*
X121285000Y-66675000D02*
X121285000Y-66040000D01*
X121285000Y-67310000D02*
X121285000Y-66675000D01*
X121285000Y-67945000D02*
X121285000Y-67310000D01*
X121285000Y-68580000D02*
X121285000Y-67945000D01*
D17*
X120650000Y-67310000D02*
X121285000Y-67945000D01*
X120650000Y-67310000D02*
X121285000Y-67310000D01*
X120650000Y-67310000D02*
X121285000Y-66675000D01*
X120650000Y-68580000D02*
X121285000Y-67945000D01*
X120650000Y-68580000D02*
X121285000Y-68580000D01*
X120650000Y-68580000D02*
X121285000Y-69215000D01*
D18*
X121285000Y-69215000D02*
X121285000Y-68580000D01*
D17*
X119126000Y-68580000D02*
X120650000Y-68580000D01*
X119126000Y-66040000D02*
X120650000Y-66040000D01*
X118745000Y-67310000D02*
X120650000Y-67310000D01*
D18*
X121285000Y-73025000D02*
X121285000Y-69215000D01*
D17*
X121285000Y-74295000D02*
X120650000Y-74930000D01*
X121285000Y-73025000D02*
X121285000Y-74295000D01*
X121920000Y-64135000D02*
X121285000Y-64770000D01*
D18*
X121285000Y-64770000D02*
X121285000Y-64135000D01*
X121285000Y-65405000D02*
X121285000Y-64770000D01*
D17*
X121285000Y-64135000D02*
X121920000Y-64135000D01*
X121920000Y-64135000D02*
X122555000Y-64135000D01*
D16*
%TO.N,Net-(CN1-Pad27)*%
X123190000Y-66040000D02*
X125730000Y-66040000D01*
%TO.N,Net-(CN1-Pad13)*%
X110490000Y-93980000D02*
X107950000Y-93980000D01*
%TO.N,Net-(CN1-Pad26)*%
X125730000Y-68580000D02*
X123190000Y-68580000D01*
%TO.N,Net-(CN1-Pad12)*%
X107950000Y-91440000D02*
X110490000Y-91440000D01*
%TO.N,Net-(CN1-Pad25)*%
X123190000Y-71120000D02*
X125730000Y-71120000D01*
%TO.N,Net-(CN1-Pad11)*%
X110490000Y-88900000D02*
X107950000Y-88900000D01*
X111760000Y-90170000D02*
X110490000Y-88900000D01*
X113030000Y-90170000D02*
X111760000Y-90170000D01*
%TO.N,Net-(CN1-Pad24)*%
X125730000Y-73660000D02*
X123190000Y-73660000D01*
%TO.N,Net-(CN1-Pad10)*%
X107950000Y-86360000D02*
X110490000Y-86360000D01*
X111760000Y-87630000D02*
X110490000Y-86360000D01*
X113030000Y-87630000D02*
X111760000Y-87630000D01*
%TO.N,Net-(CN1-Pad23)*%
X123190000Y-76200000D02*
X125730000Y-76200000D01*
%TO.N,Net-(CN1-Pad9)*%
X110490000Y-83820000D02*
X107950000Y-83820000D01*
%TO.N,Net-(CN1-Pad22)*%
X125730000Y-78740000D02*
X123190000Y-78740000D01*
X121920000Y-80010000D02*
X123190000Y-78740000D01*
X121920000Y-83820000D02*
X121920000Y-80010000D01*
X120650000Y-85090000D02*
X121920000Y-83820000D01*
%TO.N,Net-(CN1-Pad8)*%
X107950000Y-81280000D02*
X110490000Y-81280000D01*
X111760000Y-80010000D02*
X110490000Y-81280000D01*
X113030000Y-80010000D02*
X111760000Y-80010000D01*
%TO.N,Net-(CN1-Pad21)*%
X125730000Y-81280000D02*
X123190000Y-81280000D01*
%TO.N,Net-(CN1-Pad7)*%
X110490000Y-78740000D02*
X107950000Y-78740000D01*
%TO.N,Net-(CN1-Pad20)*%
X121920000Y-85090000D02*
X123190000Y-83820000D01*
X121920000Y-86360000D02*
X121920000Y-85090000D01*
X120650000Y-87630000D02*
X121920000Y-86360000D01*
%TO.N,Net-(CN1-Pad6)*%
X107950000Y-76200000D02*
X110490000Y-76200000D01*
%TO.N,Net-(CN1-Pad5)*%
X110490000Y-73660000D02*
X107950000Y-73660000D01*
%TO.N,Net-(CN1-Pad18)*%
X125730000Y-88900000D02*
X123190000Y-88900000D01*
%TO.N,Net-(CN1-Pad4)*%
X107950000Y-71120000D02*
X110490000Y-71120000D01*
%TO.N,Net-(CN1-Pad17)*%
X123190000Y-91440000D02*
X125730000Y-91440000D01*
%TO.N,Net-(CN1-Pad3)*%
X110490000Y-68580000D02*
X107950000Y-68580000D01*
%TO.N,Net-(CN1-Pad16)*%
X125730000Y-93980000D02*
X123190000Y-93980000D01*
%TO.N,Net-(CN1-Pad2)*%
X107950000Y-66040000D02*
X110490000Y-66040000D01*
%TO.N,Net-(CN1-Pad15)*%
X123190000Y-96520000D02*
X125730000Y-96520000D01*
%TO.N,Net-(CN1-Pad1)*%
X110490000Y-63500000D02*
X107950000Y-63500000D01*
X115570000Y-77470000D02*
X120650000Y-82550000D01*
X113474500Y-68580000D02*
X115570000Y-70675500D01*
X111715001Y-67900001D02*
X112395000Y-68580000D01*
X112395000Y-68580000D02*
X113474500Y-68580000D01*
X111715001Y-64725001D02*
X111715001Y-67900001D01*
X115570000Y-70675500D02*
X115570000Y-77470000D01*
X110490000Y-63500000D02*
X111715001Y-64725001D01*
%TO.N,Net-(U1-Pad20)*%
X124504999Y-85045001D02*
X125730000Y-83820000D01*
X123733002Y-87630000D02*
X124504999Y-86858003D01*
X124504999Y-86858003D02*
X124504999Y-85045001D01*
X121920000Y-88401997D02*
X121920000Y-88900000D01*
X120650000Y-90170000D02*
X121920000Y-88900000D01*
X122691997Y-87630000D02*
X123733002Y-87630000D01*
X121920000Y-88401997D02*
X122691997Y-87630000D01*
D19*
%TO.N,/XTAL2*%
X113665000Y-77470000D02*
X113030000Y-77470000D01*
X114554000Y-76581000D02*
X113665000Y-77470000D01*
X114554000Y-71379000D02*
X114554000Y-76581000D01*
X113030000Y-69855000D02*
X114554000Y-71379000D01*
%TO.N,/XTAL1*%
X113030000Y-71755000D02*
X113030000Y-74930000D01*
%TD*%
D20*
%TO.N,GND*%
X120345511Y-63110852D02*
X120287643Y-63301614D01*
X120280999Y-63369078D01*
X120230608Y-63430478D01*
X120113423Y-63649717D01*
X120041260Y-63887605D01*
X120023000Y-64073004D01*
X120023000Y-65028000D01*
X119175700Y-65028000D01*
X119125999Y-65023105D01*
X119076298Y-65028000D01*
X119076289Y-65028000D01*
X118927613Y-65042643D01*
X118736851Y-65100511D01*
X118561043Y-65194482D01*
X118406946Y-65320946D01*
X118375254Y-65359563D01*
X118064554Y-65670262D01*
X118025947Y-65701946D01*
X117994263Y-65740553D01*
X117994257Y-65740559D01*
X117899482Y-65856043D01*
X117834293Y-65978005D01*
X117815435Y-66013287D01*
X117689302Y-66116802D01*
X117688760Y-66117463D01*
X117611994Y-66054463D01*
X117501680Y-65995498D01*
X117381982Y-65959188D01*
X117257500Y-65946928D01*
X116955750Y-65950000D01*
X116797000Y-66108750D01*
X116797000Y-67183000D01*
X116817000Y-67183000D01*
X116817000Y-67437000D01*
X116797000Y-67437000D01*
X116797000Y-68511250D01*
X116955750Y-68670000D01*
X117257500Y-68673072D01*
X117381982Y-68660812D01*
X117501680Y-68624502D01*
X117611994Y-68565537D01*
X117688760Y-68502537D01*
X117689302Y-68503198D01*
X117815435Y-68606713D01*
X117899482Y-68763957D01*
X117994257Y-68879441D01*
X117994263Y-68879447D01*
X118025947Y-68918054D01*
X118064554Y-68949738D01*
X118375254Y-69260437D01*
X118406946Y-69299054D01*
X118561043Y-69425518D01*
X118736851Y-69519489D01*
X118927613Y-69577357D01*
X119076289Y-69592000D01*
X119076298Y-69592000D01*
X119125999Y-69596895D01*
X119175700Y-69592000D01*
X120023001Y-69592000D01*
X120023000Y-73086995D01*
X120041260Y-73272394D01*
X120100293Y-73466999D01*
X119910115Y-73545773D01*
X119654283Y-73716715D01*
X119436715Y-73934283D01*
X119265773Y-74190115D01*
X119148027Y-74474381D01*
X119088000Y-74776156D01*
X119088000Y-74803000D01*
X116507000Y-74803000D01*
X116507000Y-70721517D01*
X116511532Y-70675500D01*
X116507000Y-70629483D01*
X116507000Y-70629475D01*
X116493442Y-70491816D01*
X116439863Y-70315191D01*
X116352856Y-70152412D01*
X116235764Y-70009736D01*
X116200018Y-69980400D01*
X114254618Y-68035000D01*
X115444428Y-68035000D01*
X115456688Y-68159482D01*
X115492998Y-68279180D01*
X115551963Y-68389494D01*
X115631315Y-68486185D01*
X115728006Y-68565537D01*
X115838320Y-68624502D01*
X115958018Y-68660812D01*
X116082500Y-68673072D01*
X116384250Y-68670000D01*
X116543000Y-68511250D01*
X116543000Y-67437000D01*
X115606250Y-67437000D01*
X115447500Y-67595750D01*
X115444428Y-68035000D01*
X114254618Y-68035000D01*
X114169606Y-67949988D01*
X114140264Y-67914236D01*
X114063539Y-67851269D01*
X114147345Y-67648943D01*
X114192000Y-67424447D01*
X114192000Y-67195553D01*
X114147345Y-66971057D01*
X114059751Y-66759587D01*
X113967000Y-66620775D01*
X113967000Y-66585000D01*
X115444428Y-66585000D01*
X115447500Y-67024250D01*
X115606250Y-67183000D01*
X116543000Y-67183000D01*
X116543000Y-66108750D01*
X116384250Y-65950000D01*
X116082500Y-65946928D01*
X115958018Y-65959188D01*
X115838320Y-65995498D01*
X115728006Y-66054463D01*
X115631315Y-66133815D01*
X115551963Y-66230506D01*
X115492998Y-66340820D01*
X115456688Y-66460518D01*
X115444428Y-66585000D01*
X113967000Y-66585000D01*
X113967000Y-63253117D01*
X114228117Y-62992000D01*
X120409038Y-62992000D01*
X120345511Y-63110852D01*
%TA.AperFunction,Conductor*%
D21*
G36*
X120345511Y-63110852D02*
G01*
X120287643Y-63301614D01*
X120280999Y-63369078D01*
X120230608Y-63430478D01*
X120113423Y-63649717D01*
X120041260Y-63887605D01*
X120023000Y-64073004D01*
X120023000Y-65028000D01*
X119175700Y-65028000D01*
X119125999Y-65023105D01*
X119076298Y-65028000D01*
X119076289Y-65028000D01*
X118927613Y-65042643D01*
X118736851Y-65100511D01*
X118561043Y-65194482D01*
X118406946Y-65320946D01*
X118375254Y-65359563D01*
X118064554Y-65670262D01*
X118025947Y-65701946D01*
X117994263Y-65740553D01*
X117994257Y-65740559D01*
X117899482Y-65856043D01*
X117834293Y-65978005D01*
X117815435Y-66013287D01*
X117689302Y-66116802D01*
X117688760Y-66117463D01*
X117611994Y-66054463D01*
X117501680Y-65995498D01*
X117381982Y-65959188D01*
X117257500Y-65946928D01*
X116955750Y-65950000D01*
X116797000Y-66108750D01*
X116797000Y-67183000D01*
X116817000Y-67183000D01*
X116817000Y-67437000D01*
X116797000Y-67437000D01*
X116797000Y-68511250D01*
X116955750Y-68670000D01*
X117257500Y-68673072D01*
X117381982Y-68660812D01*
X117501680Y-68624502D01*
X117611994Y-68565537D01*
X117688760Y-68502537D01*
X117689302Y-68503198D01*
X117815435Y-68606713D01*
X117899482Y-68763957D01*
X117994257Y-68879441D01*
X117994263Y-68879447D01*
X118025947Y-68918054D01*
X118064554Y-68949738D01*
X118375254Y-69260437D01*
X118406946Y-69299054D01*
X118561043Y-69425518D01*
X118736851Y-69519489D01*
X118927613Y-69577357D01*
X119076289Y-69592000D01*
X119076298Y-69592000D01*
X119125999Y-69596895D01*
X119175700Y-69592000D01*
X120023001Y-69592000D01*
X120023000Y-73086995D01*
X120041260Y-73272394D01*
X120100293Y-73466999D01*
X119910115Y-73545773D01*
X119654283Y-73716715D01*
X119436715Y-73934283D01*
X119265773Y-74190115D01*
X119148027Y-74474381D01*
X119088000Y-74776156D01*
X119088000Y-74803000D01*
X116507000Y-74803000D01*
X116507000Y-70721517D01*
X116511532Y-70675500D01*
X116507000Y-70629483D01*
X116507000Y-70629475D01*
X116493442Y-70491816D01*
X116439863Y-70315191D01*
X116352856Y-70152412D01*
X116235764Y-70009736D01*
X116200018Y-69980400D01*
X114254618Y-68035000D01*
X115444428Y-68035000D01*
X115456688Y-68159482D01*
X115492998Y-68279180D01*
X115551963Y-68389494D01*
X115631315Y-68486185D01*
X115728006Y-68565537D01*
X115838320Y-68624502D01*
X115958018Y-68660812D01*
X116082500Y-68673072D01*
X116384250Y-68670000D01*
X116543000Y-68511250D01*
X116543000Y-67437000D01*
X115606250Y-67437000D01*
X115447500Y-67595750D01*
X115444428Y-68035000D01*
X114254618Y-68035000D01*
X114169606Y-67949988D01*
X114140264Y-67914236D01*
X114063539Y-67851269D01*
X114147345Y-67648943D01*
X114192000Y-67424447D01*
X114192000Y-67195553D01*
X114147345Y-66971057D01*
X114059751Y-66759587D01*
X113967000Y-66620775D01*
X113967000Y-66585000D01*
X115444428Y-66585000D01*
X115447500Y-67024250D01*
X115606250Y-67183000D01*
X116543000Y-67183000D01*
X116543000Y-66108750D01*
X116384250Y-65950000D01*
X116082500Y-65946928D01*
X115958018Y-65959188D01*
X115838320Y-65995498D01*
X115728006Y-66054463D01*
X115631315Y-66133815D01*
X115551963Y-66230506D01*
X115492998Y-66340820D01*
X115456688Y-66460518D01*
X115444428Y-66585000D01*
X113967000Y-66585000D01*
X113967000Y-63253117D01*
X114228117Y-62992000D01*
X120409038Y-62992000D01*
X120345511Y-63110852D01*
G37*
%TD.AperFunction*%
%TD*%
M02*
